<mxfile host="app.diagrams.net" modified="2022-11-22T19:34:55.209Z" agent="5.0 (Windows NT 10.0; Win64; x64) AppleWebKit/537.36 (KHTML, like Gecko) Chrome/107.0.0.0 Safari/537.36 Edg/107.0.1418.52" etag="LgWbT02wMAG8xXKNiQxp" version="20.6.0" type="github">
  <diagram id="kgpKYQtTHZ0yAKxKKP6v" name="Page-1">
    <mxGraphModel dx="2225" dy="794" grid="1" gridSize="10" guides="1" tooltips="1" connect="1" arrows="1" fold="1" page="1" pageScale="1" pageWidth="850" pageHeight="1100" math="0" shadow="0">
      <root>
        <mxCell id="0" />
        <mxCell id="1" parent="0" />
        <mxCell id="3nuBFxr9cyL0pnOWT2aG-1" value="GitHub Desktop" style="shape=umlLifeline;perimeter=lifelinePerimeter;container=1;collapsible=0;recursiveResize=0;rounded=0;shadow=0;strokeWidth=1;fontColor=#7F00FF;strokeColor=#7F00FF;fontSize=19;" parent="1" vertex="1">
          <mxGeometry x="80" y="40" width="250" height="510" as="geometry" />
        </mxCell>
        <mxCell id="3nuBFxr9cyL0pnOWT2aG-2" value="" style="points=[];perimeter=orthogonalPerimeter;rounded=0;shadow=0;strokeWidth=1;" parent="3nuBFxr9cyL0pnOWT2aG-1" vertex="1">
          <mxGeometry x="45" y="70" width="10" height="190" as="geometry" />
        </mxCell>
        <mxCell id="3nuBFxr9cyL0pnOWT2aG-3" value="dispatch" style="verticalAlign=bottom;startArrow=oval;endArrow=block;startSize=8;shadow=0;strokeWidth=1;" parent="3nuBFxr9cyL0pnOWT2aG-1" target="3nuBFxr9cyL0pnOWT2aG-2" edge="1">
          <mxGeometry relative="1" as="geometry">
            <mxPoint x="-15" y="70" as="sourcePoint" />
          </mxGeometry>
        </mxCell>
        <mxCell id="3nuBFxr9cyL0pnOWT2aG-4" value="" style="points=[];perimeter=orthogonalPerimeter;rounded=0;shadow=0;strokeWidth=1;" parent="3nuBFxr9cyL0pnOWT2aG-1" vertex="1">
          <mxGeometry x="50" y="120" width="10" height="80" as="geometry" />
        </mxCell>
        <mxCell id="3nuBFxr9cyL0pnOWT2aG-5" value="GitHub Online" style="shape=umlLifeline;perimeter=lifelinePerimeter;container=1;collapsible=0;recursiveResize=0;rounded=0;shadow=0;strokeWidth=1;fontSize=19;" parent="1" vertex="1">
          <mxGeometry x="460" y="30" width="260" height="510" as="geometry" />
        </mxCell>
        <mxCell id="3nuBFxr9cyL0pnOWT2aG-6" value="" style="points=[];perimeter=orthogonalPerimeter;rounded=0;shadow=0;strokeWidth=1;" parent="3nuBFxr9cyL0pnOWT2aG-5" vertex="1">
          <mxGeometry x="45" y="80" width="10" height="160" as="geometry" />
        </mxCell>
        <mxCell id="3nuBFxr9cyL0pnOWT2aG-7" value="return" style="verticalAlign=bottom;endArrow=open;dashed=1;endSize=8;exitX=0;exitY=0.95;shadow=0;strokeWidth=1;" parent="1" source="3nuBFxr9cyL0pnOWT2aG-6" target="3nuBFxr9cyL0pnOWT2aG-2" edge="1">
          <mxGeometry relative="1" as="geometry">
            <mxPoint x="275" y="236" as="targetPoint" />
          </mxGeometry>
        </mxCell>
        <mxCell id="3nuBFxr9cyL0pnOWT2aG-8" value="dispatch" style="verticalAlign=bottom;endArrow=block;entryX=0;entryY=0;shadow=0;strokeWidth=1;" parent="1" source="3nuBFxr9cyL0pnOWT2aG-2" target="3nuBFxr9cyL0pnOWT2aG-6" edge="1">
          <mxGeometry relative="1" as="geometry">
            <mxPoint x="275" y="160" as="sourcePoint" />
          </mxGeometry>
        </mxCell>
        <mxCell id="3nuBFxr9cyL0pnOWT2aG-9" value="callback" style="verticalAlign=bottom;endArrow=block;entryX=1;entryY=0;shadow=0;strokeWidth=1;" parent="1" source="3nuBFxr9cyL0pnOWT2aG-6" target="3nuBFxr9cyL0pnOWT2aG-4" edge="1">
          <mxGeometry relative="1" as="geometry">
            <mxPoint x="240" y="200" as="sourcePoint" />
          </mxGeometry>
        </mxCell>
        <mxCell id="3nuBFxr9cyL0pnOWT2aG-10" value="return" style="verticalAlign=bottom;endArrow=open;dashed=1;endSize=8;exitX=1;exitY=0.95;shadow=0;strokeWidth=1;" parent="1" source="3nuBFxr9cyL0pnOWT2aG-4" target="3nuBFxr9cyL0pnOWT2aG-6" edge="1">
          <mxGeometry relative="1" as="geometry">
            <mxPoint x="240" y="257" as="targetPoint" />
          </mxGeometry>
        </mxCell>
        <mxCell id="Tsn-wMp8jWEcrMPQcLiN-2" value="" style="shape=image;verticalLabelPosition=bottom;labelBackgroundColor=default;verticalAlign=top;aspect=fixed;imageAspect=0;image=data:image/jpeg,/9j/4AAQSkZJRgABAQEBLAEsAAD/4RfkRXhpZgAASUkqAAgAAAAFABoBBQABAAAASgAAABsBBQABAAAAUgAAACgBAwABAAAAAgAAADEBAgAMAAAAWgAAADIBAgAUAAAAZgAAAHoAAAAsAQAAAQAAACwBAAABAAAAR0lNUCAyLjEwLjYAMjAxOToxMToyOCAxODo0MjowNgAIAAABBAABAAAAAAEAAAEBBAABAAAAAAEAAAIBAwADAAAA4AAAAAMBAwABAAAABgAAAAYBAwABAAAABgAAABUBAwABAAAAAwAAAAECBAABAAAA5gAAAAICBAABAAAA9hYAAAAAAAAIAAgACAD/2P/gABBKRklGAAEBAAABAAEAAP/bAEMACAYGBwYFCAcHBwkJCAoMFA0MCwsMGRITDxQdGh8eHRocHCAkLicgIiwjHBwoNyksMDE0NDQfJzk9ODI8LjM0Mv/bAEMBCQkJDAsMGA0NGDIhHCEyMjIyMjIyMjIyMjIyMjIyMjIyMjIyMjIyMjIyMjIyMjIyMjIyMjIyMjIyMjIyMjIyMv/AABEIAQABAAMBIgACEQEDEQH/xAAfAAABBQEBAQEBAQAAAAAAAAAAAQIDBAUGBwgJCgv/xAC1EAACAQMDAgQDBQUEBAAAAX0BAgMABBEFEiExQQYTUWEHInEUMoGRoQgjQrHBFVLR8CQzYnKCCQoWFxgZGiUmJygpKjQ1Njc4OTpDREVGR0hJSlNUVVZXWFlaY2RlZmdoaWpzdHV2d3h5eoOEhYaHiImKkpOUlZaXmJmaoqOkpaanqKmqsrO0tba3uLm6wsPExcbHyMnK0tPU1dbX2Nna4eLj5OXm5+jp6vHy8/T19vf4+fr/xAAfAQADAQEBAQEBAQEBAAAAAAAAAQIDBAUGBwgJCgv/xAC1EQACAQIEBAMEBwUEBAABAncAAQIDEQQFITEGEkFRB2FxEyIygQgUQpGhscEJIzNS8BVictEKFiQ04SXxFxgZGiYnKCkqNTY3ODk6Q0RFRkdISUpTVFVWV1hZWmNkZWZnaGlqc3R1dnd4eXqCg4SFhoeIiYqSk5SVlpeYmZqio6Slpqeoqaqys7S1tre4ubrCw8TFxsfIycrS09TV1tfY2dri4+Tl5ufo6ery8/T19vf4+fr/2gAMAwEAAhEDEQA/APf6KKKACiiigAooooAKKKKACiiigAooooAKKKKACiiigAooooAKKKKACiiigAooooAKKKKACiiigAooooAKKKKACiiigAooooAKKKKACiiigAooooAKKKKACiiigAooozQAUUm4etLkUAFFFFABRRRQAUUUUAFFFFABRRRQAUUUUAFFFFABRRRQAUUUUAFFFFABRRRQAUUUUAFFFFABTHkVMZ6noBTZJcHYnLn9PevPfFnxCTTJZNP0cpNeDKy3LcrGfQDox/Qe/Iq6dOVR2iXTpym7RO21DVrTTYRNf3cNpGeBvYbmPoB3P0zXJ3fxL0eGUx21tdXf/TQ4VD+Zz+leUXN7cX1y9zdzyTzP1eRsn/8AV7UitXoQwUV8TuehDBQXxO56WficmeNETHvP/wDYVLH8T7If6/SZlz/zwkVj+u2vMt9NZ81o8JS7GrwlLse56V4s0bVmSKz1BVmbpBP8rH2Gev4ZrcE3O1xtPb0NfNbNmus8N/EG/wBIZLW/LXtgcKQ5zJGPUE9fofzFc1XBtK8GctXBtawZ7bRWdp+pW97ZxXdrOs1pKMq4PT2P+citEVw2scOwUUUUAFFFFABRRRQAUUUUAFFFFABRRRQAUUUUAFFFFABRRRQAUUUUAFRyyCNN3U9APU1JWVquoRWFrc3sx/c2kTSMPU46f59aEr6AlfQ4r4h+Ln0qD+yLGUi9nXdcSr1jQ9gexP6D6g15VaQyXV1DbRY8yV1jQH1JwP51FfX82p6hcX1y2Zp3LvzwCew9h0HsK0fC8qR+KtJaTGwXUec/7wA/XFezTpqlT03PWpwVKnpudDqXw61/Tk8yKOK8jHJ+zvlh/wABIBP4ZrliTGxVwVYHBVhgg+9fSGarGwsjdm7Npbm5ICmYxjeQPfGa5IY2S+JHNDGyXxI+fAHYZVGI9QKjZ8HB6+lfSHA6CoLmztL2IxXVtDPG3VZIwwP51Sx3eJSx3keFaR4a1jXvmsbQtFnBmkO2Mfiev4Zo8TeGrvwxLax3csMhuEZlMRJA2kAjkD+8K96jVIo1jjVURRhVUYAH0rzb4vTxC30mE484vI4/3QFB/UinSxUqlRLoOnipTqJdDlfBvi2Xw5qYSZmbTp2AnTrt7bwPUd/UfhXu1tMp2qrhkZd0bA5yK+Xi1ew/DHXXv/D8lhKwM2nMPLweTEen5YYfTFGMoq3OhYukvjR6VRTUYOgYHIIp1eccAUUUUAFFFFABRRRQAUUUUAFFFFABRRRQAUUUUAFFFFABRRRQAhOAa83+KN8IfB5iBIN5dKpx3C5b/wBlWvR5PuH6V458XJG+waEuflJkY/XCf4mt8Or1Ua0VeojzMNXoPwt0JNQ1ebU7hVeGyAEasM5kPQ/gAfxIPavOg1ev/B5h/Yepjv8AbAfw8tf8DXo4qTjTdjtrzag7HpOaM0zNGa8c80fmjNMzRmgB+a5rxxoUWueG7gbR9qt1M0D45BAyV+hAx+XpXRZqK4YLaylvuhCTn6VUJOMk0VFuLuj5kLA8g5Fdd8Mr4Wnja3jJIF1E8PXjpuH/AKB+tcVG37pP90fyrc8HOR400cjr9qUV7VVXptHp1HeDR9JWLZg2/wBxiv5GrNU7H70w/wBv+gq5XhnlBRRRQAUUUUAFFFFABRRRQAUUUUAFFFFABRRRQAUUUUAFFFFADXGUNeU/FezMnhe0uQBm1uihPopBH8wtesHpXJ+KtGXWNI1HS25a4j8yHPZ1wR+oX860oy5JplwlyyTPnENXovwm1tbXWbnS5mAW7QNGScfOuePxBP8A3zXnaQu10lu2InaQRnzTtCHOPm9Md66DV/CWveFo4dRmVPLVgy3NtJuVGz8uTgEdsHGK9eqoyjyN7nbNqS5WfQ2aM15j4c+LFpJbrBryNDMoA+0xIWV/cqOQfpkfSu8sdd0rUyBY6jbXDEZCxygt+XWvInSnB6o4ZQcdzSzRmm5qG4u7ezi825njgiBxvkcKPzNZkljNc7441lNF8J3spP72ZDBCM8lmGM/gMn8Ko6t8SPDumKyx3f22YDIjthuB+rfdH515B4m8U33ii/Fxd7Y40GIoFOVjB689ycda6qGHlKSclobU6bbuzILV0/w7tDe+ONPxgrAWmb6BTj9SK5PdXqnwm0nyre+1yRCHb/RrckcHkFiPXnaPwNehiJ8tNs6as7RZ67pwJjdz/E7H9cVdqC0i8m3ROuBjNT14pwBRRRQAUUUUAFFFFABRRRQAUUUUAFFFFABRRRQAUUUUAFFFFABVLUIGeMSRj50OR7+1XaQjIxQB4F8TPDBs73+3rKPNpdN+/VVP7uT1PoD/ADz6irXwy8QC8SfwvqWJraWJjAJDwBj5o/pjkemDXq+qadG0UySQrNaTKVmhYZBB6nHf6f5PiXinwRf+G7r+1dHaWbT1bzEljOZID15x2H9788d+6lUVWHs5b9DaMuZcrLGt/CzWLS8Y6SEvLRiSmZAjoOwbcQD9QefQV2Pw88H3PhyG6udSjhF7PhU2PuKIOSM9ASfTPQVxNj8WNetoRHcR2l0QOJHjKsfrtIH6V6B4C8UXninTL26vY4I2huvJRYVIG3Yjc5J5yxp13WVO0tgm52szr81R1myh1PRryznUMksTLyOhxwfqDg/hVvNRzn/R5P8AcP8AKuGO6MkfLquXVW9RmlzUUZ/dJ/uitXRdB1HxBei106AyN/G54SMerHt/P0zXvOSSuzs5rIdoWjXXiDV4dPtB8znLvjiNe7H2H+A719GaJpcFlb21jaqVtLNQi56s3qT69c+5rE8KeFbbw9Zmzsv3l1Jj7TdkYJ9h7DsO2cn37e2gS3iVEGABXk4mv7R2WyOapPmZMBgUUUVzGYUUUUAFFFFABRRRQAUUUUAFFFFABRRRQAUUUUAFFFFABRRRQAUUUUAIyhhgisu505lZpLcgE/eQ/db/AAPv/OtWigDyvxD8PNF1VpZlRtKvX/5aRrmIn1K8D8ipNaXgrwufCml3Fq94Lp55zMXWPYB8qrgDJ/u/rXfPCkg+ZQapPo9uWLIuwnuhK/yrR1ZuPK3oO72KWaRwHRkPRhg1b/skdpZP++zSjR4m/wBYzsPRnJH5ZrMR5Npnwm0+1uj/AGlqcl3GOI4II/LYj/aIJP5Y+tejaXosdtapbWdqllaKP9XGMMfcn19+T71uw2MEAASNQB2AxVgADoK0nVnP4mNtsit7aO3jCooAHpU1FFZiCiiigAooooAKKKKACiiigAooooAKKKKACiiigAooooAKKKKACiiigAoork/GvxC0fwPbxm+LzXUwJhtohlmx3PYD3oA6yivBP+GjJ/O/5FuPys/8/Z3Y/wC+a9S0nx1p994GHiu8jksLLYzMJeSMHbxjrk9KAOporB8LeMNI8YafJe6TOzxxPskV12sp68g1sR3VvM+2KeKRsZwrgmgCaiuG8ZfFHSvBWsw6ZfWd3NLNEJVaEKQASR3I9K7G4u1t9OlvGUlI4jKVHUgDNAFiiuL8EfErS/HV3d2+n2l3C1siu5nCgEE44wT6V2lABRQa4Tw98U9K8R+LJPD1tZ3kdzGZAXkC7Pk69DntQB3dFFFABRRRQAUUUUAFFFFABRRRQAUUUUAFFFFABRRRQAUUUUAFFFFABXy/rMB8efHWXT7hmNu14bcgHpFGDkD0ztP519QV8wR3CeEv2gJZ71gkI1ByztwAkoOD9PnFA0e33K+AfDSx6ZerolkRGCIZ1QMV6A88np1ql4i1XwhN8N9UNutvqGi2yBJYLCRRtywxgjgEEg1gfF/wLp2s6Ve+LWvZxcWlmBHHGVMbgEkE8Z/i9a4Lwj/yQrxl/wBfEf8A7JTA6rwh4y8JeFPh9f6npmlajHbteC3cSOryySFMgk5AAArzf4deN7XwX4mu9UurSa4jmgaIJEQCCWBzz9K9L+BNpbXngfWY7q3inQXZYLIgYA+WOcGuV+B9la3nj7UYrq2hmjFpIQkqBgD5i9jQBH8b7xb3xbo16FKLNpsUu09QCzGvTr74veCptBubZNVYyvbNGq+Q/LFcY6V5x8e4kXxzpsSKFjFgihVGABvfgV3978GfBkGh3F0lncCVLZpFP2lvvBc+tAHA/A/U00QeKtUljaSO0sFmZFPLBSxwK9g8CfEOz8eretZ2VxbC0KBvOYHduz0x9K8L+GX/ACLPjz/sEH/2auy/ZzI8nxBz/FB/J6QHa6d8VLDUfHb+E0065S5WaSIzMy7MoCSfXtXhnhzxRb+D/ifqGrXNvNcIk1ygjixuJZiB1roPDH/Jxk//AF+3P/oLUz4XwxTfGy+WWNHAe6YBlBwdx5oA7rw98d9L1bW4dOv9Lm0/z3EaTNKHUE9N3AxXrdfNfx2t4LXx/YyWqKk0lqjPsGMsHYAn34/Svo+2JNrCT12DP5UCJaKKKACiiigAooooAKKKKACiiigAooooAKKKKACiiigAooooAK88+Ivwrs/G7JewXAstTjXZ5pXcsi+jD+Rr0OorqcW1pNOV3CJC5A74GaAPnNvgz4+/5Bw1OJrDOP8Aj7fy8f7n/wBau80r4TXmlfDfWfDi6nDLdak6v5hjKpGQV47k9K0LH4qS6hZJfW/hLWJLNsnzo1Vhgdeh5rrvDviXTfFGnm802UsqtskRxteNvRh2NAXOb+GXga88EaJe2F9dQXDXE/mAxA4A2gY5+lee33wZ8VaP4jlvvCurRxRTO21/NMTxqxztOOo/wr32igDyDxx8J9Z8W6jpd4mpWqPa2UdvKZSxLupJLZx3zXqd3aPcaNPZqyh5LdogT0yVxVwnAJrC8L+J4fFFteTw28kItbp7Zg5ByV6kY7UAcJ4A+E134Zj1q31W8trm31O1+zMIdwIHOeo9DXJW/wAHfHPh/VZF0HWoorab5WuI5mjO3tuX/CvoOSRIY2kkdURRksxwBSRSxzxLLE6vGwyrKcgj2oC54/4S+D+reHPG9nr1xrMF6se5piysHZmUg9c55PUms0/BLxFDrF/q9h4ihs7uSV5IDDvBwzEkFhjHb1r3WigLng+i/BzxLqfiiHVPF+pJNHA6sf3pkeULyBnsK93AwAPSlooAKKKKACiiigAooooAKKKKACiiigAooooAKKKKACiiigAooooAKp6t/wAge9/64P8A+gmrlVNUUvpN4qgljC4AHfg0Acn8JP8Akmul/R//AEI1laBJHpHxd8U20Q2Wj2qXTqOgYAZP6ms7wR4tuvDng6z0mXwxrU15CGGEtiFJJJHJrc8I+HNUuZ9d17XIRbX2rr5aQA5MMeMAH3oAoW/irxnrej3XiLShpkOmRF2htp1YySohOSTnAzir+qfEC5/4RXQb7TIIUu9ZkWJGuD+7hJ6lq4/QbDRtA05tH8SeHNVkvYZHXzLeOR45lJOCNpx0ruNQ/wCEesvCGnWt54cvJNLkGUtltzI0Hcbh1HWgDU0JPFSXbHWL/TLuzMZwbWIoyt+JII61554Q8VroGiavaWcX2rWLvV50tLVTyx4+Y+ijvWn4QtC3jtrrw/ZajZaALUrOl2GVXkzxtVqxtB8B3Nzpes6xbQzWfiC31OSazlkBXcoOQuD/AAtk0wOq8dL4lX4Z3huJbBpjbs16VRlCr6IMnn3NP8JX+vaN4KTUtZksZNMt9PWSBLdWEmAuQGJ46VavLq+8Y/DHUYxYTW+pS2zRvbSoVPmY7Z6g9jVLRp28S/Di48PLZ3drfwWAgdbiIoN+3AwT16UgKp8Q+Ox4Z/4Sorpf2LZ9o+w+W3meV1+/nritDXPHF+kfhiTRYLd/7byqrcZAUlQQcj0rCPiW7b4ff8Ix/YWpjWvsv2Py/s52Zxt3b+mO9QeJbWXwwnw8tpYZJ5bKXa8cI3MxCjIA70wOhfxD4p8N+I9LtPEL6fdWGpS+QktrGyGKTGQCCTkV6DXl2sahN468TeH7TT9Mv4bawu/tVzPcwGMLgfdGepr1GkAUUUUAFFFFABRRRQAUUUUAFFFFABRRRQAUUUUAFFFFABRRRQAUUUUAFFFFABiiiigAooooAKKKKADFch4s8P3+r+JPDV7aIhh0+6Ms5ZsEKQBx6119FABRRRQAUUUUAFFFFABRRRQAUUUUAFFFFABRRRQAUUUUAFFFFABRRRQAUUUUAFFFFABRRRQAUUUUAFFFFABRRRQAUUUUAFFFFABRRRQAUUUUAFFFFABRRRQAUUUUAFFFFABRRRQAUUUUAFFFFABRRRQAUUUUAFFFFABRRRQAUUUUAFFFFABRRRQAUUUUAFFFFABRRRQAUUUUAFFFFABRRRQAUUUUAFFFFABRRRQAUUUUAFFFFABRRRQAUUUUAFFFFAFe9v7TToPPvLiOCPOAztjJ9B6mq8Ot6bc2txcQXaSR26lpQv3kAGeR17VV8Q6AmuLaN9pa3mtZfMiYZIJxgggEHH0INR6d4dazkubiSaI3csXkrNGj5Rffe7Z55rRKHLdvUm8rleHxe9xBFcxaNctbygNG3nwBmB6HaXrZvdXsNOWM3l1HC0n3EY/M3rgDk1zkngtpIpYGOihZQVaYaUolOe4O/GffH4VeTwu9lcWNzp17sntLT7Hm5j81XTIOTgqQcjqDVyVLoyU59SzfeJ9Ms9Dm1ZZ1uLePI/dHJLD+H2P1ql/wmdrBaWc17D5LXUwiRI3L4B/iJwOhBGBmlfwn52maxDLfbrrVSDNMsWEXAAAVM+g9cmtLU9J/tJdPAn2fZLlLj7ud+0EY68detL90tA98bP4k0e1neCa/iSVArMhzkAjIJHpirEur6dDYR30l7AtrJjZLvG189MetQWekC01zVNSMwf7cIh5ZTGzYu3rnnOax5PBCSaZZWwvnWayuJZ4ZApC/OxJUqGBxzjgg0kqfcd5djch1zS7i1nuYr2Jordd0xzzGOuSOoqWx1Oy1NGeyuY7hFIBaM5Az71iL4TLWWpRzTw/aL22Nt50aSZVSD13yNnk57frW/ZWy2VjBbLgiKNUyBjOBjOKUlBL3WNOXU//Z/9sAQwABAQEBAQEBAQEBAQEBAQEBAQEBAQEBAQEBAQEBAQEBAQEBAQEBAQEBAQEBAQEBAQEBAQEBAQEBAQEBAQEBAQEB/9sAQwEBAQEBAQEBAQEBAQEBAQEBAQEBAQEBAQEBAQEBAQEBAQEBAQEBAQEBAQEBAQEBAQEBAQEBAQEBAQEBAQEBAQEB/8IAEQgBkAGQAwERAAIRAQMRAf/EAB4AAQABAwUBAAAAAAAAAAAAAAAIBgcJAQMEBQoC/8QAHAEBAAIDAQEBAAAAAAAAAAAAAAECAwYHBAUI/9oADAMBAAIQAxAAAAHP4AAAAAAAAAAAAAAAAAAAAAAAAAAAAAAAAAAAAAAAAAAAAAAAAAAAAAAAAAAAAAAAAAAAAAAAAAAAAAAAAAAAAAAAAAAAAAAAAAAAAAAAAAAAAAAAAAAAAAAAAAAAAAAAAAAAAAAAAAaA1AAAAAAAAAAAAAAAAAAAAABocSY4ESmfi19D7pTVHLmefWNZIJAAAAAAAAAAAAAAAAAAbB0aLI/b+5B7d96jns+00X7vaTU/k8cgtb1mbOkaRIzX9d7eleZM6yAAAAAAAAAAAAAAAAAHBKPzZMWfTOnQc3nfewy35tY5dranFRwjq64pX6fp2WvlXLq/83j7ZIAAAAAAAAAAAAAAAAHGKDzZsJ3YOuxx2baebNeWnl2tvxBbaiOIcNHDmLsfC+DnL4xxy5vl8vZAAAAAAAAAAAAAAAAGkRRsziP6l0yBO+bzej4/yMheiaTAzd92s79T6dU48W+mks2SuvB4p/aNpEVdl2OKG07LKTVNUzece5NW1Y+wAAAAAAAAAAAAAAAdSRi+59nAH3LsfKnJOzR9MzIcn5hs5vRTebNVnm8w6b059MdO4wefGt0LfcVvTei8OMebLjvKZt6lq9RzIAAAAAAAAAAAAAAAoiIw/dV6Pj93rdORNZy6PqeZ3lPM9atLEQNTQGM/oG8Yr+ndC41olZqWt5zuOcrr41AAAAAAAAAAAAAAB8lu7T51u7dctT9f6qlfRFwzkd7fj/L0gNQaA1T0fqzea3vXYqe9np5Hk8vpo4Bxu6GHHugAAAAAAAAAAAAAA2y12W/mH/QXX9v0Z+38mD0+cA5CxYiQAACfPf3PqsffvfT66kekfgPIpH/P8nLAAAAAAAAAAAAAABtFqM2TzBfoPrG3nzfWCnqK/P3JuZ58BIAACXnM7v1Ozf2ffwK19InAeUyb+d5eYAAAAAAAAAAAAAAD4LTWnzgd46VbL6vv3Fs73Gedy61X4ySGkzqAE20+n6/Nn3rpu1edfPg9PH5+5jebBi5ENAfUgAAAAAAAAAAAANC1VWFjru5wI3XYt1W9Xw/m59eOaNXvzcGs1J0CdUdL6c2DLru6RJ2r7O2Sf1v4+fHiWiXglrDU1kAAAAAAAAAAAAABSCIS7F9PAX2zd8k+ga/ZL7Hsjf8Aa9s59U+RkI0P4Eivi+MWl+jnxy9A2GDO2fXt19L2fMtYjM9yTT8iml/FuOagAAAAAAAAAAAAAAGwWTswmdc2qGO2fU9APF9OxRdF+/Z76npz58a1S7vyfKOv9OTy/d+3jg+nMSRIjXfmZ9uJ6nfStOcAAAAAAAAAAAAAAAAUuR59mXAz2jZKu8zMfy/4FZ+fHW/zsO5VqfeS/mM79uNI+7OTcL5fiz4cW1aS/wAzDXkNZAAAAAAAAAAAAAAAAfJQMrDeu+GrrP3YebP9Hpcfm9UfAdZ7ny1H3kt5i+/bRSvs9Ug/geDNXyX4EiPlYboG4AAAAAAAAAAAAAAAAAfFVHWWntMP9p9kDdwz5ueV/M5+CBraMLnUvsSf+B5pw6d47p46XAid2QAAAAAAAAAAAAAAAAAGhwS3JRZwDbND7OaVWXNOzPoAAAAAAAAAAAAAAAAAAAGhsnCOIaHKOcbx9AAAAAAAAAAAAAAAAAAAAAAAAAAAAAAAAAAAAAAAAAAAAAAAAAAAAAAAAAAAAAAAAAAAAHVzOEO14XrTxrXJFGPoJmVUUJh5M2fMj0MGV8mcWmPngpQw0WyZwK4/oAAAAAAAAAAAAAAAGHWcmJy2XPPXy1vE2hmaNtaK8Wksr1qIkr+iyuPxAZPR7ZKefu4jQtqeOvJ6/ZTTzVdEdqgAAIfJqayAAAAAAAAAAHmstlmlNe3rMbZmtomxdox1zblRbKwwYmbZpITWElbZkK4roxa28KgVwi5M8x5x/cR60seL6AAAAAAAAAAAAAAB5zpzXvsmvFPKvkzZwMdKaUo22SVGOn3akB5y50ox+RO2bL3Wt0oi20qhMR1r+zunn8SmTP7gsWDlgAAAAAAAAAAAAAAhFM+Xu+acCMdtr5wMdKZmvKIXLzzYrJxk9FlcPh+yZ82laY+rZKelkSpTC9a+V2KQUifYzXDuAAAAAAAAAAAAAAA0LLkP1pQzFXw4aLgEG1pOK7Sb3oicmR6IHJkBM1jEUqWOmZLxW9BqAAAAAAAAAAAAAAAWjmIoWiSNZv1EgAWiRWxU6QAAAAAAAAAAAAAAAAAABjTvW5lZgneuXTHbtipE7xb9EKLRLGs3TTjevXJHjttTGwmoCkUVUnuQAAAAAAAAAAAAAAAY0r1ltSbIWWfI5Wryk/URJ2LcBEZrRkYpbENmpl3xXxr2jcJCRPZosTMZv8dwAAAAAAAAAAAAAABjTvW81ZgPeswKWgnes6qzeyJxHXrJ2JjbaMpuO2P/ACRl6xWxGXr3R2hOOs41L1zgY7gAAAAAAAAAAAAAACy8xDqUm4SNicfNq3CifgoOYk3Wa7TYGYrKFNSo061FpLOhJrVmRUSAAAAAAAAAAAAAAAAAAAAAABEWYv7CvUgAAAAAAAAAAAAAAAAAAAAAAAAAAAAAAAAAAAAAAAAAAAAAAAAAAAAAAAAAAAAAAAAAAAAAAAAAAAAAAAAAAAAAAAAAAAAAAAAAAAAAAAAAAAAAAAAAAAAAAAAAAAAAAAAAAAAAAAAAAAAAAAAAAAAAAAAAAAAAAAAAAAAAAAAAAAAAAAAAAAAAAAAAAAAAAAAAAAAAAAAAAAAAAAAAAAAAAAAAAAAAAAACg/d5bV/V8Ehde+vy622Jiwf3/l3V+V7qu8mcAAAAAAAAAAAAAAAAAAADGV0zTO/8+bvMGTbl1mbFW/g9dH+3zdzhyUB7/J22LJVXkz2j+v4Lm/L93V5sM/tA2vtcWQAAAAAAAAAAAAAAAAC1n0/F0mfH2mO1t/o+SQmv/VsJ975l8/h/S+TrctBoin/Ri49oqny5q68Pq//EADcQAAAGAgIAAwUFBwUBAAAAAAIDBAUGBwABCBESE1AQFDU2QBUXMTI3FiEiJjM0gBggIyQlcP/aAAgBAQABBQL/ABCMOLK17wYPOlW88sWeXvPCp1nnHgwtQUb6SMYQa805RklsCHwwT1fMjXbXTGXO2bGMzPFsOIpRKGvGe85e3CjNpQuXmdnp8KOAaH0U44BIFapMkSzu7nJ5GD8Q7zQs0PPHmxYLeGhCYGD3C/RQbQ7tkhQJ1ATg+hmDCWBStTJU9j2Uuna7W80LNCzQs8WeLNizYs3vBbyEzl3gjqzvTdJWtOeBQX6EoF7yovGwBu7nreQCOFS6Xu3HyPmlyqCSmF794K8wpteT8NaX0nZh4CjI9Gn+WqmTj2hCC2YQgg7zveVNPxQt/wBC91U633r0BWeFORYMpFCIVre81vOPvl7m3eGALNA2MbIzFd7zxbxYgQOJaBAgaknecj/B7hveD8Ig0rKxSyGNyjZxHoDiLzDuREg2skut5oWUIzOyuY953nfs7zvO87zkS0PB5G95veUlINslgpheS4fX7wW/Mcp+6beJz3gzfLLrqNFxKHd53ned53ned53jk3I3hvc0B7Q5b3iZeNsWDOCMwG+w/XC/AoX/AGTzRHKu8RBCavzv2d53nfs7zv2WroILJ7xR/GQwKBKYgT+T64f5Sv7k3Wyz9bzaj3bE54FKfvO87zvO87zvO8/HLCXBcZ53h4/CRHixEwsj8n12/wAN/wDE6zhv20TTvO9ZSUoDIYJ3ned537O87zvJjJU0SjOzDR73vAJhrzRFaK2XroH17tryVvIdiE3zHvO8gU4XwJ+jknZJY2d53nfs7zvHFyQNKK1bNMnrh4s7ymmIT9YiXXvDtr8Pr3dJ70ktOMmTiBhGEYasZ6emTTaFWrYCe0PTuwLWTkbKEYa+sQmwk/smssDC2N45JvB2pHLZHLlHed+yg4yFgiTCmGAj0AYfFpUDbc4XbARRZ+TqVSNRF3dqtev5hTkzi6puhU1dTIFHv2Uh3ed4rSkOCVUmEgV53neVlBTZ7I9FBVqSC/AD0FxQlrCHRpQvzdPoG7QF3rCylFeuTLZUFfy1stjKEsAwjB3nea3/ABSDf8xd53kXi7xMXiMRpsgjG0NwUZPoW9d47NQFhbw1NsiQWDTz9CxC0WcFYQnAibt/+d37A7/e/b/mDIJWsjnx0ZjLHBGxoadk4HXWvQ967xxaiFpRhbi2blNMwiY7dOPVghOSle7pe87zv97xQ88VSeM0LEmAJPvSwLYzEowhD4fRzCAGaXR5MoENveEue8rS8+0itZ9pE7zStUPAI3pTiOOEgMKTAK9L2AO8ElKFm0BWe4FYFIVrNFhDnX/wpYsSoEs85e+7q/8AVLb/AJtOckpbN5ZZFnxqsWmsrci9pJu9Z3lzWmOp2Kmr9Mth+MF4CxcyDwrEp3vCb2PbhtpZ2bmAc7O2vQeXc0UNMbpiqFNqSFHxhqBMnh1EQSByXkTUq+ymvjnTjtXRnLh8d2yW8THpSthnMUWhwThx89H/ANA340gPKKbwHlGYNQUXuYHFmxCHfNq6VxpqMRrUi8n6/l+oGZYvDtCQXBrc5HOdaTFPzJezj+Yqg37I4y7dlLLNmScMzhGIDO5Wkv5CtbKIhc9k9frxclbgGEkYjV/Lk44ofDM001BzKOOKf+NRpptVoCVihc/ULbbaz0TZbtBZnrfevruYzUaRMeHEjT7bbComCzp0IBot25ifA+GHxLmT84cOPkfmP8i8WItHZXMT6aqzROwhA78vfz8L/h/M74/xm/SqCfOzmWWa2g15b0R/Q+uvasBWZDkayVV5I98sbTEjQeaqdOYnwPhh8S5ksC4SyoL2dKnR8kn8yVU1w4+elH9uP4zy3YFqiP09c7hUp1sWu7Wy6cZ/0qZ1yprc3jl7InJgqOJLZrYAddB+vlNeQyZhM4qVOYfFqqgENFKINE5mXF4BD4WN1aGx8QncYqkOXONdw14Y4xW8IhqwWtCD9xlUeYuZ2xzbl/F2plqxFUNcoGZhgEQjLez1JXDCe88Z6meFUOr6IwRL6BM5qxwNp1ydqne4pZkLmm/9szmzHA2pmdkj61+kcqf0yryuoQug141mlrccGkOpVE3KVxtnMQObe6krXBC3Epp1D1hvKfet1pWAtBrxO+M6w21bReGKxUL01OInN+ZWULXI2J6xUuRotOMsjTQNE4IXIn0DlT+mdY/IHIzwfdTX0jPivHSparjVgskKL+7C9LpUlvtxJaIppy1yhK0RV6q0V7xFK4qZngsetOro8xWfDanilZDruJlXjM7agiOlnLkk5jV1XEqBhEhjFW+/1ndPoHKn9Mq6mkTSQW/LLQzkMng57fQ9JwKrphFY9UdTsUmmMVruanXDB4tV5XIFUqW0mZS5rJXFS2SisWN32eW33AcoSOrXxpdkLC+cpntvc2/kSlGhpuuH9kMgjEtJmXJr0CdQZnsBm1xXrXWQ+poPBxjAEYZDxugr04wakorBXScUjGJy7R/jhBmZxm8DZZ6yszIjZGWO0/GopJJ7W8ZsRDXVWNdcZNKJhczcojQEKirpyu/Tth48Q2QxaA1hFq6Ten3LXi+yo1F2o5jj3+Yj5J4/Gik1u1wrMIPJUk4YYWSWyWXG5G5IH1oc1npMwlkndLFZjbDZpDOo2oV2A9pLOC1LbUex1H+xir7Dbnp2n1OVJEwHQSso5r7wI6jfphNG1U/wuyniVSmST2LH2C1yggEpktooU20SP0OQw+LSnbHXcSjq99gsRkxhNO1wnN21tu2/dQ13owbO2CamdqbWFubI2zM7g2RtlZVymOMq56kEFicoNYIFFowrRxtmb3jP/8QASREAAQMCAwQECwQGBwkAAAAAAQIDEQAEEiExBRNBURAiUGEGFCMyUnGBkaGx8CBCYnIVJDNUwdElQ4CCkpPhNEBEU2Nwc6Lx/9oACAEDAQE/Af7IgBOmdbl3g2o+oTW5dGrax60kUQU65dABOg7K/rMIqw2Be7QUMDRbbMeVWClEZaGDPyPpVZeA1s3BvXlO5aMnq/z+NW/g/sq3Hk7VlXeUJxe2hYWI/wCFt/8AAKVYWX7rb/4B30/sTZdxk7aW4PNLYw1e+BFg7JtHHG1Z5SN0OXsHIRW0vBjaezp6pfa/5lviXH5uXx0zNYN3zKu/+NCTr2Owy7cuBphCnXCYwoEmth+CTDaU3O0OtcCClr7gjmDmT/pABzptDaGsIaSkJ0CRApOnIUNcjFYh31iHfRUg8Ce7hSjIiAkfh19tKhfUIQUnVPA+sVtvwUtrzE9aeRe1ITk2qPw8zpz74EVd2rlmvdvILatIUInPUTqD9cqEnXsVm3dfdShAKlLMJCcz7Pr11sDYVvs1kPLAN2oStWXUnMBBge3nQV1SpQTl7/ZQlWYJAGk6ViByCjSiGxPnVjrEKlWo0rElXHOsSPQV7BWIDIA58621sW12ohRgB8JO7XlrFXllcWlwtp0FCkE5H7wzz7/rj2IM8h6q8Fdi7pHjb48qc2woZpHtzzrKM8o17621tFWz7B1xvCV5YCc0yTlP17qt/DS+SV+NIZU3I/Zgz/dB/nWz/CHZu0QEghtyB1TAPuovNNZuOJSjgVGBStobO/fbf/MFJ2hs399t/wDMFC5bnC2+26D6Cpq/2vZ7PTiW4nFymT7tTV54bvqdUi1bSlPBSx/LL414N7Xe2ky4q5wYkn7szn3GuE8eHdXhLskXzPjLaRv0AnLU0sFBIVlhMGcuwjATPOti2Hjt2wiOrMucssxP1nTKd0kdwj3CKxYq8Ly54qkI/ZGcfvy+NJ83rU2tY67Z3ShoQYNLv717qO3TqhpG8JEerSipfOgpznTd5eM/s31o9SlD4DKnrhy4zfdU4fXNK0FeBmPFc/3P4zWKlZiOcj314RbNFrfEgeSdlWmU6n4mfXUmTy4dgxI1rwStA3bruCOs7GE/lNBUjOgrlXhVdtotTayC4vh95MGfjWqc8o51hPpUZ4YfbUHn8fXUH0vrOoWfOUn2VEaRXL5fXrrwSu0NLfQshJVgw4uP1l6/YaKjQVlXhNab+xK4lxnPLXM1w9XYKU4lRzIrY6dzYW6OQNYqWoNpUrkCfcK2tervL9xw8CR7sq87Ek/bynFVrcLYeSrgFD51Z3O/tkOc0j5VMJq7G9t3Uekg/AU6ndqUPxK+fYLeTrX5xPvq2gNNDkkfEUVZ1eLO6XHoK+VOHrrMfeVPvrhI+2eqiamEAxxHzrYqp2Vbq4kH50FzjBpShCvyK+Rq9/2l9J4Ky9/YLXWWg/iT86aXLKVD0U/KsVP5oX+VXypcoedSfSV8zQGEK+3qiKzMJ7xWyRurG2QdQD8c6xZmlqAbUr8J+VXkKuVq/Ef49gpOEp5znWzHN5YoUTnH/wBonOlKyg8a2zb7m8MDI8RpXE/bGuWlWDO+fAicxTYCEoSNAn+FYtPbV06E2yiTHVNOKlSj+I/Ppj/ftOvWwLgKbUyT5kR7axgZak8fu1iWM1CR8K2haovEGB1+dP267VZQtJPfUpPdWXr6YJ4xURxmmmXXlBplOv3q2Vs1FkkFzrOH251i9dYvXW138DJRPCpxE9gnQAVs5/cPpOKA5r7KS4MGRExlyraD+0GTiSqUToCYirDaqLgYVQhemfOnWWbjJxGfpEfxp7Yrbk4CAeVP26bRRQesrlr0sW5uiBjCPWYpjYYSAVqCvbNW9o3b5NgA8zWIf3udYvXRXGs1te53jsJVI7jRyOXYQ1rZl6lwhteLlT7YdlHWiKeCrZ3q9U4tfbVrtNBbCHTKvS+vr1UraLSElYI0q7dDzpdHHpaWptaPXVu4VIR6qxVIqYVi62CtpXobThTixHjy7qUrF2I24WjvEqVI4TVptAOpGNcHTM1f2ofT1RB50bR9qQEqV3gUpp/AQQqOdFOFOHpScSkeurZXUTHLWpjjUzpNXV6llJAXM6CdKefU4oypSp49jIXhq22hvIC9MqKknzTV4Am3XHKlff8Arn0jqxFWilFgVjSPPNP34bkINOu7w+0mj1f9Ox5jzcqavFtjnS7reMqBImj97pHCm70NNADWnrxbnH6+uFYlE9aiIOVHMf8Aesa1grdd9FIHf0Qag8+iKiOjB9lSIz7CbTJFLITWJXfWNXGmyZ9lFR5UlINKTFJOcUvQfXKhqPWKmjqfsLqKIjsBFLmaCJotkU2BJnl/Kl4abz0pRTQ84RXCsI5dCBiUe6nQNRoBB9dNAEydIpY62XdSzQUnvpY5dgN0v+dJUQamQKRqr205TOtL1NJ1FLMJFBR6GfOVTmivXTNK/l86Vx6OHs7AScJB5ViC6wVEJpGqvbS6RS0UBmKX5o6B+z9lIVGtK60GkpildG7zxUewRlpWJXM1iVzqTzqT0Y1ekak1JPRJ0noxK5msSudSak8zWNWmIxUnsLEOf29OylaHoORn7StDQ6M57HV5p+uNCjXCk8645VxqBSvNNTp0RmKitaOVHSorQxw7BVoaFE1wpIy41FZUctKPmmojSgZo6j29Ao0dKFTn2FAqOiKAiiJqPtRUUdKjSgI7QND+2Lc3tpZpCrq4aYB83eLCSr8oOavYDSNv7GcMDaFuPzktj3uBI+NJUlaUqQoKSoBSVJMgg5ggjIg9BIAJJgASSdABqTVttizvHQ1beMOglSQ8LZ7xclE4vLlIbyg8c+E03csPOPNNOpW4wQl5APWbJmArlMGOyr+/vX9sPbOT440wyylaU2KrZu4uCrAce9uVohsSUw11pGfcwra9vd24ZZ2m7aLXhuW9ou2TqkIMDesuNPF3qecpKsUjIZ1tOycc2szeWd1Ym8aYCPEr4ynASryqAmVpJkicPDXgbhG3Nw4t/wDQOFKSS2tp5SCkCSCtagBl+GnNu3J8HhtJlhLLylhjQqaaGPd75I1KPRBkBWRxAZ/o5zxfxn9O3+93e83++Z8W82Z3O73W77tY+9TFy/tbweefuFuNOoRc+UYVug/uULAV+Rei06Eg6DKvB+xB2TbOC6vE763WnAh8pbbxLJKmkx1FCMjwk862LZ/0vtn9Zu/1e5Y/rj5aUrPl8vKcuGVWjd1tDaW2Wl7RvWbe2uUoQ0w4lOSsZgLUhakJEaNlPechTS7vZu2bbZ6rt68tb1hxaPGSlbzK2sRPlQlJUkgRCpPuzfvr692re2X6+2zaFIQzs9dqy85/1HHLhxC8J1SGuBExqbJW1mb5lsNX7lg4FB79IOWa3WDnhW24w4pxaZyUFzHA0jx6825ta1TtC4trZlNucDQSVDeNJMNKcC0tSZKlBJUZyim0bttCManMCQnGsgrXAjEogAFR4mBJ7Eutn2V9h8at23SjzFkEOI/K4khafYqrbZVjaOB5lpW9AKQtbzzqgk6gFxaoHdV1szZ96cVzaMuqiMZRDkf+RML+NJ8HtkJIPimONEuuvOo/wOOKRz4VuWt1uN2jc4cG6wjd4IjDhiIjhFfoHZP7oMMzut49uJ57jebr/wBIosM7k2+7SlgoLW7T1E7sjCUjDECMso7qt7dq1ZQwwjA02IQgEnCJnVRJ1POmbS3YdffabwO3Kgp9UqONSdDBJAifugUzaW9u6+8y3gculhb6pUd4oTBgkgecfNA+VLtLdy5Zu1tzcMJUlpyVdRK5ChAOEyCdQfhV1s2xvVBdxboW4nJLolDoGeQdQUrAz9KrXZlnZrLrDRS4U4S4t111eGZjE4tZjIGO6m7O3auH7ptvC/chIeclUuYBCJBOEQBGQHR//8QATBEAAQIDBAUJBAUJBAsAAAAAAQIDAAQRBRIhMQYTIkFREBQyUGFxgZGhQlKx8BUgIySyFjNUYnKSk8HxMICC0TRAQ0RTY3B0otLh/9oACAECAQE/Af7oVDyAVyjVue4ryjVOe4ryMHZzw5KHqopXW6CPHOLPsC0LRuhttbbZ/wBq5VLZHEGmOGVBQ8YktBpduhnnlO9jJ2f8/wDy7YYsGypf83KsmgpeKE3/ABOcCSkv0WX/AHBBkpL9Fl/3BD1kWZMYOSMsO0tpveETuhMg7Uyq3mVEGgrsV3YGuA4Aj4RaOjVqWdVRbLzQ9tgFdP2hn5VpvMXVJ4V7chFd0ZdS+Bhhlcw4ltlKnXFGgSjE/NMTw30EWHoi0gJmbQot7ApbzbHYQcyPLAUAOaEJQLqUhKU4UA2YGWGAgUrgr1jZ4GNngYNCccYVepuhSEubJPen2T4RbeikrPXnZMaiY6SqYMqI4gbzxzyrUCkTso7Juat5tTa0mhBB8xX2Tu+RBGHUrEu9MPJabBWtZoEpxJ+fTM4RYGjzFmNpccCVTak1cXuRXEJbNAae8Tio57gFE4Ju9HeO2LpF7aFIvlOAAVBJArcT5ReEXhAvHMeMGiczWKnhifKLqxvBHBMW1YctarSsLr6UnVroK17eIwGG+JuSmJKZcaeBQpJyPoR2Hd/mCB1GMY0RsPUt/SD6ftlirSVDoJ48doUPp3mlMM/WLdtBUhZkxMIwdFwJr0alVBwwxxxyiU02n0k88Zl1ow/N1C6dla1PeR3xZ2kNnWnsoVqXKdBZCVf/AHHeKjthTzbOLzoCDkSrCFT9nfpkv/EEJn7O/TJf+IIEw2vZbfbcHFCqxPWtJWSL77qFk12a1PgM/KJvTiZU6tMm02lvcXh/6mnrGjFsTFpMuqf1d9Bps1pj2VPGme6OBHz3RpVYonpfnLKfvCAogJzPEHvpnuhSSgkKBFCRjhl1FQZ74sCzzaM+w1dqitXeFBiAe/Ig5isNoSygJwwAHkIoCY011nMkAV1ZO3ww6NfH1hRxwhpakm+2pxpQyIwx4iF2hPvbLsy8ocCtRT+7WnpBK/egFfvQzNzjH5uYdQM9lZSD30z8Yfm3Zg1eLrp4k3j/AE9K98e1T2Y0FCr857t1r4r5FJvCnHDzjSmzBIWgqg+xfqpBpgDmrdvUa99YPHh0v5dQ5KHCNCZHVMuThTi9gg03IJB9a+Bg4wqgpQ1jTScbEnzOqda57PtJu41Iz/qI319YN4mtad0eJ8YoOJig7YpXMmNpPRI8YyN2NB5xplczLrIStYTdrvpuB7K1oeOGSqJyru48ml0hzqzlPU25cVB30Jx9IPub9/h1C2L6k14xYLOosmUQfZB9TXkX9mlSuCSfIRbk8uftF1ZNdop8EilPifGBkpJ+v7QJiXmFy003MN++n4j4jA9hiRf5xJMuZ6xIimIiea18s+3xQfQGH29W4vsWoeRPUMvg62DvWkeZiTF2VaR+omnkKwc4n1EMuU9xX4TDy6OLNMb6q+cKp5/XA1iyOEIVmnOhEaNG9Y8iTwWDXsOFYOFOytf5Q5g2s7yhWH+EiLTF2dmUDILJ8z1CwKvJVwWj8QiVVWXYUNzafwjkmW6tOfsK/CYmkFuYfbPvq/EYUBRJ7/rg3STxhFAcM1KHqYsFrVWVLIO5NfPGFZK8IPQcJ9lCvwxaZHP3zxWr4nqFCrq0frEehiw3tdZ0uquacfCDgYNFimdQRSNKJAytoOm6UpXinCgy3QkXkns/z5Kj6nbBxUK4DjFjyJnbQbbSL6bwOGIwxMMNpaZS2PZSkekez2xOLDUrMKrTYOPgYmlayYWrcVqx8Ty1/wBeJV8LvZGhc2HpVTBOLHregkZGFbI2QB274tqyW7Ullhf52myRmItCzZqz1Ft1opFc6EJOOEbSc/SO3Y8eXJNMfCMCilR4xLS784tLTDKlqJpgmtO/sjR6wW7ObDi6c5VQrp0U8AjfWnS7eXSqc5rZjoB2nRRA+MXiqvYSfPqG9hln6RozaRkp9CSbrbhAWTgOyEUWb5xSUinlFuzNtWdNLmWypyUrVKACQkUAFQKVFcc640jR/SNu1Eap8auYGYThe4FO/D2uHiKzEjKzYLb6A5f3qFSn9mJvQiUXUyzqx+2cItiyTZiy0txtSx7IOPZh3fPDks2RNoTCWdY22VHALNCYl9B2ElKplZVXEas1rElZcnIf6M0AcisgXjF0J2vQZ8itnPDAmNLbT18wlhCrzbNRUHA1zHhHRvDcd/USVUp2HCNFbZM4wmTcVV9vCp9r+g+coflm32nJd7avJPwidZfsC0iWryEoXVKj7QJr4xZWlUjMtp15Q27Sir9Ej/Dj5/IiYtqzm0q+8smoJFFjdFsz3P5x+Zreqdkjsw5ZR5TEw24Omlace8xKOl9lt0ZJQn1ArykADuyPHvjSO1k2ZJVvfeFghA38DXfkcIfdW+sqO8k+Zg5U6jkp1+QeDzCyFJIpQ7t8WNbLNpsNKCgHwNtJ6RMaQ2Ci2W76SUOs9DguvvcabomLDtOVUUmVeUE+0hBNYVZ1ouhBMs+kIrUlJGHbC2yhRb6NM+VraeZRvCxe8xFmmkmzTohAr5RnlyWnaTNmyqluLTeANEE7Ve6LTtR6031vPqJFfsxuAi92ekZ9R5mJKcm7PeDrKjga4E+Pn840ixtJ5W0KJdUlhygG3sgn9WLgXtXr6d1TUQ4hAaeSUoN5CshwSYn6icdr0StWXeeVmuubVxWPjFmhXMmk7OKExiN93si1bflrOBF9K10Oyk1NaYRaVqzForUp0mhJzJyrh8+HCKopSlepcSOBgFdM4C1JIUg3SN+8d0WZpVNyYCHlKebHEkqhOmVmuyjtUOJduEC8BmRSH3det10e8SAc8TytuatabwJCVDLviU0rkGZVIXrL6UjAUi0tMJh9JblQUIPtGoc+MOuOvKK3HFLJ941MK4RgkZf9axFBFBBgRTlAgjkoPq06iGYhWEVPIIMUikCD/YHqFPSELihi6YGcGBjFeQYxQcggwBXCCKclRChXLqBOYhcVgZQMzBhEHOBBNIvHkHz6wYR0vCFZ8m+BkeoBnyjKBmYMDlPKOQZwrPlV1DWKmKnkqeSsVPLXkrFTyVMVPUQFcBGrVwihGY+sMTTqpvpQScYSb2yd/wAYOEY/Ub6UHkAqknH6uPDqJvpecGE9Id8HpeMKJBoN0HFNTnXzgdEkZxeVCOnF3MnIQTXGEqNwwVEwTdAA4VJgG9UHhn2wjpReMHaTe35dQt9KCDCBTaVugHar2wskHdBUcoFRlCTeNFcM+EI6Y74v1JBy+EKFDCegoci8kkcBDeBJ7K+kI6cHMwcEd56hBoaxfVx9BBJOZ5Lx/rBUTANIvE8PIQDTkqTAJGRgmsBRHdBUT3QjpCLxBPz8YJJz6wSbprGf98WRsy0LSWpEhJvzSk0v6pBUlFcr6uiiv6xEO6I6SMpvKsmZI/5WreV+604tXpC0LbWptxKm3EKKFoWClSVJNFJUk4ggihBxHIlKlqShIKlKISlIxJUo0AA3knARPaNWlZ0uqYnTJsFKULVLKnWDOBLlAn7slRXjUYDEY1pQw/IzcszLTD7DjTM2krlnFUuvJTSpRjjS8K9/VVkWTZcro4xbTibOfm5l5SFO2oibfk5UJU4gN6iTbdq4bgVeeAG1gcgqcTo7O2fOKmZixGLQbbvyT1jS9pS6XHEhR1Ewy9LpYo5glKwUkE1OANbCtJprR+Zs+0JC1k2c/NKX9J2UKL1gDZLLilUQQLqcCoiiqFOFYkndFzNMsyn5Wh1xxKEvNvsJcStRABCGgSaE1P8AOGNFJJOl6rHmZpczLJZM5QqCH3yUawS61D28by1JulTYvC4VYfTTXPOYfkpZWo1+o5pzV7n1L92nOdZrdfTC9dpX2YmZGUsDTKUlZNth9h92S+xmkc4MoZh5FUpJODrdAppZJUlKxW9mdLrWKbfnGTIWYvm00ysOuSYU89cZRRuYcvfatm9RSTQG6nhGk1pH8ntHfuVnffZKY/3VP3X8yPue193zrhXGkWg9IWPYujcw1YtlzM3OSRW4/NMKXihLVVKbQttDq1FXTdvkU2RiTEy1IW1o1OWyiz5azbQs2aZad5klTctMtPFtI+xKlBChrK1G9O8KomUsqyrMsCzbSu2S7NT4K3Zq12p2almj/wAFpmUadQFoNUkvXTeSql7JFqI0emrLmHi/ZDNrNEKlvodm0GZeaTheaeZmWEtIXdqUKQRU59rhsqzNFrAn12NJzs7MrmgHHryUEtvObUwlooXMUTdShC13RSprlD7muede1bbOtcUvVNApabvEm42klRShNaJFTQYV6ks+2bTsq9zCcdYSvFbYotlZyqtlwKbUaYVKaxPaQ2taLBlZqYSqXUoKU03LSzCVKSahStS0gkg76xIW7a9mJuSNoTDDYJOpC7zNTmdS5ebx3m7jDmmWka0lP0hq65qZl5Vlz+I0ylY7wY5zMc451r3uc6zW841itdrK1v6yt+9X2q1j8r9IbtPpA3rtzXaiW5xd/wC41Our2369sCcmRNJndctU2l5L4fcOsXrkqvhaiu9eN4V2qjsicm5ifmXZubc1sw8Qpxy6lN4hITW6gJSMAMgImbSnJyXlJWYe1jEihTcqi42nVJVdvCqUhSq3R0yqJm0pycYlJaYe1jEg2WpVFxtOqQbtU1SkKV0U9MqPrDVpTjMlMWc29dk5taHJhm42dYpspKDfKStNChPRUBh2mLPty1bLQpuSnXWmlElTBuusEnMll5K26nebtTvift61LTaSxNzCVsJXrA02xLsIvgEBd1lpG1QkV4Ew9aU5MScrIOvX5STKzLNXEDVlwkr2gkLVeJJ2lHs5P//EAFsQAAEDAgQCBAcICwwHCAMAAAIBAwQFEQASEyEGMRQiMkEQFSNRYXGBBzNCUFKR0fAkJWJyc3V2kqG0tRYgNEBDU2N0gqKysxcwRICDk6M1RVRkcISxwZTDxP/aAAgBAQAGPwL/AHQrmQinp718yedceSYNU+W6uiP97yi/mY3dab+8bJxfzjMU/uY3muf2UYH9CguNprvt6OX/AOtMdV9s/Q40o/3mzt/cx5SOqp8tgtVPaPUc+YCwuUkW3NPhJ98K9Yfb8UqRKiInNVWyJ61XHkfJM/zxjci9LLa93mcc6vmbPGnUp6SKqo5gpsNOn1dxFWyEbIbRGiLbWklFjDyUsGFBpkGiMbZJFQVapUVHvuwybECM55rPVAL7rmTZT8YcUVx0XFVVbYmrTGh3vlAKQMCyIvZUlM05Z8Xdekvr3nIlyZLi+dScfeMiJflEV1+Eq4u2bra/KaeeaJPvSbcFU9lsfa3ifiCLvm61UkTwv+CqxVBm1urZWuqnZsvWwIVaNTK/GzDmLItKqAh8IkeZR+HIc8wLDhjyzOpZbsw+kHSawaIjdMq+SHMI8t1GDLBw4k1Rv2Ycp0k/lGkxfeSz50T7IH1ilkeT0jY07gLCEBIQr3p+lPQqd6d3xMpmtk+dVXkginMiJdkRN17sP1SsyGIUGG0Ul1ZToNRYrTSZlflOEWTMKb73BrkKGe+HqZwgb1JpN9NysECt1eop8PoQOJmpMUuSOuCtScFTyhAIW3DMt1J01cdcMiN15wrZnXnTUnX3jt13XSJ0+ZEX7/I4ImC2XKQoSbKijsqLuipmH5Jb7LvhmDVyk8Q8Poohked1a1TW+zmhTHjzT2W+0sKe4rts6x5iWahqxXeHZzMuNKuqON3Rt0gVRcjyW1RHI0xg8zTqOAMhhxFbebuipjvEhXK4BbE2fySTu9FuqQ9YdviQiJbCKKqqvcic74kVmqSGocGEy7KV2SWm1EitjmclvqS2ElbRedlabVB7SldY8dXonC8R5Cp9PK7Tk5xsupVKo32tRVscGEe0BMrzwrPskT979fo/e9Op6lJp8k2/HFGU8rNRaGwazOZcjFVYaskaVmFHhFIkxVY0nY0LiLh+QMpiS1cLXAnEbLK9BlNn1o8uK6htG24gnHfAmnEQSK4uAuxefn5lRU7iEuqqLui7c/iPo/8AIsZXJHmNxbK0wvnTbWdTvRGx/lFwfBtLeXxTSHhKtOgvVqNXbVDCFfkUSkqouPIiZXajkC6LAdAsUmgyScGE8M2bUlYM2XvF8GP5RGXg6zTjkp+G2jgqhiDhkKodlFVoNarFKkIh5W5xhWoJkvZ10fFmoZU/oZ4Fv8K2XBHWoQnTcyoFcp5HJpRJvbpJqAP01xUHrBOAI910Wpkk9sIxqt667oyJZny+9YG7i+wcJoUHiF5F5E3w7WzbX1OJT8ip91e2PK8PcSB6+G66qfnDAJMC08XR3i7LMlFjPqqc/IyBad27+rtg4nD1OOeTRIEqWRJHpkElHNadPITbBzsr0ZkJMzKYn0TIqHhHOJuIJst5U60OigFOhhdb26U8L9QdNOWq25EBe0LLa4pbNH6X4rqtNfdBJkl+Y41NgSGwlB0p/M6SPNTIxtNkS5Fafy2bW3gGHOeVOG68+0zURK+SnTytHiVgfkB73EqVtij6MoyAYR50NPeJZIh+YJK9g/vZCdQl5ayCqe+/ETjpcmxUvXbuT0ryTzrtio1YVDxvItEponuJ1qo3baMhuhExBTNJfyqijGiKqbphVIzdNSI3HXSzOvOOERuvOntneedMnXTXtOEprcl8FSUsucOGJOjfmmepQNbL6xRtCt3Wv4DadAHW3RIHG3BQwcAksQGBXExJNlErp57rgWKRSKZTGRSwtwIMeKKbW/km0Xlt6tvTjtF+cv19mOZfPhWZ8KHNaJLE1MjMyW1TzKLwGns78MwKZCi0+DHHKxDhMBGjtD5m2m0QE712S68yVdvBwcV/K+N6kCf1daU6Tm3m1gjX9OX0eBRJEISRUIVTYkJLEipve47Klt+S3wVJqD5O1XhwwpMp4yUnpMLT1KPUSJVUic6OKMPPfDnQZCoiIqYHP76Ck28nmdbXKfzruP3JIvf8QxY3cTus4n9HGRD/AEvKyKp33VMUjhts10KJT/GkoEVMpVGrq4zHVd82pFgRnh6y9mffdUS3gOvRcrdJo8CZT6o+4l0kO1QI7jFOjW/2oFjxpz7pFlYj6YZXFmATX1+nH1+nH1+nwfX6cfX6cfX6fBQK6yiO0OlDMhz2wQtaHMqb0RIs9zuKIeh0EjHKsd51snEVh03mPBToxGqROJY79DkDdMiyRByoUt481ve3o8mOKiu6z0SxbWdD4MlsJI/hA8i986aJetV+IX/6GOy0noJ9w3C/uttJji6o51IXa/NjM3zdVml5KQAohKu14JEnwUVw+rZfA44qKSNgbmUe0eQVLKn3RchTvXliiUhEHpKRRm1N1EX7Iqs/7Knur321nFabT+TabBtLIAh4fr9P7z6/T4J1KntA9BqMV+FKZNLibEhtW3PbZbp6bKllTFSpElVKRSahNprplbM4UOQbIPll5LKZBqVbu1reCFVGyynSp8GqISc/tbMZmn2bF122CbVEXcSJO/FLlh2XXLX5eTmR1cH5yFrbCfx9cVI+9H2h/wCXEZNP0uLiY+S3J+fUJBKvecidJfL+854KY0ezb1YorLn4J6rQ2XPZpOEip349W3zcv0Jy/wBVxsg2t45ZLltmcolIM/05lX03Xv8AA+Hy2Hg/PbIf/vHCctxVJxymcNPkS81J2PFQlv5/KLhPZ/H1xUx/8yK/nw2RT/DiU2t0JqZNZIV7iZmPtEP9lR/R4Blb3huNTkROd4TwSkQe7myiYYkNrduQwy+Cot7g82LoLfv5/wCp/RjjOa2oE29xDLbbIVuJJAbj0td/wsBz238DxfIZcL5m1XHCTBJlIKXww1lXZUUGYar7eouE9X8fXEtP51iK+nraN1k/m8lji2mrf7G4iqhpfvbqD/jdtfVp1EOXLLbwWVLovNO5U3untRcU6M67nqXDdqBUEVVzqkQAWmyl86TKaUZ26dXWR1q+do0T/UVjiCUu1PiGUdq6ZpM53yMCI0i2zOyZZttgneq+jBOPnqyHTcekO/z0l8yekvd3vz7jrnoz+jwM05v3ypSI1MbtzRypyGoALv8AJKSi+zFHhDyadaT+xBikl7J6dO9tt1tywnxBCk/BUzhuL5klImnf/wBw02Hoz+nEGugFo3EVKbbMkGw+M6KWi6hL2daRBkRSAbZ1CGZWyiqp4Aq8RtZUR8AiVim5hDxhBQycTTI1yNzoZm4/BdcVGcxvRniaakm+01VqDObmxD2PKuSRFdt1406MSI9EktL1XGXREkX5Q74+v04+v0+H6/Tj6/TiRUanMj0+BEbJ2RLluiywyApdSMyW3qRFzGXVEL4aiU9H43C9LdI4DLwq1IqUuxtrVpjWxNDpKrdOhnldjtm4/LFJTwNw/BQ7hni0PX4hnXFSD7BBWIDR9wm7UpLDzN736E4qXyFYl5jDji1f+mkkjzntRpuP/wAy3xC61fKpB1S7wNFzNGnpBwRP+zbvxLCKxnrdKLxvTWUtnKpU9HG51OHMooi1CKsuCKlsiusudyYEx6wGiEK2tcVG47fBVR7l7K88ReH6pQxjcZMxCGY67UKlGm1Y20XWqdInNTBFcyeUdp7eRynjZpY6xNMzbnQ3nqnwvNeRmPNeEemUyWd9Kn1XTQWiR632vqDYttyV+xJABO0inJUaHU5tInogismC9kVwEvlaksmJxZrKIS5WpjMhptSUmxElvgGq9RaXXASyFKhOu0aaSWVP4OozoTp3tckOKHOzY4nTInD9ZpUWA6EUplROmuRZUzLnejQjhzHnXFjIoK+asg23qiypq+jjQeB6vvUaqViJFcbGaFJWDqw2HVVvp0jp0mMiQwcUQkPNaqsIaPPIEYXXWzboHDEKn3ugy6zOOe+2vW38XwRZjlyFd6jzuPWTASeI6tIqatHqRo5ZWafDP5USnMIEZoxuSBIJHpeRVEpJISovg+v04lcVTw05XE2WY1dLG1w9CRzxWKb79PI36mKKgEgTWGlG4JjWeSz8gzkPfcm9vp+pkNNpPwfxCqYz8o08xQl7mp2wtlvyGWKC2vdrtt97y4KvU9m3D3Eclx7qCmnTK46qvS4JW7DNRJTqFPVcyK8syKTiKMZtY8yFJchzYbzcmFMZ2diymSzMyGl71AubZdR1sjZeQmHHRJCqsZtxqqxX6TxBAAiDQqDHk5fR3Es40qO5J1NkBlcbFxh4LWS76w6dL4moqEZRqrSWOlSxY5ilUpTH2XHlj2XDgsSYchQJ5tYoupEb0qbwfxLKcvaztIlUxpFW9s8msjTYw37yV26Y4foJiASYNOa8YadlRyqSLyKm9mHMhk7McdJXEVUc2VNlt4ZUCU2L0WdHeiSWnEQgdZlNky4BIuZFEgJUso286La+JlPI1NadPn0xTJbk54tmyIGoS/CJzo+cl7823g+v0+BuE6JeIqdpy+IZKJYei3uxShJb/ZNVIVbUd9KAkt7M04sQnGacyAjEhaLkgQSwJpoiwoQoiImUUQX3A2s22wKpZ3CJ8RONODmExUST0b9/cveKpuKohdrFQ4V4kYSZHmMK2edVbKXHAkVqbHcHrMVGC6jTuqzZ6PLBqW1lEkx0Gbnl02WRrRa0jeRqpMiimrT2XybFVjN/wyIlkcQTmRQ6KptxJKPMOzuH6qbS1SEzbpTEloEbbqsDOSNm+DKCxKjOEnS44N6TgPxxCQLlN4opKnYVKLKlN0+oMKfZF+DN0JLJ+sPbgnqhxLRIzTYEZuSqvCERAUuS3N/sim/oTfAmBIQGImBJuJCaZwIfWKp7FTwj98P/AM44k/KbiX9vVLwsUSiMakhzK5JkuIXQ6XDUsh1CeY5crI5SFpoSF+a+PRo1vLPRonDlBBXpLpE87JfROk1GcaCMusVFW8qZBQQEGgs2yy2xT4og2DYoibmaqrjjh9t501u46a/LcPe3IU6idQU+JPhNuNlqMvN7OsOpfK42u6X3sSWyGBEBioKeJHDPFUFmSzLTsLnabkk0uZuZTpAqj8OoRi8q2rTiS4jiZmlca6yvVCno/X+GUXN4xZZQqjTA7grUJgE8mN/+04TZQlTMctiAgZnBzC082qIQZkB4FQuShfMiovykW3mxPVuPHbLoMzcGGgX+DOd4Ai4p/wDUIP6oz4R++H/59eOIvyl4l/b9Rx9fpwDkBvxfQULLJ4jltr0Owr12qW1mE6tL7k0PsFks6yZomCxHG6Dw5EJ6U9Z+S88QnOqMiyAVRrEsRHIFhQGhAQYYbFItNig2CBgpEgtaU9ZXnlHLe3ZabC/k4ze+kyl8tyMlN0zP4mIHGxMV3tuioQrcTEhsYEBbiYEhiu4rffFnBcqEVLojoWWeyPmcDqjMDe2YLSMuxtPL1sSKjSSXhyrOkRvS6OAdCfkFmIlqtCcyR9Vw1zSX4yU+ouqiIsm2HKfFcoFRhSgcjpV26k5CBlt4VaN+VTJTJymlbQiNGY707Wt741n6saPmz9HjsMZ7KmbRaBvNa+yEoXRO69vCi+Zf/u+KssJKKVKnVep1BiryqojIBGqU+RPyvQW4783pMfpJMqwIabytZhlNo5lEJ/FsxOJ5TaoWjKb8X8ONEl9kpus67Ue7qVSXKa1BF1qK0t0w2xTmOhQxFGwkuMC0qNIlhCDByigCiJYHJAAyPaGO5fC2FVMyzuOuLneeO3vjri9Yz82Zcop1RREQUT4n3RMa2RQfTsvskrEhE7k1mlQlT7k8wL8jHkn2pgJ8GY3pO+rpMVMq/wBqIv3xY8vS5X30Z2PJD2JnYe/6WOuxUQ9C06WX+W04OOqxUD9CU6Yn+NhsceQpc0vS8seKHtzvG58zeNyjQh/oRKW97HHxaZD/APHcwj72eTITk/KNXnR/B38mx6mAaH0Y2T693xXyx2Ux2Uxyx2Uxsn/oXImTH240WK0b8h940bbZZbTMbhmWwiIpuuJFP4DpDMplkib8d1VXNN4h2zxYLeUtO+4m+6mcd9JManjemZb30Uo8PTT7m6hq/wDUxSuEa1QqdIWoa+apwDdiHGCPHN43no5q+04Nm1TKCt9cxsvdhmp8QOPmUt1WIMCGKHMmOiNz0xIgEW20VNR0yQQzDzVUTEx2hFKjy6eQdNps8BblMg6pabw5CMHWTUSHOBLlJMp2W1/BTa0FIGs9PqiU3o5S1h6d4z8jVzoy/m95y2snavfFSoxcODRkgUtajrjUVl6n2SxH0tNYrOX37NnzL2bZd7o4fPIBFb71FXCw/wBwwXST0fU8eLz1tLNl8Xe22b29+I79suuw07lvfLqAJ2v32va/hqtURvWWm06bP0c2TV6JGcf081ly58ls1tr4plL/AHENs+MahDg6vjoi0+lvgxny9ATNkz5suYb2tmT4ipHCMJ4mneI3npNQ0yUVKmwFCzJW3yPyXBzJyIWyFdsOwjkHAolMbCRV5zY5ncpnlZix0LqdIfsdiK4ttiRqKrZFRlygyZp5bLIlVWfrKvn8i802nqyWx+6fhxmoR5aQZEJI78xZUYRkk2puAjoK6JojeQbOZcpFdFXFGkUWbEYrNFclaMSfISPHnx5WlqNg6SKjb7ZtNq2SpkJFyEo3FcVmtcQTYJ1SpR2oLdPp8oZQRIwOq6rkh4OoTzpIOUAuICnaUlxw03TKtUYAHQnidbgzpMUSNJp2VwWXRQiy8lVL2xxA7V6q9LfHiJQbOpTjedRroERUQSkOESN5lK1tr5u/HDRiqEK8TioqK3RU8WTrKipsuOJPyZX9pQsPfgnP8K4P8aL+uLino4623eFGtqGIXsw3yuu+F03G3Lc8hiVvXZduS/NizrrTd90QzEV/SuOKtJxty3D1ZvkMSt9rpHPKq2xwv+UFH/aEfCM1Kv0aA9y0pdShsOfmOPCX6MDIhSY8tg+y/FebfaL71xoiBfYvxBSYyquSNw3GIE82vMlqVvWoJfHEE9BTXl8Rq0Zd+lFgRdMF9CE+6vrXD/DEbhuFVGmoUOWkp6c9HNelCSqGmDDiWDLsqFvfDLP7i6amq621fxrJ2zmg3/g3dfHALomTSuyKsZaZkPajQSstrKtrra+Pddbpbkxyqlws2FM0HT6T00m6kkfo5ZkUXtbLkVFTrW3wynHcesMVKWyr7C1l8333WM6ipNm466umjl9rol+7D8zhahVWqQ47/R33oNtMJGQTyF5UOvkUV5LsqY9y2n1Jh2NUIcmmR5kd/wB+ZkNUSWLgObr1hLnuuJNS4WnjT5kuL0N9wo7ElDj6oPZMr7ZinXbBcyJfuwolxK3YkUV+1dO5LsvKPfDDhrdxyY0ZryuRvCqrZNkuvmRE9GPc30nXWr0ObfTcIL/wDnlVL446V1w3VSXRbK4ZHbyM69syrbHBOk662i0mq303CC9pcW18qpfmvz491pXXHHFRiWiK4ZHb7QyeWZVxDYpwulPdkstwxYVUeWUTiIwjSoqKjiu5EBe5VTEviisURx1lpspc+9Rjzam0zbO4/IYF5x4sg3J2xG4NlVRxSY3TXl4erM5inVWnm4SxkGW4LLcxsFXI3IjukJ5xRMzecCXdMIvnT+P8OVey6NQoZxULu1YEoyIb+fJKbL1XxxRwo46Iym5zNajNqu7rDzIRZCgi89I2GlK3JHLriZxPXQqhVPoAtfYs8mGMkNotLyQgu/n33+bDLY3yt1BsEvzsMlES/sx7nf4Wp/qdPxxz/UaP/nzMcK/k+9+vHjiT8p1/Z0PHDf5Tj+zJ2K/D4jo8CtRY/DyvssVBgZDbT3jCIGqAlsh5CIc3mVUw8qcB8NIqNOKipTWboqCu+MgIggFSyiKbIIjKyoiehERMe5t+I53/APBjjv8ArlF/yZ2OCPxTVv1uJj3WvwMv9gyccJflHRv2hHxPB1EJs4UoXELcVBWDQkVF7rYFGNlCpojFu7LKRG7fMlsM/gm/8Kfx9yJB0xr1JdWo0YjXKjrqAovQiP4Ay2+ohL1RdFslsl1wkiOU/h7iGkvmBITZMvtEK5Tadac6rrLg3QhITacFb7pYsFEcHh1wjaJo5S0t3XJCFRzWCYLGay9zVu+2ImQCdeenMLkbHMZGT4qqCIJdV77CPLutj3PPwtT/AFOn/XfHHP8AUqP+sTMcJ8SttGdPGLKpEh0UuLEnWGRHRxeQI8BOZVJUTM2qc1S9TpjVHi1mn1GUM3I6+5FeYlI0LBEDoA5nbNsAuBBcVG6F1lTHuecRuRxiOVmqxKgUYDVwWVkUmcemLhIKmg+dUS+OJPyZX9pQsP8A4F3/AAFgvxmv65jgHiNhk3IlPYeps0xFVRkpseG9FM15CJEw83clTrKKd+KujFJYrEKsJGV+O7IOKbb8XU0XW3Rbc+C6YuAQ2JLcrYg1CfTItMYpEZ6PEjRCeeIQkOAbjkh9yyERGAiGUGxHs9Yt8e61+Bl/sGTiBVYbaOP0uXHqDaGKm1mivA6Gsgqi6SmIia5g59pMTaWxwvToFRmRHYi1Fua+62xrNq0b7MUmkXPYlUBN1UFbXvbHD1Ljsk8y3UY9RqbtvJsQIbwvvuOL93k0xv2jcEUwiJyRERPZ8QInEnDtNqhiOUJDzCJLbT7iU3kfS3cmeyebGskOtNCpZujt1VdD71MzJuoPd77f04F2g8MU2LKEcqTnGukzrf1qRqODf4WRRviI1xPRIdYCCbhxBliRaBPIIuqGUh7aAN/ViW5wvQYVGOcLQSyiCQq+LKkraHmItgUyt68P0yrwY1RgSgUH4ktoXmHB9IHdLp8EksQruKphJviSU0OfOsFqovhBL0aW5oP3IOindZExTOG6nQIc2iUfT8W099DJmLpNEyGTr5tmjIEuS7KuH5/DPDsGjy5Mforz8UTQnGFMHNMsxkmXOAlyvdMKK7oSKip6F541f3E0jUz6mfI7mz5s+b33nm3w5SahBjTaa8ykd2FKaF5g2URBQFbO6bIiZV5iqXRUXfCzBpU+EikhLDhVFxmH6kbMHTEV+SDg+i2JNAjcJUoabMRtJgKznel6Jo43ryiVZJ5TFCRFcy37sVGlUKhQ6dT6sipUYsdDRuUhMqwWpc15skobKm3qTD0mlcIUeK9Iiuwn16Pqo7Ffy6zBtvK42QHlHMij3Y6X4kkUwlW5s0mYcSOW9/eVF0B/4eT0YOLwxRY1MR1ASQ+CKcuTk5dIlGpPO+fKpZEXdBT4h8dcQOPMwNduOrjLJvkjjq2DqBcrKu17bYt4yqHtpku3z5MKFArcWU+iXWKpaclP+EVi+b98lZ4gceag6wMZ2GTfJDc2G4BcrKvfbEGsQFNYdQjtyoyuCoGrTo5gUgXcVVF5Lv8AFJfjan/5yY4akS+GKQ+/IpEU3nXIbSuOGTaZiI8t1JfPe+Kb7onAaHSCiTmhmxY5EjIqRXBwUvs2apkcDsrdMUOvJzqMBh5xPM6oJqJ+dfGlU63TYLv83IlNNn+apXx0inTY01n+cjOg6Pziq4WRPlsRGU5uSHRaD5yVMaEbiOkPPKtkbCaypKvmTrYum6LVISov9tMcJESoiDQoCqq8kRI4brhWItShSHkuqtMyG3DRB7SqIkqoid+ODuHKVWIsej1CRGWrECskaD0kBIDfuukJCq5uS2xpQajDluiCEQR323SQflKgKq2whVWpwoCLy6VIbav7CW+PtVVoE+3NI0lt1fmFb4ApklmMjpo22rzgtobi8gHMqXJfNhGqlXKbDcXkD8toC+ZSvhJMCWxMYLk7HdF0F9oqvxCf42p/+cmOE/xND/y0xxBnt/suS/yuktcvThuu/wAvBps8oyl3GT5tx19SKQr6sPcZ+6BVHajUqvKkK205UdHRbE1TMvXQ913FOyKbWwnBtFqTsrhqtsXCMcjXBonGldDkuXM2okl03VLXxQeFOK6o/S+Dujx3Cs8rEd43Lqec+x2kQc69m/dhk6I6iSGibdakQaur7mdskMSyk64K7pumXDbKLdGqhAbRV5qgEI3/AEY4L9y73PXUertTo8GJU54HYYLegCPNCfc4I31O8eXPDtPS8irVJghq1VX+EuuOj10acW6gAKS5PnXfHB/D8V2ouw+IHWenuSpZPyF1JIAWR09x2NfVio1mhdO1XoBDISVI1gUGUJ1LIo7Le+OLuIeM5MuZTaZOOLBp4SHG2kRXDRtEyqigAtgiqg2VSXdccNcZcDSJlNZOohGnQ+kOONEKWJe2SqQmNxUTunenLFBqzBky5InUuY2YEok2bjYOookm6KKrsuKVWeIFqtWq1XpkaY/OlVB9XQdkMia6diREEFLqoqLip+5wM2RKoU5px2I28akjfV1WDRF2Q+0BKNr81+IS/G1P/wA5McMMyeIaQy6zR4outuTmBMCFvcSFTuip5sU/3OuCXPHMidOZWa/ERTZuJWbZEk7SZuu4XIUHEvhOMKnKhcPN5kFLqbzCA89snNVyl7cAtamyo/EEV95qdF8dyYNrH1DCOL7Y2VOeUefPFNqNJlk5X4xk9EAq09MdXKCoSqyTzlxQCXtJZMeLuJ26ZJnxBTKhyG2J7AuJccq5hdQS5pbbFIrXAXEEyJWVqDYDTWqmcknAui3tqEaIi7Ki9Uk2tijS5qKkuStGekX2XVcBojunnzLjhn3Q+C3pX7qafHYrkuxEqyGXAF0222028kO2VO2OZF3XDMxCFqrwxGPVoV+u1IFLKeXnpucxW3ox7m1Qllow23GSN89mxQJjOZVLkmXvxLbhSmJOvAdQFZdBz31khFeoq7LfHHfDFVfbg1HxqTrTUk0ZV0WnHW1yZ7XXdCtzyrfHDPC8CSzMqcurg50eOYuuNgtmxUkBVtclsmOG4bqWcjO0llxPMQRwEk9i44aIKrAVI9EgA/8AZTPkibjAhi51+qoqi3vbD9Vo5JKp1KiuNuymus0ug0oZkJNlQnCyovnT4h8R1tZHQukNSVSM4rRqbK3Drpva++2P++FTzeMXvpxr0OjtBMtbpsjy8q3ocPdPZvggNEICRRIVS6Ki7Kip5lw/VIh1GhyJJqb40yQTTJES3JUbRUQbrvthK1Afqc2poybCSJ0xx5EbctnRGyVUS9kwVcmy6rBqRMtsE9AmOMioNdhFbFRTbz4YqkxypVyTGNHGUqck3mRMVuKq2qqhWVL4Cg1jXCng808gRXNErs9gcyboKWTZLYhUGPmchQYgQm0eXORMNhpoji/C6uy+fEviagvVCBJnOOHLiNyF6A8jq5ibWMqZEHNuOWyivJcNQ6/GIijqpRZTJacmOq88jib2XvTvxP8AFtQqM4Z+mhDPd1dIWuyjSqq2T0csFWXQl0qrH77NpjxRydX5TgiqIRenDVaXptZqbC5mH6o+UhGSTkYASqmZO5cRfxxGxw7Um5NXpL82jwHpgQJroMPuORwJwyazZcxqqqS4eaoMUteTbpM2QWrKet3Ka7oP3KfGDFCp82NAcbnNSieki4YZW/goLe919eKNR33AdeptOiwnHG75DOO0LakN97Llul9/98UHq9V4VMB2+kkl5Bdey9rRYTM89l79MCt3402+KoAFe15IS4Yf82VHZb/v4akRnW32H2xdZeZMXGnWnEzA424KqJgYqiiQqqKm6L4DddMW2mgJxxw1ygAAmYzIl2QRFFVVXkm+G6dRgrE1HXXmW6kFHmDSCNgSNz7PMBbREQFspIiFsg3zJepU+BPZkzaQ6LNSjt5s8N086CDtxRLrpnayr2fiqdwcw7xFBpVOitONxOF36XArFVM2o7qyOnVR+PZjypAgRVcKzfvarnMKQFOgcbzqBJkCzWYfGU+gz3Y8czAVmQJkWaUtFjipOm0QkJINutn6tOr9Ar3CZ8QQqY2yvDXFLiE1oKshG5cdoM7qKeoa9UAIXA1Bd62XEubV/wDROUSNHcechyYMt1hxpsFMg1paZEIkSw7iirbrDhvi2nUtmm1JycNGzA2rkCEAnorUY7RovkNkZZBzUBqQuRdUQsXj/wD0rcVdN6D07xt41i+Ic+jq5vF2l0boWb+T1b5ds19sVip1iVOhTYEetJ0ylurAGrjT4TuUnhELHEkK4rUtgUBt1xklTJ2BpM1K/wAUR/GVNmslFjVcmoUNXZz15FPjo1aNJHTuDyKSoTji/Dx7oX274h+0lag2+2hfbXrzV+3Xk/s/sW62TYj8+PdHp8rjTiim0qj1vRjwqXORlcjr01ABqQ82+5FZaFq2jGRtHLpnWwCmKPwc9xBUuI6DxHTJUqN47cGTUac/GCSe0xAAnQXo2XKthyudhCbzHxDw5qcVRKZQ3NCLSuEZVJplSlIBW6bJmVOTHecbeSzohGRwUbcbujfbdp8MYPF0zhWWhN1EeL5dEmT6aS305cWZAmOSHWBJQR1t0FRBVbIpKhDx1QWOMaxRaNT2aeZMQiFx5AejRvJU8pKOt05ScIzdfZa1CvZOariLDWRImLFjtMdKlmLkqRpAgashwQbE3jtmcNAHMV1t8SNpXqVEnPspZl9VNia0POzcqObMkQvvlRzLfe2BqdLprrc9sDbblP1GpTHG23BymAdLlvCgkOyplwr9boECbJVEFZemrExUHYUWXGJqQqCmw3cWycsAS0FHiTrNszKlU5TXV52jvzDbNEul0ICTffHinoEPxZodG8X9Ha6H0e1tHo+XS07fBy2xqrQRRvU1OirUKmkDOq/+C6Z0W1/gaeTuy4cofQ2WqU7EcgFBjj0ZlIjratGy2jGmrQqBKnk1EkvdFRd8RqPSWRiwYQmEeMjrjumKmrppneNx0uu6q9c1tmTutirVSnQ+jzq68EiqPa0hzpTrauKBZHXTbatqnsyLab8tkxV6nTofRpldkJLqr2vIc6S+Kukjig86bbVlec2ZFsety2S1O4kkREdq9LZdYp8zXfTRZfR1HBRoHUjuZkec3cbNetsqWSwSK1Ro8qW2iCE0CeizREeyPS4jjD6iPwRI1Qe5MHPo9PNma4yUc5T06oTHlYJRImry5LyICkArZE5ii4qdfiQ9KrVgWQqMrWkH0gWEEWk0jdJhvIgCnkmwvbe/g//EACwQAQACAgEDAwQCAgMBAQAAAAEAESExQVFhcRBQgZGhsfBAwSDRgOHxMHD/2gAIAQEAAT8h/wCClnU9ts6zPOqFg9BvRwW9p8OmB9SrBXs6Z14LvQH6jDm3Sn4Jh7GP+iyP09jJBXHFT2dmv4SS/aB4soQDbQAOVcczvFVUm9Cz6Wkj0LEJus2AFlUWLWr/AEDGIxkWzx2YFDShZELZStbuyl+ReKbG0Zr/ANPD0A1pf5EYLUoNRBV1GZh5p2UdLLCUo/2ZCGbJN4k2AHd0BMyh0do0WNKXarEyimWey19QAwoIJyQtkQCxlgIB4qq2uBQ8BbbswaSmzObIOha6swSfgder+r9yPdN/opUxZvnBmcIBbDBij6LdgjLHIlyAUJXtD74F1CfFoFnwsjsQyr9kNIy4AFpOAAVXACsC42NzuY1zBU0mHnk6+yIIDzQ65qzr9/uavp83VebxXXEPEJfp+PX3f/ef3idz58zC5JYvlLADYMNoU0F5ShXupIi4gGhRS9vIRqagFexXvtK8ZbcVBhwAGaDUN60eyKUXvEpCHfhboUsVgJUpa7IdS/NxGEN6QAuE2bXwloVWkGaA0cF7SPi0hKyX3vUWdL74uKLKgnuN+szJpx9kYvEd6pjbjaYLEPJkOvc2Y6my9z6Clh6XjClk0HZrhm8QeXuY0iZQKyxabFW8aFY0dnkyhA+w7BphunHWXEZSmcRtYwy2LGyQFwtj1OUjp8p92z5iTJ2rmhrd7l6ABo9HA76XyXrCnWFKPQLKT9J6R+wa6mq7J/ol582sstsrPkidcDqmepLNtHtuwFVpPKM4iuXl8OZBoscvoRY0HV8EgaIBk2lRCCRd83WKijtGeoxTDoJdsDAfYed1dtGzk0QEDy2MBLpYnFFVHPS8LzC/dTb+dcIEqU7dZt1Z8pvvLdZt1Z8p8ouZ+4BEW4Q22Tt9Gnk9iyELMYWNZnepwwXmHi9+4hr+fgMt147gIHd+pTugMgroYp6kLCQYc2oWHbQEygC2UpUoIzPizRa/QRafrfrLT9b9KousnqJwFS3EluWMyMq5YeAk4q4ukvPBog3ewBS4hepojKY50fB1LB2/n/bTsZr2+EiIovfcTPe0YS1paOqoVqxWkg5mBSirDwkZWCgPw9F/4C/UvzKDzWFKVAc3VzezDIttIfpaUWqJAssGNCK/H/PfYS/Vvx/uhHkThhli4NrPZZfM8o2MGUA2Ibj5yRC90bhvyZiAAUCbjT1ny9Ty/M+XqeUHQzaYd9fWyvMfiz5n/K8ytZsDG07xl4uvB1jDVe4v6b5JszPs3882XaP+xdhzmmfW87my9tFlOrFCGggTYIrw22Be1RjdQZWZV1wBtfqA8vQK+jy9AAHdQ1dGU2XUqERsXhXGscJi7s+RR4PODnpGcLJatG6nWZEMpqPYly5d/wAx1OOtKS0+zccvMXCseCissvmTqMOEFV5rrnoP4R8JBhPeqZMhvcCRjQe0N3BeB0Yv3vv/AFfo9J8vv6Vy37fLR83HmfL7zSmkRMD5eXAwl8NCiytPA+fBYpCTOoRKfJcgT1/lEthrteuQCrNmgSpR/OorBD0bzSHNIGAWNyCkTqK4t4kuRxn1bNJyJC+yiCwxMJJwb5V2HILWZBuAaYDwkq7DIp+UoiD2haC15axXEckyNLWj5uQLty/H3lPTsN4b7cRhtUEKtRwxHFBbtFztwbG+kcBkKbv0+8tL7b5VlTdijikLWk5Dis7Kd9BPKP8A23sJKGyOM8CtIWcFaaL2xKv0YBSqipRhYXUPVtnWgHksyMmPWUs34lBKZSmboYBo/HyPi8p4lluySGgorDGY9/l1fC1qjFZKHy9F/ZW4Q+BSa0pKK9a11OaNlFzF955T5QGtypegc1BPIboNB3pGYs4JT2FRWPYszeApUZAzrwBLpCC91AHntJWSzC+OA9YhFn0ZGgKaKWwl5Y8qyK7+MIY5CZX5x389DRXV0KQJh3P2ZZcIdFBhJ5Ty9IBfQK1Cnf0EyEp7qqiC3q0mdazaADDBVSQXe50b5pgeCIthXsQCmBkSihRz9ByrIOkxKzTM0FADx8gk3xd10XUJdLZLB8gJ1or9KMrzmnrPM4wXyzxPpC5sv0rNy7v8X/YQVwWvQubL5rtS4UbUg0XhgEmYjJjAO2KUZfi4vo90UdjMGoAr2QBSXcojDYdki0moEcZFAUukU6otaHdDAT+7/bICwmmlCJ2ofz7iyjV9KCq4rKXZzPUK0NDvp/ZLlD0GeQwxwDo596wDVnYbIZomgdQimT+VGmfxmuBnzJ8cAkVoCgAOnsyDuOD6LMobDB5aABykDtjjq+1+RvWCqu++diK7j/qPuEN4v/TfeIjSzo68Qvnipe9lT7tvERlqFRPhgycbCnu1yoqjoQAKPaaGXt2vxNp8BUXf4T+4dP8AP/RP9LXK6k+kAaP/AMKYP0Sm6DQq1xuVrpykLvNkpowEVdC7ksPAjorXrOYjzvHgMj3Io/n50aeY6hy6ti4lRU/JjAJDuEotXmOJGqIRF0N+roKhT5jNUOsToWyBxCweltJfxVyw2q4Si5L4WMaWse9PZazOzC6uj1rzyKhAPEK8JzU6mmwj+2/0ANzQv2FVaiDSqqy9LUWs9E/z5wjc4WOUdcCgIpzY7pm4qFtVnxxwFCwkQsepxeUDo93g46FzmT+vam2IEvUTYG2qqO6uoc+kqrj/ADD+mQfUpH9YhvYp0Uz/AIev6xbVTICw06FlvChOFd5yusvRM8Kh4DsQokDSlVl8mLxuJAJmS2gQEmc5rNM/dX+nzGDJA920Y2XZaKqC16yX6/KV6/8Awph/HeGu1hMeh7qPExoG8UkzsrBw4e6XAKUBpkYyjjvFU4tS9lWX1JgruAc9Mq3G3lg/Twpy3yV/llKuA9LJzGgwpxBl2tKl2Z22yqLjxMVbeeAfYmw5tiLBOLECIVortSkWZOQLFCxGGrM8mZjrUx1LwCpZXQuCussqOrCcXBRzMRa2IOLrfMPHXITthaGBdWrbFZooBnEgLbo5jQN1OuwkVFyzcphjTh4PWBUWDLeOHoS5QlbgKCEyAj1s3/PQDVvoMHUoHwahuPGCcgamcDCzK0zBMii5XyvvQ6uQlluotoK0W8esDHgHGn8EyJ8H77gCiRgLgZq701F8YsDsYAhgQsRLE0xhVSuEWMAY/wAVQ8ot+37X3nDcEoKBa19TcayaTboa6Q66sTmb/nlmMBs+vYlsgplSK4QQwwYIgkEwhnRFbFKpLkqhfCa1ubLy5QwKLnQpjyU42jSOsAepFWzj+j9mKVJasEChLiC0YSOKKLkQVgh1JiUrTpqIBromE8/1SGWPm4xl36tXAAXKNUFmxFXbFFALhvBRVCxFWXGwQWdhLMqVwHX5U/v8b5mBhSSZHlRUd5LBUTs4+Oplehv90Qgn8AAV3dELFhDoCj7fz0vDEhma5Kqu+o7gOY7sMAAu6OmDRJ9iAamGrHsuMqsQEbsLCiSLe9aqORkDU9aR0ptxjrG1cEBM7BBmGXLFRu9n3fB2DCJTmGz3FkZ30VBBV9bk6PBpLbEUVTSKB5pGoq27fzTPkN33IEtABkL0qCjMYEPlw21H1IQYqmThqdGdIoQOtsfvtfGDsnuK3aANgTfayWeKyNvEzdsx28gw4MRPMFRTohoDIaBRRo9gEYsZutPCUEWzRmCKNtWIeVUO8DM4eVLy6VyBTk/yQr3tWwvCCiq84hsFyrsQBLiac+1GU3ad1FLRl3OZ1UnU52wOoVZqqJgrVuBXJm6MPODWSOBoPkIcU9fNdJ81NCj0ldsXsQnfDALVGzeJc8ABsRcRNjwxIDTAgKOADKsMu3mCEIJwcs0TrNbWMmVByTRQh0wjS2LSrhh2uwDqDR3qWdyLCp5tO9TYoq8LScQ5ZXa/bfWo+an43URGX2c+xpBQe2L4Omy6L1LKpnBwe8i50RZkXsBDObJKoxh5X4gxCtL6n5ah3OiHLrgLm8NCySx7++SsD7guSqjENTIEu6We8LDKLNUOUDCUL1EV3MRzGUEO9yVyOdqshm6pvoqPecQW/QntHI5NQd4xDnnBhYWAUjYMuwzkmNc4mE0XSKjCygbEsg/FV48KUB0Csw1fGeLyVAEAlC+xWTou28VY1hRd8RVaoGAFoC4lK9dErxkHkUVG4xCB0iVCb75C5cW8S11zBcoUjU4gYSGSWNngZhJNTDZz8Gw3LCXBJy08CRThZcXgqIG0LiAvYsj6IAA8Nbg96VIkKdv7GawBGzgzKG3ZKchoAOptK/VfrjDFoOiPnNW0pjXg55qsx/DcbWjuKMcz8hJ3EJwShMxjglcqSozNKV7CKMxEvJwzVCLqnCkeLqbrCdI5s43xGr1Sd0DqMIfYMINI7ikjavLmeUYX8TupbVCmMitQkPgAkQ1s5W5gilXiGviC6yZl9YEsdUNvyKq1iGaf6OFhSTanK4gH65qyiJYcYKKp1rk6/CLiiiKjeNoK2kVyq5xjhN9YVO228ymfWnxTfxsICarrtENpwjck0wKrN6TP2Rjy5Eq/B7hSRK+LqlsWgDOdSt0Osz8hegKDn/mL19GajyqHPDCyah4dAbw3u92oHXnilRYFHED6GORyn0IqOAFYIJXg163uV63EMZW2uYKlPjVs3VL7SKJhQNKcbylcjwawCIt+qSugTfldEnvpQp4whjHh5SlZj2o5Cz9nOHE4M/LZUULoFDwCcvSkEJPNde+h3Wdwp/mv6MKmMeTakltSLdBw/gV2goGX9EUs8vZEsZkTG7hbqqbGrXA9C1KHYuwTo8+O+DCbUWUmZfz3fY4a1KopmHjFWj5gahX2TLZqo+O0w7llVizDVIjMDAyK5BHgTkVUo4AMQAAjmNcoIdHWS0pmIEzt/wBefPPq8xdT5hOK2ITo5FKYgMvdBS3YbuiVPJKz7uXhsgMUwJGROoN7cvSqsBCtpYtB44rRqcD5etOWeH1WBrS8fmHI2OTzVbLwvh0YeBh6kEKpdvH6rRC/Zs3P/9oADAMBAAIAAwAAABAAAAAAAAAAAAAAAAAAAAAAAAAAAAAAAAAAAAAAAAAAAAAAAAAAAAAAAAAAAAAAAAAAAAAAAAAAAAAAAAAAAAAAAAAAAAAAAAAAAAAAAAAAAAAAAAAAAAAAAAAAAAAAAAAAAAAAAAAAQAAAAAAAAAAAAAAAAAAAAAAQgP4RBAAAAAAAAAAAAAAAAAACW/2BIcAAAAAAAAAAAAAAAAAAGhSSE2dgAAAAAAAAAAAAAAAAAB5SkPa1wAAAAAAAAAAAAAAAANsepzDvwUgAAAAAAAAAAAAAAASQPRGnffEgAAAAAAAAAAAAAAAc6aKWn9C1gAAAAAAAAAAAAAACFKoSASAmrQAAAAAAAAAAAAAACX52wCQJgRAAAAAAAAAAAAAAAAAbpgQAb6agAAAAAAAAAAAAAACftP3yWZ21TWgAAAAAAAAAAAAAezzpiRdiPzIAAAAAAAAAAAAAAMX9BwGHT1QAAAAAAAAAAAAAAADovUiLG8jAAAAAAAAAAAAAAAAAcnKQAsa6AAAAAAAAAAAAAAAACThBQUqZwAAAAAAAAAAAAAAAAAaLaSMaSgAAAAAAAAAAAAAAAAAAASASQQAAAAAAAAAAAAAAAAAAAAQAAQAAAAAAAAAAAAAAAAAAAAAAAAAAAAAAAAAAAAAAAAAAAAAAAAAAAAAAAAAAAAAAAAAAAAQQNS3ucAaAAAAAAAAAAAAAAAAFfe4f4TSmQAABBAAAAAAAAAAAXwJW++fLwUAAAAAAAAAAAAAAAbbzjvsPECpAAAAAAAAAAAAAAAUGARvCYDDWAAAAAAAAAAAAAAATortPBbxaeAAAAAAAAAAAAAAACmgADkAAAAAAAAAAAAAAAAAAAB0Pwd+HOAwAAAAAAAAAAAAAAADcgjzm07AUAAAAAAAAAAAAAAAAyrWfTCLO0AAAAAAAAAAAAAAAA4zpdw9p2oAAAAAAAAAAAAAAAAAAAAAAAMgAAAAAAAAAAAAAAAAAAAAAAAAAAAAAAAAAAAAAAAAAAAAAAAAAAAAAAAAAAAAAAAAAAAAAAAAAAAAAAAAAAAAAAAAAAAAAAAAAAAAAAAAAAAAAAAAAAAAAAAAAAAAAAAAAAAAAAAAAAAAAAAAAAAAAAAAAAAAAAAAAAAAAAAAAAAAAAAAAAAAAAAAAAAAAAAAAAAAAAAAAAAAAAAAAAAAAAAAAAAAAAAAAXoaQAAAAAAAAAAAAAAAAAAAAKIhwcyokAAAAAAAAAAAAAAAAARREQQG2j//EACsRAQABAwMDBAMBAQEBAQEAAAERACExQVFhcYHwkaGxwRBQ0eHxIECAcP/aAAgBAwEBPxD/APIQjhnOL4zXOm/nRrAuyKEBCcKh7gneaZVgz9gFESYcxRckubmPWsoMbFaxrtr6fqDJONaiQkjvjcPTNs1I9kJCXJQYZEg1g1PqIko1yxCbWRd7kODBCATzCIkE2gtfSKcSA0mS29tvilrqX6CIxzRzD7BIHZSRQ6ycFPO2QphlkJM0wkCQiBopoMqMC0QhblsJBIYpvIZ7ahpy771JQX519Z2/TIjCXdNfT52oAIgyddjQhVwAqgLT44CDYMSwMKtiIAo6JAPQNUxNpt9TTRAblo37ekUgk9lxTp94tSOROsb+j1oXQ+chV0jOoHu030owRBcEdUpk467RSRAyESHuNtdfeTswxzBMISQyIlEoKNAdQpQRJBAMOpZhkBEEb2dZb5/ShbUc7DCxvLIBdRLQg7NFuIAhBoyJYtCjbYKYSoXYW08+tObUYwhzPvE8dKmQQxN4JlPreggROYu7Zh5074pJDo+pbCzFD3H4/tI2LMxM7svtasScIUm9rx7Rf7qa9xsvN/s8a1LIGCxwf947TSutApQkw7WhD5uA2EAQSwTEEJEjWYCH6KS9y2eOu3ehPIydC2B2maIYQEGVmIATC4iAiyssA2zY0GNs+XOwtrYCWUYFAJJ30HkMWBEiZCN4kRBqxTs8Aq3WLmB1JHRvTE5CiQE3n09a5df7T4vSiJtDdZvjSnjL5Eg3087U2zqQEQWAykDYFQXeiMsvEKLYHIQmTOBM0+iMARC4ZFi4TN0UiwKEcwWOu6RbTb0zFPZSwYGLlr3CJ0bwxFC+tAKi8XGEeGodn9DNWTa+sXgzYzQKJLUJwhkXuImrmhGYMdOw00OlQUSWnL/1027UcJQwWkF+kwE5ucvIOWDTOtumk+1Ni2zETCCJhZiZxJjI0MkIILkJZTBITpOg9tKdbzzMGW0uvrRmdGFmZ7+FJCOLAKyRdBdxi8U0o4ErdpgZmwqxoqhdoFu+fQWN9L96ZgLBFN8WcFokyubxYXgbR9zf4ojSECX0EUXEckhAZAC+4VLfSQ0tYVtLMeev6FAKJMk3J01y4t3oj5AYhhBhyl177zOcBBcnrpPE1AwpWS18Sf3eljDVKWIyWTBMiWbNMyjNOGWxPKRUiKIIImDj7pYm2y/I3/ua4evh39+K4WuvjX34puUHJ3dzh732KMIWkt83tBSQXCkyMl3T7bUWtUFAyyDiRbGINpIFAswgiTaYTXWpMpLk6zped6g66BEiaYQWYUtFpMUpZCqR3kUTOf0M2trprf3jyalq3opV+HW3N6BcfQ+71hA8IKJjE1KggDplqk04+6GKLSd4v57Fqx/6BMaG+bJzrOvaaIqyYxOBO+SSYm9mb0AzNr2g6ddfemeSWZtfXHGDTerNTivN5iO1TpONDh5vvmdf0Mr7R2XPG196VihD0w/fjekDDa83jT7ZuzQpCzgZc5m9+P8AKdM3MCcvN+NW9RCcVzDMM4b5zjp/7VkT0vN5+/lii4cyTHRlq70mxlY5Xg9j3awWiPfXzec0oZEAL7+tccFAkAF65SxfSe3SP0MNkY7HrtRtpE5HYjjpUFN9d8Wi/wA6ULe0kTnPTWonovzG8/WtEDF9M6yYjf8Av/sHMt/U+OHFCB3ULaS62xfC3zT2cvzddrjxmoSb4LaTO2tTKi7O9xp/avRBltGR733j9DHDAMBkhmdLR67UZBIBe7DA5xx6VGIYS2YmwGt6ZeAJPDZy4+cUS4mmByFzYusUshoxZ1y46NSOEaUModfzDs+jTbNutqLMkwG1ws7Wz71ecCeOo7OIZ4kpNiMaWt+W0TUole+GmbPDzQOFlWMiHlr7VNTdW+c2ddLzs/kTgpIU2/8AtnQupHT/AC2v9oSglBTeyXMOf6tZrOiMhcXcf21qJQtxFjp007l4aNDAMA77W0/tX7IxBdXW2nk0uw8WD++Z0pQwFr1jqzP/AD8pLvJu6g7lIkWW2Z1zxme3FPEZBYoDdVOPIaaIIKNwjpzj+rXGHG3Ga6/HejLEyYeRjb/ppanD5XPdv6foZoVtZ8xzTtBAOYCEE3y4/rTJIWRmUSY0v396kDGTIQywdOG/oEbRli/JZblvurVCLaQ2yeOt61TtggwS4hf5Gl6ZgvFwtZ5tE9yGZhy6fiFBWMjp5e/Nh4rDaR6Tt86TNBYEmIeyedGoGBGF02jhtpuT8nXDfR96AKhAt2LGdamzToswRaJLu3WhBK15TprGf9/RKA7I+jNXMUAmNoP8OLO8sCmi1sLfTPzrVukU2xiy8jb+3owomSaXMsymYswzcFJFSrkDcSc+a04Uy/p74/0n8wC3+ExER5vR5eC6enxJ7yVFtK8SfE0QTPaSfulAiTBoZnFjM7O1XXzQERKLrzccwlmbxTpWZVWcys+vkfpCZEEhDHaHE7I3tU1emIVvY6xMATGkU+uZIxJm+ebbvfKKuYckM69Pfao4puoYMxK2iebOaaVLDfgnXXv+SRGLktEqM9DXFRPcQnRjd853SpQM73l6UNZLTJiN84pfDCBJV5tpfXNo5pokFpSGbuAnEYP0ys2EYNxWcxJpQzYABK9H6v1mC9QqUN2LTLqHE0nowUO5tuRqU1dWPnR1Itv+dgznvvPLTjKwY9L+/WaAyBZy4id5ibUyUyQxiEcGuSYYnkine+UXlVebsBbQLAGAjY8cb/pxOU4Rp1xQAV6pdM0ksgQKyss21CN99qwgzMRGutvykEyw4m+fbPs7UxQwiP8AO9poCBDqkhi8Etrty6ak1eFPqoeRUQ3Z54013x/bAZ1v6P8A/axIMy0eG1ux/HfWfHwo17JHVxv0sW5oFsXaYnp/SfbSYrxLRgnahOPPPMMKy7PnWglDdD1a1Y9XGxg6TPNNlNl/JkpyjHN/jzsLRb/f0IKWwzjiYZ+cW1xWEjUuTBBt6X0eyzvJiJPjTHjNWICl5WZOk7dd9GkJjVo3v/YvSLMBti+bhfeNdDesrqtzu99uL0qYlO1vR6WpgQmXPZPuiTas9rivMblYRBiJi/XzW/FXQar7vSoRuRtmfgq+hLRIm8mfutRGbMdJ6S+atLu4GY9e38NWky1xaO/S/rO36CcWzb73qVTcCdOe/Vp4xBbV8i7GuBk1yvznjBt/tEzgRjCORhi+Pu0V40nB1/uL82Ji+pWSMnfeeKOQysI2whOdv6blIVsLZ77cR/mBBM3uzt5Y961YeY9Pw4oEX+60FBgFiG5d72S/hEUStJu4Y+cZ61mWkwnrF/NuYGVvaNL4DyPdxGBirEQQSsc4jdqdG+BnfNtDn9ApQnSI5D72z0ijfCXsjtsxN76e1QCc5LaHti+8RGaUp41nA/elePyVhbMW96tUvkf7TsaXieoe100m9e6pIDqvoh9tSAW0kstiesW571pnv917v6awNWQapGQrB6H1WZR9X1RkOY+uO9eXavNv/vUXKn2imTN97xxNsOkOfhFiGBxGW/HeIqBFwnXTNcu457mL3Oa0dJ10njz419/qkSTMFki2fTNtGNlpibMjHG/vXvE9xnnEWn8ZOs9JZ94qUGDrtb5tHei5jAGujMya3yTNpolPDeIPM61mRxrGHwtXf/eKXLAWZw8xeJnFs6aUgEnB6fz69Kbq7/8A3pOaTkjpX/eqbLe9BSiFmYYmczFKZV0urbahRkYpUhQ6tSIyyEDNw60gBVDE/i1cjafwAQEda5v3650pS6r3r/cV+as8hE29KyXb5u+vXn9CoZtXCoRwj/6UCuDNDIO5P6mF65b5KAQ6Gb6eaUIAMW9NRb9fY1oZJxUjhGvPLfiZ7fO3jXstGawOh8fhRC0J5gefL/iTEn5k3P0XxPhWB0PisHo0WN4tM+8adMzrmhIK66aFjGY/7a9AEJBE8WYQnjbZjWlmCoE4OoT1z/Jak0OI8vQgDamIBvA4mCBHJ6azQQRKzlf8pN7CvsLfHtvxcBjjXaguXE2NI1zOc6dqFqbxEsXbWM+brU5aMdc2oMEw+/fSH/EihsMrl5hsR0li+Pn9AJ6X2RSIyWCeLUSgDnm2ZnHGk7DSOF4PUiPuaEsR3cu92dG0H0AZWXI+N9KZWYvuZ7+Z5owGYyAaW41jJ7WbuUiLfdBA5RtKzHXngsG9QB153/usGK7M6JUgic83r3pQo7279un+YIsBdki+zKeh/tmnDn45nnBWBOx/nm9CeIRBy76xrEbyn6FBIblbR8/2gGnn+afhCzp9zf1Pf3DD3vrz57UEJ02UnizQRm+uVfS/lo5QbP4gFYu5pBs0EEfPnmaQ6dy3xFBL3nr/AM/56URU+afdQSDY9E0II8N8Bh356/sBIlCCP/2Kyb0TQEoqYJUZGlOXgxK28Wa9uWJoQnwDxJgCIjCMj+CTLKAAqGwBKrYCaMwHMtQLCwSLAaQZ4nypcWLim4JLfqlrLDMOwWlZkqc1mVCnKUsZoRNGRUgHYDPH5MjcmMqJDN/1KQgEXRpIVGozIBMkARAECoCRmMd5PNXWWdiLr0drecRQAZmQBBgIIo0EgcsVSNVQ0AuEglsBnbMJssIpqYTMCwZAvNpACMIzx8KyeABISVZyFHgbr6GJEJlRTnSws80jA9yHLRFowHJXSXMCbJGRVZsEIRGSBFgn9JOBZJJEUvUBQiQXFCUwTpSU6AQswKKDVkroYBgIILQBiLUwAVIOztC9iy+8QrI+W+sNsEaVe92oZ6jeMl4pRUMOBYdyaJoG4QoJ0dDRIEJI3UTBAAD7C1xEaGiCBDDYAOQIjLorJBAYQSAB4GuNAEWCmdcTCDF4QHlArlMELtqTlZhEFFjYBCQxIQGUSmAiVgwxS8qrX//EACwRAQABAwMCBgMBAQEBAQEAAAERACExQVFhcYEQkaGx0fBQweHxIECAMHD/2gAIAQIBAT8Q/wDkIQkFNyudN/vRpMU9yhiRDcSeZJSMicZko6qRRcPd/KLglxxHNCCgoUoErBz4SOEfw2alxRuzbS9gJ1z3xTyyjE4huiVSkigq2rQSUamcRYtdE2Q4NB24ZBpBKYvKrnIUW0CTnAdnb/aZrOxcJSMGWcXo1MwhBZzcMTZ7G01IUChZhhcTTo6gkoEmsbCCZSGVmEChNr+Zxw8C2W5NvO3FCmRfj++lISYenS1sb3/CkqkERk36TQRwhrrLgJAEigBUE0koDLkJNgkqAUEWhcNQjALY3bdWoisTezl2+xRvwLByzjR+70wW5zBfPHTz4ouwbMHPFtHvTkGWiXiOosSe6TSiCBi+ka37damVIkKyURDqIniaGYMQAUVOhUw2CAm7CAEwoMCVFWwjCIZFrumtmfa7P8PwhC655sQAgQXVQAoBaGkIYIAs0JAACQBQuKI4gtsnHWetJgyoYW5N8Tx50o0ZknrG1+9AETxCJZv72c9qgzby+akmL+XrDR0yXRFuvb1itQvQE2tNoqSMZLhZtKH8kmnNbupKGkxiP7TShIcmMpKVkFscEEYGcAQS9zkgVhwh+DhJKSSZNb0FAXVDorBO00g2Iu5G8EAxGgRARaZYgJZLkzJrx9hD8c1jpgUhFgWTmKXgbgQYmAGoADWE0AHUMCMAoSwEEiOJXpjYwkM5bRrO21X9pxGFvxm2KXi9Y9xY0v8AqnV1Yikk0TaY7bTTULIJdhYyoLsJAlw0MomUcOJ1wisxEjVt5UEIvEUFrEpU2kBABMl2M+zSZxpFQaQQEIDrSFlkgWQReoIQVKi4gjwg8VuamTbrt+BHN4NTR23j2qcgW0TYywkOMgkZoxQD4zg/WfqSik72Qsx9mmXm20VXMlwLUXYZbwMEkYi9rJbgo4o1QsgghccgiMSTenI3gBgERFhYZum82qfIZ7Dsr5RRdM8RNjJmPWYoQjywXGyhhgFiNIVsBYgYFcBVgsSgKViA0ymkpxz9zTQBvesxm8Z7zmGhHH9oGeAroIfSjWJMMJpgN4VSaTeMCiWXRT+uM7/gESSS0fsX+60MIoLgsBOuQi0DlamhYDfbGfY33oBCXDdeer1CpssEhLovABgGJuCXaYLAgBhBaCWd6ZkRsrx943oZABYzYY3fhr/R689PLmuTz9eeTy5rLC6uc9KJLqbXXvZxPxq4rWpLed3Of560gOmEIuHImGQKNmFXJqRw8/AkZWkbAxgXFgtLBJmmEwUKQyys8x89PwGKGYtY9JvnYH9FMQhXfeROO9ovxTDZ10pCckW4yMuNcUiwALYQVLeUBmcMFQYAlInS8+enHP8A3Iafxj7PWp0LJIg2BJhgkQvJvQgNzkuIBqb+etXXcz7PxU13HxbKz0DFT6LzTmBXZuurvz+BBsItyFPJvUKEbXMtDuy22zQQkWJv1H+UJGZjjMEl59aYeSkF4ViTK5nMsXpgEYb7Pf549v8AucrQm9p7XJ1523MYZRusz3n+b1jwkwmCCTmIvZ4mr73dCZuzEi+fFWISTC7CjrZdaG4wEbovuvMzeZ/AzU38uyRr70TSSIxuHoz16Usq71B3XH0OONKJFGbbo22vPONaSKLattP8mP8AtncgLzLaNvb5olsS0tscfvmnJIlBAyMC3NrdqugdLs4phgrh5Vp00oA0QnPmZrP4DAWFK21s9utqBQLAtSwBm49Tyq0zBM9widM00lEgLtyMPF6naCZCzJFFwbrdu6WJlNky6F0exe+LzRfF+l6QYUnaevw+Ok6b6edNiWN9POrLyFYi91i39pogzhYYm2kWwspBaFQgA0SCecT570XA5TO+sekf7NO8AilBKGfTtvTpyq7HWl67/rwk0v0+cebUDMG+8u4T5zQyY5xHM69t3vH/ALESxaewb9MW03alSgSLKksXcFoNoNLSZdYnVvaV6WvahcwkAjVrO9umtCxLkYXJiFuCRMTMzipfDECO42W172e1GMDOgxqWtv61nASaWZjb7fPhmlJJNlWzm/t0wa0ECd5h3zMFpl9eYoY21NFMTHEGelWyNAaUyLMElyjQ8QACIMsMW9LpB3pOjDneyt/vGFq+qeUftpJ/wfcf/dIjcuCTReXYb4P4mu9udJsYFOClmzIXzMe7i+utRwZJOKwBXOQEAibQMREC1zLRIFXhEpHtqBhA3SWd3eN6Rc1UDAsoEBaZiPalONLKJMy0MhvE3YifFYpwlYFg3wxmJdLHpAAAhDBJf4owIfAxE5S+fSmEC2SDqnv9vUn3nFSkXrBswCr2CaYxdeTdoyNHMjEXEggwsi2tpLZ+7/gUaGEFGiMi30YobRIMKW5DdYsZEWIpaaEJJZVETsxHS+7mt75cBJYAp0nWomuGSEIIKZi+67BJRUGmU3E2J0c+1SAAIiZEjXje9uPG0eIXEgiZlgbxOhcrQc8jKKG91nEetZrPHO1RMJcDE1LssTBGzThBGaMGAE6izAMsoI2M411nXN/u0STQv3ZI9O/H4Nmic0WVqm4oNkyMxELzaAAEsTLhemkYDhpWWQ332I5Olym5OmJFhG0lrzxw0MMmSCvdEbzMYaTw4Z2lnXvbXmPGUAiK3Jj9x0LUUAgDLiwieZtfmjUJGUi9s56UmTGnScVIv0ZemETNsvSzUwECVZkWGxICxRYtiRHwvemZzIW4n/ND+R+CAgsTadmPaaMCBhgaEEkBCTkHBUJbyEQUScrMSzEvWiIG1+qXTDoR6U1QXIF050Z1tQfuHBMWgnpBsds+CR8ll4JozRJsWdIDoOO00qSgBcMGMwz19709oMADIKLYbpaA3sthpAgErBsWdpxKCA9mjib5xf8ACOHWhl5Bjhm0/WiRSvLzc6M/2mYKEDCaW4vlqDAAWnac7GPKMoZKYAKlATMS89omiBIsbyFwdG+s9/EmIiJm0HvEPTWiaQxcSGy5ny9al0EJQriiKyaMwIjINOkCVcV6/Q8qSoLmJzpdefpem4E3vBdmM34v/wD2sSlcH37561xerQBg+/eaEvrem1Y01b/GJ1Z0DTwkvpjmoPb+412m3Ohk6lcH796YljE26f8ACdLOmp+CMk70pwevTtvXSpVZazen7KTiFHMfrn0/Ud30+8daY4Xy0+Y89KtHrr0Kx7/poydTwSVSdG18xa2Iv9ykb9yP+BC2tpUO3/bOjH308mu18TmO7CnTmiee8frr6ef/AJveez9j5rLiT2t+64vUocmCL6mlWo2H3KQF/n3rY5zbFJGL/WhkmgKHEfFRDbR1j+ekeGOf8wezb21zOn7aRQzE9vpSKHPgQwl9bc72fsVYugv333eax/71He9v7WUaqeh/aEsYzP8AcR5Xdqy9GeK917lYnX9Na+/6rJ1+/NYvX9FIJM4++VCITZgbvfXw/WO82VmdPmg3RbV5/J5lZ+/u+AurKDSyQKb8NuacvX/34OtDOPBX9z73a917lGTpf0anF9Wfv9vSDn7r+qALd/8AfLg4rE6/p8XaGJLGL/fuvhbZrPzUZX393+nbwj92vlZ+fOtH3U/Ay3fOuR865H7HxffWpZmbvauR86FMVLd865HzpVyz9+9dfCW751LMyzvrUt3zrm8oKVWVV5qDV9/euRpVyr1/Ao8jSJM73Ij7/tOQHUevt/0GJn7962rH4nDGz7X9K1Byvf37U9yMGFyLEdcMRrQkjoxQbLaZv6fNNmIfLHXwhiYY3pSQwRo/bdNzmpSwTd1jfr4GpBI0d4+4nrhYJqFwLTbNXnHz5UGpDt9+2axm34HH09lZPV969Ko3mtnrHSsaiFzKmVd1m2kcFOMrISQQSRY27T61aAIYVvBlQ9J0cXhq1Ct7w/rFugc2tTsXWPOVoY2aNmyu2sdfalWHAYDYoDEEYIN89X4maJBi2wfe7LzWIqjUS6G0Wdc80zhspIEgN42G1EQJI77UmoQHBHnDc4e9GFASVFpImYsYn0j8Dh71IbN1i3X7GaWKESerpHzEBe2kgWsvW3lSm0G4wTECP1mfRBoNTFziDWndSaTOdYfuKmokUyAYCzMWnGmb0CNsSx0Y3ol25iOyE1UsxrfpSsaacnHG3FISZs9pvpya9vASEtpxpZM6F+84q4ZAyYmQG2U+cVg6vOtSbDZjyt+qsjWTsCcZVv8A1PwCEMn3WaUuj6ce8+dZQYxODoYPAIBhCcJjaJxHHzQJMBsAX3t9ilnAM7g+40miw4DezBcvSKRuYdv1x/b03Z1z33+9qSAshYnbac0zKDvb4j0pcwOhB1gt/tCxMylEExmEY6hRkECSwAXtcg3Y5b+GbQGYbgo2bP8AjvnKp2NDpt0/DQZi+/8A+UblnPPbQm2aWS8x5advyUBgj/6TFJqhg4SwSwid6EQ8MI2WGdkXP3p1YpTgSLgAgiDPgAM7UIGXQAJVQM0jG4ljVOqYG6IQHGeYuXCRFkCIEmY/Ezucx/ZwWCNAVkMSlR8eKDbmpcOc673zqSZpoI0gLuasiQqhgUhBVHAi22cnF1wVZc/cH2+kDBfZFIvRDLaYxTctKqLb4XTgKCBACwSkW6C3rHkjJZwotcjg+lvIwlulA1rmsQ0IY6RZklBQBUkehMdYkw9zamOqgIuwsRuAgCUIEUZzwuiEThgITCB6sNWAWEkj8I0UcWJCJDi4wtMWrVowyqJyClK6LQwlG4zBTrAXUtSrww8iImRLYLzsHCR4Du/rVa1+n96I2i3W3Xq90pDEMkgUGiFFqWImSzJQ0ayYluqtKhjFmL/tVCSIrLfkDAcBPpM2SRlSnq8QEiWoB6QiSDGck2CFOCAwClCiLCGmICoGV4WGKaMno2mT0gKLYABX/8QALBABAQACAQIEBQUAAwEAAAAAAREAITFBUWFxgZFQobHR8BBAweHxIDCAcP/aAAgBAQABPxD/AMI07mUlpO/TFDlDzQ+uCcJ5I/R/WllL26/CkOQQrUId/LK/gORgiwpCVDYjeTN3ZHE1A+6M63WM5qakkpoOtjzpjwIfoejJw+nbEnJ8Hm8SzfYxcFldO4qYPHTxct45UGDqoAR2cm2mbmzMu9DR9D3gEpw8Xqdzon6UlpO/T4MJfTjdcBNgA2gxVS0xQw7vFGC2MjhJzq4mKH/WmAW2MmK6iAycpnHADlw7JrxiSbWCR8cSaZK29RJgIn+dR6it/rzNGUwaPkL+ACOuM0SEBqMb+BIhCyYos3deDFJiKYGdTh5lTeVAUUZc1ZkSKRdAwMYERDR4czVllnn8FPUMDVWrn8mQBUMZ3yxTcjnqJbQotqYdMtHU64uLvgnETbz+BDn0vj6b+nAc4WgXfS89vX/Jc0cPRL/nlhcVO/5N86bjsU86TX8nh01eHKjs14+vrx5cTXK4kF7PGxQ1gHPAsw0qHByLbMQTxusuCkO5piXWPxbWh3NonKqJRJ36fA1D/RcNY/HFAAuB+TV32tbeVjsKZ2DuSoaKBzAXDcBNyjQTiiwHvoVwpCHY27CXvdgUIUOpUOXV26Q6nUrltHTAVfp9+PCa9Jj8DXmfzC/PA5u2roXtf5O8QFeKlpNdLwJyjovlibXrA3aqzp1RneOluGVVd6u9Kd0ixTzRwZBCIbasAXu0DupNzEB6ZXioLw5s6siY4KBse6OdgYG9RbjaXoR4D4CgFTSvY1avabfDD1INUGZu9boJVkK6bIcrBRs7URV19tce/To+mIAuLELyHIFeQ2ZmFWAWqU6t6XCpMSBBDPrw6eWhqYHYJAC05zXIl8PHGceGcPDDyQnyePoyyYmTgvbOZa1wdiQaorWyaVx/qIpzTBe1VjXCbjuVedcQZa3zOnz35eRx66wmyWFA7ZROBqqbMeIMeMVslCosNCNKbGnRO4xjvh3b8BBxdm76tyyHSAWYI2UVRZZHBWf0KcyvpwLCTgoFq648fv8AXwx1piEP+4HV6EOAtV8t3yuzGYEfKE7GuFovvRhQ3vB1gu15sggNBUgC8Eht2Rehxl9yDho8xfmaxT7uRqAAnF1jcqi1D63f3crwY7vnjGQneafFpUzqLj7vPjrw1Ye++c8qRfDDwMB7lJRksRyXJZ/g+EPSFKBoDgQxa+ABa3xQT2la8aSXWDiOErkgAYBmd/G7+H+efDxzlE0q0HLQQnWnuJgo0l4QoUWm5uXjPdwlyHncX3e7i3gPtnjPdwlyHncX3e7iuz5YCgHBCbwpYf2TER3xpry66yD02DjvU/NzUvXj55oh8RQAk1Zt4fA7xvyFPtO5tqqHm9Tr4/v1VZDrx6421bPtZnRWDbyuVw8mByomW2gFtzjfTW/Tm9tXH5RQcuaYMVxAFC/XGYagnvm5xB014synMff75Y7fmPr/AAyuhPz0xB014synMff75Y7fmPr/AAxXQPXf2wKasJNiiZ1B3BFlTJuIsAQVBeCuqeqR8uPX53JfjMVHZNrjNyCiTGaEI1vrkYVLsIaN3vx79P36j+L8+/hjrF8NjAvmToBbBRAUjWgVqljzavXDHSyd+O3Cp7Yc6B4AJYrKvxcY8O4XtAtMHIcs25H3v1mS9/QMrqfx988nz/rNuR979Zkvf0DK6n8ffPJ8/wCsTFYm1On9emEGJw0A2K5T50uWdsO5JHo76fPtxhoH0RVP7XHJnLXjekKCitoiUYr5+Xr2/fhZl2+mLRKSJWWTsC+6BgNcWgHAXSgrRAUczwvHlx/HPXAswqhomJdilhtkYvTb88jsBEhF8/u/vI5qPrfljpyvhv8AzPMx5/d/eRzUfW/LHTlfDf8AmR3fPKRlAFKsQBbwErCcmXqISysZQNFYBy6N9Pw89HzwELF+4N06BBqgR7Lhr8wBMgyo4Uo0z8T4/v8AxgRlhEEaQaqpShnUFpi+pCyGBLBg0BhjW+ps+T/TrDRBn2khRVPhadwRYqkVC1eGfkJXVjvSA6Y68HT2dc5308vzeeR7mbGles3fz1mcIvsX6Z308vzeeR7mVLeCpCgFdeBu8TfG8gnVoUhL4FOxTHXGVsQKj18keATZXTo/f89cqpf2uhLDC12vTKFusJXw7ayD0oGqAQ300nmdunhiDlxPTfy/PbBLgD5/npr6/uxUdzKlv6KBrhoSpUIAyesrwBuRrPvdtK3p1fTlj34wCiW2IOoQTxDkcJlC3wz/AFyQGf3z5i8BR08GtEvgTw3c08qJ46c79xBzhblGOmuW9nuZXQn56Y13PLd+ZnndPYepAd0BtmXNnQ2giw6uXQ9XXOU/Ud6L1O1BwWR2AjzTARPAM7LS/T+uPEcW4Y+OvrilnoMljxCGdTYaKDTYuI2JdswByM7oYlV3vy+2ec+b9pgBo/eypMGVFDk4xPgFveUsv1RDg15kgKWgpsnkEBBFMVRdR7dAz2CM+08EmOcPmB8YAPWDnCKpQ2xWcX7yXSbNPIP03Yw4ZEYi4zs9n5ffL7+z7MHTkDiOFn421yAsKuSqmkKFWBH30UI0Rx7WJFnQb3j3cU5j5374NgDwga52Qy7Oa7wijgZFpZVms6SQFUqBxmgRYuqwIQ6fABYJDYXn87+WVsPcByQAmlUxWzYUZ+Y/T8w4WFRV/oMwzmMY+sS0kfVGnGId19wk/FuZiCcUccSkxmatBCLzb/J+JFZJz008V+eeReXjnft3/jBEURyFFiQFSINbHA4slRiaRbTxXr/eX3e7hRyCc2E5+z7PZxZfGK8pmVpvFTNsEOThItk49H56oEj2Tm/TU+AoOnCsz9GRdkVeBQjDl67ZALfkeXMGdy6pg71c6bCnXUihY947jNfrX2vrLs4dwB1K8VLkZuYJN+7VBXOBw1qJDHd88432Qvtl0O1zP9/w+OIWFU5CS28G4Vm9eVOnqJ9cjqQ1vxQTtyIncROf0q+/EsyY9bJGff2FaNms3ij0aCgzooiRDNDgBDj4EgAR51hAQNYZBlJS/k9uYXcrm8Ea0/tgAlHuZfAH6KjhyqWdAELCUHig6rAdGmt110MOnG1dPN1ezR7bynifVPzyy3hPT8uMbkZW74PczXXXPMeeom7FBz1R2UOUxaHYDeF4L4F8heMnlUF7V3b9PKKDVmjf6lb22dg9l5VLiPyyGxHHOAfn+/BEBQN3j15+1x8oNmAeWJrBWSQkFriIG0IcJebnWAI6PcHME6K46K/eBtEWBRUIEYrEFuOWZubuugE9ifzgug3wX7YZIQ++C9eejpcbWewKtXMLNxg+KoW/KrpRrgAxNlOMNiNAcow3ol0jwgBMZUgg0kHlxD++nwYCCmN2Xrvtzxy/nYD9Td4XcjO450eTbSdTsP7sXO+6kpm3V5nelb9csg/qY5u/whmn4L/jhdPlMHfUZ2UN/wAbCA9hI7/9NzAyeQ45chJheE+TDo9goidAHgMDVnGGgAOIfn+fCXkA+ZgwPqa/kdfwwRteiPZ6dMSQV4ne8H5yXDIrzu3+H5zi4gzuNvy+vXChI51p26cHr18sDgB5f/Cgb69ZGEzoAhsM4H6Qm5eXIFYYMFTdikot46FL3kIAiZn/ADVOAaY0yQMpT7GXFwgevJeRwCnwifgRQsSixKUoxGdHZ13hEBF1dwlQ6hTZTfOG5eKw5kCCwgmhTJKPZBwPqoQeOxKMaS9qvE1zkoQ7ZQ7xS1vQpxTrKCgh0aQ0/IQ/Q1yTta0ZWFBnS3kFE6l8LIdngiVuSb4+c1e8vm8vwBsEZQ44gd09jgaMfNd2zU8c8CfbyakbeyTEkGT7S5xQT7Ag1ncs4xWyQZGsGzKCx4tHBL6wmU2oQvxywCWQB0iin5oyEukpC0TS+yxCsUzgF83/AMv1xk6eb4/z/n9GTBFCZErVGACbbiQ3oo8vRaHWLRxwAk5K7UcQJIQ9sbUDtOPAkEAQDnK5iw2hBhywbAeSDxix70MSKjcGSuBnYq4WDniBIFE/6FLu+r9ODAhvv+3cMTVP84QqsNdBA1fszhFHbCrGELGWWL/IeuBW4XYsDElmxNAiNKSi0TkcINIpEYhkICxo5C8puLgC6eVnBTQxJaFe4yCsK0fwAUQMlbuDTVPhBBNzdXLzgXyugxcjNzDmLQsHDaAE6wYf6MEHIUHGFQlW6ATrFoqChziIZN9iriRJQbAYLFQWQFQgVQKNiGWUfdWsEgOyXIomWvub6ONRGoNrDtxrDvH1GZJIEboa+cxFPAMAg26Rpt5/fmtS6XrtAE8rmUWwZNvwACJqjHSUH5m01PKzWDDzKi/RiVzkkUB+h0iD1wQDPJKULaF0MsNaXDtiKi0b3gTgbd0DoYT8PD5nuBWG124cPJwaBNaFPJUD1XKMtGEBARpcjxj/AIBWEYWG1z8r3w5XWretujz8M2n0F8HgfZ9n9EyQO/ujj2CHVDTMkRaK1ALIECm2osrTXN2Z4nKKu8avSmVa3bXq3r+/mduo5kjTFwkXpiSWqMwTLqkli4TJh8DXaoMidOVo9PBjCJbWrh4hNBCQpI2AiBrQTjEbpb26GCePTL31oJVcYIq58aIjX+XgaEEwgVsA8BWXqbJsylJz4XD/ANevbNNS9EKtaAbXsHLowrxSvajfeUOAi7NIrvqKrHqKCAdXlBDTN3rw5lFJh1nndEZajx6Il807zEAoeIDtTa//AI+lZuQ7rwAFfFa7oP6rmAA6lY+vfBNVsH7wFEP0AfvwCFGUfBp8y4ljteItHNi5XqmjD27Q9HgWFYd4MPWKAS2dI6uILucUi4y1wJMrdGWmgOKwaDuzDh8MjQUjDYgZiBSBRNE0w7woJKbK3F9zajjohLhqVcHBjDThDiu0HEaoRIIEYsTGSgJtgNmpkigN2YkGYHDqRwYj1hKUyixZcpXT1Evpi0lsfIQkniDpvgLMU89TAOF+5RyDDsKXkXAfkF2r70LXpsxLFDDJcD2t+VAAABAOAOA8D4BPuYQVljkIB3AIoItRZQAdUgHLm8GxioWQ3sMgf8jybdbimMUVhik1+fLtLOWCsQIfCOL+L9jHgVtpBDJVRXbCMbl4BLZuwgUxekmlP3EDR6icGECERVcDO9mTcw5QmzjsKamwKTYYbb1mQqR4bovhhXuSsDDroNV0ZME0S/MQCIKIiKY3ErKwkDlAAFXTlqs63LQEQY5ouL28i5sIc1ASi4i5aEfINaJSW4pXyhzq3OAMXVzbdgYlqy4Khh1TJuXZ8ioJBqzocQgoUKwDaNIBRwjVje4oB+N0I3JH4Hr2Ro2lpBb6A5S4KT3DGktjL06dZNJa66GhivMZKWvOkAgHCqiV45d8uVZRVQCKYHuxxoMFol6CyJ/8NIrqZCFM1jBaj/DwuNbcwhqv7Un0fTbnCAsjzDqw8QUqJgxpcQLKawBFCkQ8u+bWhBiGBGFNuD/hRkxBhKXwuxh+bjgYIOOh/wCAX7ECcgawkZdoXsjhf2K/Aih80UDZGUjzo1hk8/GxkOPjVjjWNB1+XLES8duWcT9gS70agkc4FELwxanhFKjE0Bj2GM3bZ0ImOUw3LQohXcAIwHs9IgC00FAg48iKVvUPmccAHz4pM5xv4CsDNqGVvpwS6G1aFxwxbOO0L4xLBXF6UaxyXKtgsIpCoheGVxgRjGwVhEmX1Y8DORxMycJt4yWKDA/jMJvsUsBiTfwF+/kNjFEtWaLG2dDB5q4oPWGOWItBAkcLdSqLNYjnfw0cVIBAo4l9DWuzG2QmQAE8kp1cYaVQnTNk+nr/AGA7Ksrghh2Hso/CNZcBGYKbANciYBaBbahpFuAgA5yChVx/UcUt5ddVRwEXXQ+DCJiqS2nOPF1y0Dn1GTYoqXY7BM1kwBBsKqlyjuTVDg1mvYKDgBATAgDgDoEgHTWF+MqfJecIvBrD7HQuNry9nKLdHw+vjqyahkWEcqigNRkkTqcCANh/9i7KuWUAhQIq50BSPqR9oAfa6ISpBcJaaWj9G+SxlxHkwpuVMsLgiFWtcBt7eDMLTTgQvczTCaFT4VCuvYpsy/PIxnViJTttbdUHEo5F7t7KzetOIlG3eJXda4y5kBXMeLZdLMghmfWxLaG4ICoWXYhhXBRVzOKxksCmTdKlw9UQcGYg04XJWrcXEju44iRzIAifEBPfP/Caiu6QoWStMZt7WjhWR/0AYJw5nWBRAvhoP5pDm2UGdps4Ja5IoP063wNdOWoNd2dQ8lCzGryFh9maK4w7DWw5VrHcaBLuoGW5/YTC4RX0aATuCBxgAwAYJHQOwXCBipNgy2goAHo45p0IDOIwr2UIg7s0VpNQpIiWFA45hUoJ6yQD6gZAomT5TYyh6FyYQZ8BKnHu7uc0rNA1O+Yp3A7DF3GAKiVI6Q/6P//Z;" vertex="1" parent="1">
          <mxGeometry x="-10" y="20" width="80" height="80" as="geometry" />
        </mxCell>
        <mxCell id="Tsn-wMp8jWEcrMPQcLiN-3" value="" style="shape=image;verticalLabelPosition=bottom;labelBackgroundColor=default;verticalAlign=top;aspect=fixed;imageAspect=0;image=data:image/png,iVBORw0KGgoAAAANSUhEUgAABQAAAASECAYAAAA7sqKNAAFExklEQVR42uzdeVxU1f/H8c9dRkUE3MEN3BfEcl8qrX6VZbbYnktqWpZlmtm+fNtNMzNz33dNTc02rcxyK/d9FxFRFERRRAGduff8/pgZxLIyA5wZXs/HgyIChfcM957zmfM5RxMAAABkO3bsmH7+/PlC553OQs7zTsf58+cLnTt3rvDp9NOhp0+nh54+nR565syZYllZWUUyMjOKZmZlBWVmZgZlZmQGZWVlFTlzNqNYVlZmkbNnM4IzszKDbNvWNU1TyrK19DNnQkRENE1TlmUZZ85mFFNKad6PFQsuesYwDMv7sZBixdI1Q1dKKU3XdTuoSFBmcHDRs0FFi2YGBwWdLVKkSFZQ0aDMoKCgzKJBQRlBRYIyixQpklWsWLEzoaEhp0NDQ06HhoSeLly48LlChQqddxRyOAs5HOcLFSp0vmzZsjaPNgAAQMGgEQEAAAh0ScnJZtqptLD09PSQtNOnw9JOnw5LO5UWlnY6LezUqbTiaWlpYadOnSqelnY67HR6+pNnzp6RM2fOyum002IrJZqmi4gS8f5Tef9kdcm/z/05Ko9Gb9rfDOC07H9pOT6mlC26pkloWKgUKxYsxYKLSWhIyLiwsNC04sWLnwoLC0srXjzsVFhoWFpYWFhaWFhoWlhoaFpISEh6WPGwtIjwcBfPIgAAAP9FARAAAASE3bv3lD6alFQu8ciRCikpx8skJiZWSDxypMLp0+mh6elnOp89e1YyMs7K2bMZnqKeJqJp2RU9laOyl/N90zRE81TUlLIvGj4p+89FPvtvCn/qXxYFNe3vh2r6H/6/puf8b0/hUokoUeJyWdnDvwtf5n3fUzFUSpRSomuaBAcXlaJFgyU4OFhCQopNDS5a9GypUiVPVKhQIbFM6dIpFStWOFwuIuJo6dKlj0dGVsrgGQgAAOC7KAACAACfl3jkSOEz6WeKnTx1qsThw4crHkxIiDqYkBB14EB8lYMHD0WlnzkTomy7sdPluniFnKZdtBLPW4AzdF10wxBN09wfU0qUuIt73qKet5Cn8molX34P+jxVP2/R0F0sVKKJ7s5M08S2bVG2LZZtX/Q1F7KUHEVSlZ1jaEjIL1FRlQ5WrVolLioy8mBkpUoJFStWPFyiePGTxUKKnalQvvw5nsUAAABXcSxIBAAAwFfExR0ITUxMrHA4MbHiwYSEqKNJSeWOHkkqd/hIYs+EhMPZBSn1h0LUnwY4mia6pommaxet0rMvUQzEn7PzyrnCMGeWtmel4KW/7sIKQ6WUREVWkgrly48qVz7iaLmIiKMR4RFJ5cuXO1KhQvnEutHRySQOAACQD2M8IgAAAPktJSVFOxAfX2V/3IFq+/fvr7Z3776ax1KOl01NPdnxROoJOX/emb16T+VYiedwmNltuMpWAbdKz28HlDlWF2avLNR0cTpd2f/vQsu1+zEtU6aUlCxRck6ZMqVToqIiD9asUWNv1SpV4mpUr76vYsUKWaQKAACQi+M1IgAAAHnl2LFj+slTp0okJyWH79m7t9a2HTvqbdm87dqDhw7db1uWWLZ9UWFIPMU80zQ8+9cpUaKyi30U+vxsoJljJaZ7H0X343xRq7a3KOh+8MU0TSlTuvQP114TsyUmJmZ7vZjobRUrVDwcGhZ6uny5cudJFQAA4ArGZUQAAAByy9p166rGHzxYOSHhUOSBA/FV9uzd9799sbFi2xcKPH88IdfQ9X9sL0WADUA9hUHJ0Vr8x8fdvXLQ3U5s27ZUrVJFqler8kmNGtX31ahRfV9UZOTBpk2axJEmAADAZYy/iAAAAFyJw4lHiuzatavOjp07627atLnBwUOHopKTkh9IP5PhbgP1FHQutO6ykg+XOUDNuXJQ0/5wgrH74JaQYkUlPCJ8XoXy5RPrRtfZEVO37vaGDepvrFixIu3DAAAAfxxfEQEAAPgniUeOFD5+/ETpuLi4qus3bGy8YeOmRrv37O3odDqzV2qJqIvbd0WJbdkU/PDfB6zZBUERTTNEKVtcLutP+wo6HA6JqlRxfv0G125u3LDR+rrRdXZElItIonUYAAAU+PEUEQAAgD9KSko2d+3eXWfX7j11duzYUXfzlq3/O5hw2FNrufjgDU3TxDB0VvchfwexOVYJWpZ94Xnn2VvQvVJQpHJUJal/7TXv1qlda1etWjX31KxRY29kZGQGCQIAgAI1diICAAAgIrJy1W+116xd22zDxs2NDh869FzC4USxLHfrpVJKDEMXTdNY1QffHtzmWC0o4i4Oek8iVkpJpUoVpFKFiqNiYupub9asyZoG9etvKlumjE1yAAAgoMdIRAAAQMGTnJxsHD6cWHHdhg1Nli1fceOGjZsbZWRktHCPDi5uqfS28lo2NRL4H0PXRdd1EU2TS7WsBwcHS+NGDYbd2LLlskYNG2yIiIhIqlixAvsIAgCAgEIBEACAAmLL1m0VNm/eXH/b9h311m/c+FFsbNxFxT6hnReBPvDN0TasbJVd1M7eS1BEykeES9OmTd5t0qjRupi60dsbNWp4kOQAAIDfj4OIAACAwPXNt9+1WL5iVatdu3fXSUg41OXkqVMiOVp6ReTi/dOAgjgg9hS+RURcLsu9YlBEQooFS2Rk5IxrronZeuMNLZe1bdtmDWkBAAC/HO8QAQAAgWPPnr2lNm3Z0mDJkqW3/vb779elnU5v6W15VMoWh8MUTTSxLIuWXuASLrQMizidrov2DwwpFryqWdMma2679daf6je4dnNMdHQSiQEAAH9AARAAAD+3fPnK6PUbNzTesGFToxUrV/VWnmKFd1Wfoet/PikVwD8PlD0twyJyUbuwpmli20qaNW40rmmzxmvr16+/uWGD+hs5TAQAAPjsuIYIAADwP0uWLq3/7feL7tq2dXu9uAMHHna5bE/Rz73Kj0M7gDwaPGuamKaRfRq2puli25ZUq1pFrqkX8+5tt97y07333L2KpAAAgE+NYYgAAADfl5iYWHj7jp0xS5b+cuuSn3++9dix47fmbE10OByilCWWxcEdQL4Moj37BmqaLi6XK/vjSikpUaLEslY3XLf8jtatF197bb0tUVFRZ0kMAABc1bELEQAA4JviDhwIXbtufdMNGzc1Wr5sxYAjSUl/au0VEU7rBa72gPpvWoXDwsLk5ptavXPD9S1WNm3SZG2VypXTSQwAAOT7eIUIAADwLV9//e1133z3/d1btmx99UhSkme/sQutvRT8AN9n6Lrohi5Op0t0XRellJQvV07qRtf+5LZbb/nptltv/alMmdL8IgMAgHxBARAAgKssJSVF27Vrd53vf/jhzm+/XXTXyVOnbvS293pbDG1O7QX8c7CtaWIahihRYlm2+0RuUVI8LExuu/Xmt9q2afNdvXox2yLCw12kBQAA8mxMQgQAAFwdS3/55Zo1a9c3W7J06dg9e2NFLtHeS9EPCBx//L32tglXqlRBbrvllt7XX9diVevbbt1IUgAAILdRAAQAIB/t2r27zLz5Cx5YufK3G3bu2t1RiSZK2dmnilLwAwqO7DZhlyW65zThutF1Zt14Y8tlD7S7d17t2rWPkxIAAMgNFAABAMhjR44eLbRmzdpmX85f8ODKVb/1drcBXji9l/ZeoGBzFwINcTqd4m3/1zVNWrRoNvLB++/7snmzZqsrVaqYSVIAAOBKUQAEACCP/PLrsnrLV6xsteiHH4YnJh7NPsGX03sBXHJg7jlN2Htt8LYIly5dUtq2adP3+utarGpzx+3rSAoAAPzrcQYRAACQew7Ex4csWLDwvqW/Lvu/7Tt2drEsW2xli8M0xOWyKPgBuPyBuqaJYWjictmi64bYtiXX1IuZfvttt/7Qrt09X1WOijpDSgAA4LLGFUQAAMB/t2Llqjqz58x9ZPGPP72dlXVOhBZfALk1YNc0MU1TXK4LBwUXLlxIbr355v4dO7Sf0arVDTtJCQAA/O14gggAALgyCQkJRZf8vPTWRYt/bPP7mrVPi6fo5161o4tl2az4A5B7A/dLtAiLaNKgfr3Jbdvc8d3NN9/0S62aNU+QFAAA+NM4gggAAPh3Vq9ZW33W7Dntf/99zXtHkpJElIhhaKJsxUo/APnG0HXRdBHLchcDS5UqIde1aPF+xw7tZ1zfovkeEgIAAF4UAAEAuEzzF3zVasq06V3Wb9jUzXtSp2kaopQtLheFPwBXh2kaIqKJy7JE86xEbtKowYTOnR+ben2L5qvCw8MtUgIAoGCjAAgAwN+IizsQ+v3ixXfOX7Dw/n2x+x/640m+rPgD4CtyXpe8JwhXqlhBHrj/vq53trn9+zq1a6eQEgAABRMFQAAALmHzlq0Vp8+Y2ennX3756PjxVFFKiclJvgD8ZZCvadnXLE3TJCwsTG5sdcN7XR7rOKVpkyZxJAQAQAEbGxABAAAX/PjTkoZTp8/o/OuyFX28HzNNk5N8AfglQ9dFN4zsE4SVUnLD9S1GPt6l86Q7bm+9noQAACgYKAACACAi06bPaDN77rxHNm/d1kVo8wUQYP7YHiyiScMG1066/9575rdt2+a7MmXKsLQZAIAARgEQAFBgpaSkaLPnznvky/nzH4yNPfCAiLvN17Zsin4AAncCoGliGFr26cGVIyPl3nvverxTxw7TI8LDXSQEAEAA3v+JAABQ0MQdOBC68Jtv7p08edrUE6knRUTEMNwrYlwuDssEUDCYpiGa5/RgEZHQkGLyWKeOPR64r928mjVrpJIQAACBgwIgAKDA2LR5S6WFX39z79x5C4adPn1abE8rnK5prPgDUGAZui62Z+sDTdelcCGHPPzgAy+2f/SRWdfUizlCQgAA+D8KgACAgLdn795SY8dP6PHNt4v6Z2Zmim3b4nCY4nTS6QYAOZmmLi6XLbquS3DRIGnd+ra3uz/edcK119RLJB0AAPwXBUAAQMDasWNn+ORp07vO/XL+AJfLJUopcTgc4n0fAHCJCYKmiWkY4nS5svcLvK/dvW9169p1IisCAQDw0/s7EQAAAs2mzVsqfTFnzqOzZ3/5scuyRSn7ohY3AMBlTBRybJHgPjlY5MH7273Vof0jM5s2aRJHQgAA+NF9nQgAAIFi+46dEeMnTnziu+9/eD8rK0ts2xbTNDjYAwD+I9M0xLJsz4pAQ+5sc/v73R/vMqFRw4YHSQcAAN9HARAA4Pf27NlbasLkyd1nz5k70LLcq/xM0xTLsljxBwC5NXH4Q2uwrmnSrt09bz/9ZPfR0dHRx0gIAAAfvo8TAQDAXyUkJBSdMm16lynTZozMOndelE2rLwDk+QTiotZgXRwOUzp1fPT5Lp06TalevdopEgIAwAfv30QAAPA3ScnJ5tRp0zt/MWfuhJSUE55WX/fJlQCA/OPdZkHXdQkLC5MO7R9+qlvXLhMjwsM5Zh0AAB9CARAA4DdSUlK0+QsW3j9y9JgvT6SedE8+DUNctPoCwNWbUGiamKbpbg0WkeLFi8vTPbq3f+ShB2eXKVOGizMAAL5wvyYCAIA/mDptxp3jJ0z87sDBBLE9rb4iIpbNqj8A8AU5r8u6rkvVylHS7fEud3Xp/Nh3pAMAwNVFARAA4NOW/Ly0/tBhw/ts2ry1q3hW/DlddJYBgC9zOEzPCeyaXFOv7rSePZ4cdffdbX8nGQAArg4KgAAAn7Rp85ZKI0aOenbRD0te0TQRw3CvLHFPKAEAvs40DRERsSz3Su1bbrrx0169eg5v0rjxAdIBACB/UQAEAPiU2P1xxadMm9Zl6rQZn1mWEhGVfdokAMD/eE9nFxFRSuSxTo++1K1rl4k1a9RIJR0AAPIHBUAAgM/45NMhXafP/GLSiROp2fv8UfgDgMDgLQRqmiZhYWHStUunx1/s+/xkkgEAIO9RAAQAXHXffPtdi0GfDHkpLj7+PhER0zTF5XJxsi8ABNrkQ9PEYZpy3nNicFRkpa/79e0z+P772i0nHQAA8vAeTAQAgKtly9ZtFYaPGNVr0Q8/vioiomvu2xKr/gAgsGWfGKyUaKLJLTe3+vS5Z58Z1rhxo3jSAQAg91EABADku5SUFG3EqDHPfjF7zrCzGZmi65pYls2KPwAoaJMRTRPD0MSyRQoXckjHDo/26dmjx6hy5SKcpAMAQC7ec4kAAJCf5sz98v8++XToz0eOJolStjhMU5wuF8EAQAHmcJjidLpE03QJL1tG+vXtfXuH9o/+SDIAAOQOCoAAgHyxes3a6sNHjur16/KVfZTngA9bKVb9AQDcExNNyz71XdN1adG0yegX+z3/SbOmTfeTDgAA//E+SwQAgLz2Qf+Pnh47buIoW4mYpi4ul0XhDwBw6QmKpolpGuJy2WLomjz+eOfn3nnrzeEkAwDAlTOIAACQV75ftLhpwuGjw5cs/eVFWylxmAbtvgCAf2TbtjgchrhclmzatPXO6JiYJqNHjoybOXPmYdIBAODfYwUgACDXxR04EDpk6LC+C776+h3xnO5Luy8A4F9PVrxtwUqJJiJ3t23zQZ/neg2tXbvWcdIBAOBf3FOJAACQm8ZPmNRu+KjRC46fSBVdhMIfAOC/T1o0TQxDF8tWEhYaKj2feqJ9r2d6fkEyAABc5r2UCAAAuWHd+vVV+g8Y9Pq69RueEBExDdp9AQC5y3tyvKbp0qxxo7Gvv/Zy/0aNGh4kGQAA/h4FQADAfzZ4yGddhgwdPlk87b4iIpZtEwwAINcZui7iWWGua5o816tnt5f6vTCJZAAA+Jv7JxEAAK7UmrVrqx1JShm68Jvv3lZKiaHrYtk2Lb8AgDyjPFtLeO85a9ZuuPe6666vMXHChN2TJk1KISEAAP6MFYAAgCvy8SeDuw0fMXqCrZSYpvukRgp/AIB8ncxo2kX3oGd69nj6jVdfGUMyAABcjBWAAIB/ZdVvv9dKOXHyk6+/+e5t23avwHBZFsEAAK4K27bF0HVRSsmGjZvuatHiupqTJrIaEACAnFgBCAC4bO++/8Gz4yZMHi4iYpqmOJ1OQgEA+AyHw8xeDdjjiW693n7rjRGkAgAAKwABAJdh7bp1VQ8dSR62+IclryqlxOEwxenkhF8AgG+xbVtMUxfbVrJx0+Y7mze/rtb06dO2Thg/PpV0AAAFGSsAAQB/6/PhIzp8MvizGbZSYhi6WBaHfAAAfHySo2nZ9ywRkRf6PNflhb59ppIMAKCgYgUgAOCSdu/eU/rY8ZOffDFn3ke2cu+v5J1IAQDg67z71NpKyeq16+677bbW5ed+OWf9yBEjzpAOAKCgYQUgAOBPpk6bcWf/AQO/O3M2QwxDE8tSrPoDAPjnhCfHScFFihSW1195+d5uj3f5mmQAAAXqfkgEAACv+Pj4Yv0HDHr9+8U/vKaUyp4wAQDg77z3NE3T5Y7Wtw588/VXPqhcuTKrAQEABQIFQACAiIgs+uHHJm++9c7a5JQUMXSNvf4AAAHJNA2xLCXhZcvIe2+/1bxt2zZrSAUAEOgoAAIApP+Aj3uMHD12jFIiDtMQp4sTfgEAgcthmuK0LNFE5Kknuz3z1huvjyIVAEAg4xAQACjAvAd9zF/4zbsiIoauicui5RcAENhs2324lRKRDZs2t73p5v+Lmj9/3uqRI0acJR0AQCBiBSAAFFAzZ33R+v0PP/oh/cxZMU1DnE5W/QEACh6HwxSXy5KiRYvKO2+9fnuH9o/+SCoAgEBDARAACqC+/V5+Y+68+R8opcThMCn+AQAKNO+9UNM0efih+9/4dNDH/UkFABBIaAEGgAJk48ZNkXvj4sevWPV7L13TRNdo+QUAwNsSrGmabN+5+5YmzZpFz5o1c/P4ceNSSQcAEAhYAQgABcT0GbPueO/D/osyMjJp+QUA4C94W4IdDoe889Ybd3Xp3Ok7UgEA+DsKgABQALzy+hsvzZg5+2NafgEA+Gc5W4IfffjB1z75eMAAUgEA+DNagAEggO3evbt04tFjQ3/46edXaPkFAODy2LYtmue+uW3nrltvaNmq2oL5834fOXLkGdIBAPgjVgACQID6auHXN7z5v3dXnEpLo+UXAIAr5G0JDikWLB+8985ND9x/3zJSAQD4GwqAABCAPho46MkRo8aMpeUXAID/zjR1cbncqwKf7tG955uvvzaaVAAA/oQCIAAEkMOJR4q89Oprg1as/K2XKCW6poll2wQDAMB/ZOi62EqJaJq0uuG6YQP7f/hKpUoVM0kGAOAPKAACQIBYt359ld59+8UdOpRIyy8AAHnE2xJcvlyEfP7ZpzWaN2saSyoAAF+nEwEA+L/Zc+fe8nD7ThT/AADIY06nS0zTkCNHk+SRDp32zZz1RWtSAQD4OlYAAoCf++CjAU+PHjN+lFJKTNMQl4tTfgEAyGvee66mafLUk92feeuN10aRCgDAV1EABAA/lZKSor3y2hsDf1yy9CXvx5RSBAMAQH5NpjQte1r1fze1HDJo4EcvhYeH80ocAMD37llEAAD+Z8vWbRWe69P3cNyBg2IYIpalKP4BAHA1JlSa5lkNaEv1qpVlyOBBkQ0a1D9EMgAAX8IegADgZ75ftLhpx8e6Ho47EC+mqYvLZVP8AwDgKlFKefYF1CU27oA83OGxhO++W9SMZAAAvoQCIAD4kTFjxz/w5NPPrjmZliaGoXPYBwAAPsLpdIlh6JKRkSE9num1etTosQ+RCgDAVxhEAAD+4X/vvNd76LARkyTHxuMAAMB32LYSQ9dFKSUrVv32UO/evdOWL/t1NckAAK429gAEAD/QrXuPj39a+stLmojYiv3+AADw6UmWpomuaWKLSOtbbh40oP8Hr5YtW9YmGQDAVbs3EQEA+K49e/eV6tO339DtO3d1NGn5BQDArzgcprgsW6Jr1ZLPhgwKj65T5xipAACuBgqAAOCjli9fGd37hRd2HD+eKqZhiNNF8Q8AAH/jME1xWZaULl1Shg35NLplyxt2kQoAIL9xCAgA+KCFC7++vnO37jtSjqe6D/ug+AcAgF9yutyHgxw/niqdunbfueCrhS1JBQCQ3ygAAoCPmTRpyt3P9H5hpdPpEkPTOOwDAAA/53JZomuauFwuee75fsvHjZ94H6kAAPITLcAA4EMGDhrcfdiIUeOVcp8iaNnsFw4AQKDw3ts1TZeeTz3x9BuvvTKGVAAA+XIPIgIA8A0vv/r6yxMmTR0mntMDbU76BQAgoCilsk8IXrd+413dunezVv/+23KSAQDkNVYAAoAP6Ny126dLl63oq4uIrZQoin8AAATuJEzTxDB0sW0lrVpd//mMKZP7kAoAIC+xByAAXEUJCQlF29x177Slvy7va+gaxT8AAAoApZR7X0BdZNmylb3b3n3vlISEhKIkAwDIK6wABICrZN++2BLdn3wqNS7+oBiGzmEfAAAUQKZpiGXZElmpokwaP7Z0rVo1T5AKACC3sQIQAK6CTZs2V3qkQyeKfwAAFHAulyWGoUnCocPyaKfHjm/avKUSqQAAchsFQADIZ6t++71Wx85dE46lHBfD0Cj+AQBQwLlcthiGJikpJ6TjY10SVv2+uhapAAByEwVAAMhHP/z0U6NOnR/fnZZ+xrPyzyYUAADgKQLqcjr9jHTq/Pjun5b83IBUAAC5hQIgAOST+V991arbE0+vP+90iUnbLwAA+AN3O7Au551OefyJpzYu+GphS1IBAOQGCoAAkA+mTpt+53N9+i0TETFNin8AAODSXC5LTEMXpZT0er7f8slTpt1FKgCA/4pTgAEgj40bP/G+dz/oP18pJYaui2XT9gsAAP6ed8ygaZq89fqrDz7V44l5pAIAuFIUAAEgD40aPfahDwd8PIfiHwAA+LdyFgFffrFvx969np1JKgCAK0EBEADyyOfDR3T4+JMhMyj+AQCAK5WzCNjv+d6d+z7fexqpAAD+LQqAAJAHPvl0SNfPPh8xieIfAAD4rwxdF1spERHp9cxTT7768kvjSQUA8K/uJUQAALnr408Gdxs6bOREpZRompY9YAcAALgS3jGFiMjadRvueeXVV5KWLlmygWQAAJeLAiAA5KL3P/yo58jRY8eKiGiaJoriHwAAyCXeIuD69Rvv6tu3b+qyX39ZSyoAgMtBARAAcsk7733Qa9yEySN0TRPlebUeAAAgN3mLgJs2b2nzfN/nTy779Zc1pAIA+CcUAAEgF3w4YOBTY8dNHCkiFP8AAECeyi4Cbtna5sUXX0z5ZenP60gFAPB3KAACwH80cNDg7iNGjRnr/W+KfwAAIK9pmia6psn6jZvavvLKy0lLf2ZPQADAX9OJAACu3OAhn3UZNmJU9kl8FP8AAEB+UEplHzQ2asz40QMHDe5OKgCAv0IBEACu0OfDR3QYMnT4ZG/Rj+IfAADITznHIMNGjBo/eMhnXUgFAHApFAAB4AoMHznq0Y8/GTJDKcVpvwAA4KrJORYZMnT45JGjxjxMKgCAP6IACAD/0uix4x4c8PHgWUopMXSd4h8AALiqco5J+g8cNHvsuAn3kwoAICcKgADwL0ydNuPOD/oPnOsdaFu2TSgAAOCqs2w7uwj43ocfzZs8eepdpAIA8NKIAAAuz/wFX7V67vl+y0SE4h8AAPBJOccow4d+2uq+dveuIBUAAAVAALgMPy35uUHX7j02CsU/AADg43KOVSaNH9Oo9W23biQVACjYKAACwD/4bfXqmo916bYn69w5MQ1DXC6LUAAAgE8zTUNcli0O05QZUyfVvv66FntIBQAKLgqAAPA3Nm3eUqlT564JaafTxTB0in8AAMBvmKYhlmVLSLFgmTF1clTDhg0SSAUACiYKgADwF/bs2Vfq0Y6djqccP0HxDwAA+CVvEbB0qZIyc/qU8Og6dY6RCgAUPBQAAeASDh48GNy+U5czCYcOU/wDAAB+zTR1sSwlkZEV5YvpU4MjIyMzSAUAChadCADgz57p1Xuku/inUfwDAAB+zeWyxTA0SUg4LD169jqbknKchSAAUMAYRAAAF+vctdunq9euf9pd/OO0XwAA4P9sW4lp6pKcfFz27N1TfOuWzYtJBQAKDgqAAJBDv5dfee3b7394k+IfAAAINN4i4IEDCc2feOIJ5++/rVpBKgBQMNACDAAeH38yuNvsufP7G7omlqUIBAAABBzLcrcDz5m34MOPBg56kkQAoGCgAAgAIjJp0pS7Px8+aoIoJZZli1IUAAEAQOBRnrGOLiIjRo0ZO37CxHakAgCBj81fARR4C7/+5vpnn+u7UokSTdMo/gEAgMCfCHrGPJqmybDPBre6r929tAMDQCBf94kAQEG2fMWK6Me6dtvhctli6LpYNvv+AQCAgsE79nEUcsi0iROiW7a8fhepAEBgogAIoMDatXt3mQ6PdTmWknJCdE2j+AcAAAocQ9fFVkpKlSwhc2ZNL12rVq0TpAIAgYc9AAEUWM+/8NJnKSknxDBY+QcAAAomy7bFMHQ5kXpS+vR98XhKSgqLRAAgABlEAKAgeqJHzwG/r1nb0zQMcbksAgEAAAWWbStxmKYkpaRIfNyBoE0bNywhFQAILBQAARQ4b739Tp95CxZ+YBq6OF0uAgEAAAWebdviMA3Ztz/u+j59ep9avuzXNaQCAIGDFmAABcrYcRPunzRl+meaiDidFP8AAAC8nE6X6CIyacr0z0aNHvMQiQBA4GB/BwAFxveLFjd98uln14iIaJomSilCAQAAyDlBzDFGGjtqePO2d7ZhJSAABML1nQgAFASbNm+p1L5j54T0s2fFNHT2/QMAAPgLpmmIy7IlNDhYZs2cVqn+tdccJhUA8G8UAAEEvGPHjukPP9rRio07IAbFPwAAgH9kmoZYli1Vq1SRuV9MN8PDwxlAAYAf4xAQAAEvOeXE4A2btrYwTU78BQAAuBzek4FPpJ6U/ftji23ZvOlHUgEA/8UhIAAC2vsf9u+59NcVfQ2DQz8AAAD+DafLJaapy8+/LH/h/Q/79yQRAPBfFAABBKy58+bdPGbcxJEiSiyLAz8AAAD+LXf3hJIx4yaOnDP3y/8jEQDwT+wBCCAgrV+/vvJD7TsdOH/eyYm/AAAA/2XS6BlLFSpUSObOml6lceNG8aQCAH52LScCAIHmcOKRIg892j7z0KFEDv0AAADIBd5DQSpVqiBzv5gVVLFC+SxSAQD/wSEgAALO0ZTjQ7Zt29GUQz8AAAByh20rcThMOXUqTWL3x4Zs3bJ5MakAgP9gD0AAAeXDjwY8tWLlb71M0+DQDwAAgFzkdLrEMDT5dfnKPh8OGPgUiQCA/6AFGEDA+Oqrr2/o9fwLK0SEPf8AAADyahKpuaeRwz4b3Oq+dveuIBEA8INrNxEACATbd+6MePjRDkfT0tLF0HWxbJtQAAAA8oB3rBUaFiJzZs4oXy+m7lFSAQAfv3YTAYBAkHD46PCDCYfqOxymuCz2/QMAAMgrSrn3A8zKPCe7du0quWf3roWkAgC+jT0AAfi9l1997eUtW7d1Yd8/AACA/OF0usQ0Ddm0eevjL7362iskAgC+jQIgAL82bdqMNjO/mDtQ8wxEAQAAkD+cTpdoIjLri7kDpkyd3pZEAMB3sQcgAL+1dt26qu07ddmflXVONE3j4A8AAID8nlB6xmBBQUXkixnTqjRu1DCeVADA97AHIAC/FRufMPbYsePRDocplsWhHwAAAFeDw2HK+fNO2bR5c/kD+2O/JBEA8D20AAPwSy+89PLr+2LjHmTfP/+laZpomiaGrme/eT+maSxQB4BAv/7/8R5wqfsB/IN3P8A9+2If7tvvpTdIBAB88P5LBAD8zcxZX7R++bU3f9A1TSyblX/+MtnTNU00XRNNNFFii8v114+doeuiG4aIUqLEFhFNlK3E9rR50+4NAP5z7RcR0XRNRJRomi62ZV+4f2vanyYkyn2h99wLdFHKFmWL2Epx/fdxhq6LrZQMGti/dftHHv6JRADAh+7LRADAn+zYuTP8gYceTUo/c1YMXacA6D+zQNE8k8Gck7uwsDApXMghSpRomiYupyWn08+Iy3VeNE333KZU9ufn/Nqckw1Nv1AgZHIIAPl5eb/wAs+frsM5i3s53reVkiKFC0lQUJAUK1ZMgooUEYdpyjmnUyyXS1yWS1JTT0lGRsaF+4bnz2XPX9/mHZsFBwfLgi+/iKgbHZ1MKgDgG0wiAOBP3njzfx+eOZshDodJ668fqV61itx8043P1ahefV+lihUPlShZ/KTDdDgLFS503jQMl1JK0zRN2Urp5885C7lc583zTleh9PT0kKTkpIijR5PKJR45UuFwYmLF+AMHKyclJ0ecO3e+qVKeVYGWuAuFSonD4RBRSmzbpiAIAHnAuzJPRBOn0ym2iOc6fIHD4ZBKFSp8VatWzT3lK5Q7Ur5cuSMR4RFJERHhSaGhIacdpsNpOkyXw1HI6TANp67rtsuyTNu2dWXb2rlz5wufO3+u8KlTacUPHjwYtXdfbM0ff1oyPP5gAkVAH2bZtjgcpmRkZMib/3v3AxF5klQAwDewAhCA3/jwowFPjRo7YbRp6BT//EihQoXkp0Xflqhevdqp3Pxzf/t9dc24uANVd+7aFb1nz75ax1KO9UhMPCJOl5VdDNQ1TXTD3W5GMRAArpx7tbV7+uBy2Re2dFC2RFaqKOUiyo2Niqp0sGbNGnurVa26Pzo6emeF8uXO5eb3sOq332t16fbE7szMLIqAPs7hMMVl2fL0k916vvn6a6NJBACuPgqAAPzCd98vbvbUM71WC/u/+dVk0VZKbr/t1o8njBv9Sl7/fUeTkhz79u6rsS92f41du3fX2bxl60e79uwV3TNJ9D5vvC3DlmXzXAKAS00Qcuzd591qI/tQDiVSoWI5qVc3ZsA118RsrVO79q5aNWvuqVSpYmZ+fG8PPtx+9Oq1654yDF1cLosHy8efRyIiY0YOb972zjvWkAgAXOXrMhEA8HXx8fHFHnikQ3pS0jExdA7+8BcOhymWZcv4MSMb3976tg35/fenpKRoScnJEdu276i3es2a5itWrmp57NjxW90TEveqFYdpimgiLpdFMRBAgWeahmiaLk6n86K990JDQlY2b9Z09U03tvq1Xkz0tvDwiOQKFcqfuxrf48RJU+7537vvLxReEPR5hq6LpZREhJeV+XNmFYuKijpLKgBw9VAABODznuzR86NFPy151dR1cbpo/fWXQb+tlFSvWkVmz5puhoeH+8QyjRUrV9X5dfmym9at29AkNnb/4+lnzooSEeXZs4hCIIACNxnQNDEMPfsAD03TRddFalSvPrthw/obb77ppl/a3N56na98v8nJycZNt7R2nU4/w4PnBxymuxX4zjtafzR29IjXSQQAruI9nwgA+LLJU6bd9ebb731jGCIuFyv//GbA73CIZVnyzNM9erz2ykvjfPF73LBhY9Ta9eubrl27rukvy5a/6G0J9p4yaRg6bcIAApKh6yLZ7b2e1l5R0rDBtZNa3nD9iiaNGq276aYbt/vq9//CSy+/Pmfu/A91ja4Af2CahliWko8+eOfOxzp1XEQiAHB1UAAE4LO279wZcd8DjxzNyMhgs29/urF4HqtChQrJtMkT6txw/XW7ff173rtvX8l16zY0+XL+ggc3bNj4hO15rnlPFbYti0kmAL+/NpumIUrZYlkXrnGRkRW/bXtnm+9a33rLj02bNInzh59l+fIV0R26dNth6Lw46E/jguDgYJk/d1a5mLp1k0gFAK7C9ZgIAPgqNvr2T+5X+m259pp6U7/7ekEXf/v+d+3eXebrb769Z8XK31pu3bq1ixJNbFqEAQTAdVk0TTQlEhERLtdf3/yt++65d8GNN7bc4W8/T3JysvFw+06u/XEHhFWA/vUcbNGs6ei5s2f2JBEAyH8UAAH4pKHDhnccNPiz6Yah8eq+v91YPBvHP/dszydeeanfBH/+WX799deYH5csbb34hx8Hpxw/kd0ifHH7HAD43nVY1zSxvdsa6Loo25Y2rW8beONNrZbd2PKGZZGRkRn+/DO+90H/Z8ZNmDzCMNyHlsD3uV9Is+Wlfn069Xmu1wwSAYB8Hh8QAQBfs2bt2moPPNwh1rsXGyuu/I9pGrLo24Xh0XXqHAuEn+fQocNBGzZsaDR1+qzOa9ate9Jb5DQNQ5QoVqgC8I2BvaaJYRjicrnc908RKVum1JIH77/vy7vvuuuba+rFHAmUn/XnpUuv7dKtx2bGCv71/PQ+Xl/OnlmjebOmsaQCAPl4HSYCAL7m9jZ3zdixa3cH2nr8c3AvItKwwbWTvl4wr1sg/oyr16ytPnvu3EeWL1/1wbGUFPeKQEMTZbMiEMDVY5qGuFyW6Loumog0a9p49H3t7l3Qof2jPwbqz9z6jrYzd+7e057xgv8wdF1spSSmbvSMxd993YlEACD/6EQAwJe8+/4Hz+7YtaeDYegM5v1xYG+4T5O8u23bbwL1Z2zerGnskE8GffjlnJmhb7z28kP1YupOt2wR78Ehhq5nF0IBIE+vuTmuN5atxDQNub/dPf+bNnlizNzZs3oGcvFPRKRx40breRb4F8u2xTB02b5jV8d33//wWRIBgPzDDAWAz1ixclWdRzt23ik52kTgRzcUz55TllKy+NuvyteLiTlaUH72H378qdHU6TM6/7psRW/vc9fhcIjL5eJ5DCDXmaYhIuI+2ENESpUssbRDh0dn3nNX26/r1K6dUlByWLZsRd0Onbtu5xnhf+MF771x1rTJdVu1armTVAAgH66/RADAV9zR9p7p23fs7MjBH/47IbUsW5o2bjRu/pezexTEDNasXVtt8pRpXZevWPnm6fQzYtu2mKbO8xlA7gzcNU0MQ/cU/jSpVbPanEcfeuiLJ5/svqCgZtKo6XU/JCUnt+aFQ38bM+hiWUrqxdSdvujbhY+RCADkPVqAAfiEjwZ+/OSOnbs6uvcwoljinxNTXTRNl+uub/FbQc2gWdOm+0eNGPbWFzOnle/xxOPPhIWFimeBjhi6nn16MABc/rVVu6jV17Zsadyw/oSB/d+/4+cfFz9SkIt/IiKtW9/yo3cFOvyHy2WLaRqyfcfOTgM+/uQJEgGAfBhTEAGAq+2331bXfLhDpz28cu/fE1Sl3PtPTZkwrt5NN91IS5aIHIiPD/ly3vwHp0ybOfHUqVMinpWStmWzxyWAf+RwmNmnjCsl0qJZ0zFPP9V99K233LKZdNyW/Pxz/cefeHqTYejidLoIxA8Zui5zvpjBqcAAkNdzNiIAcLXdeU+7qVu3bn+MU/z8e/BuKyXVq1ed9+uSHx8kkYslJSWbU6dP7zz/q4UTEhOPiq2UOEyDySqASw/QPSvabCUioqRFs6aju3Z5bHLbO9usIZ2LHTx4MPjudg+eOZGayv7Bfjx+qBcTPX3Rt1/TCgwAeYheJABX1eAhn3XZum3HY6ZpUPzz/ymr1KlVaxc5/FlERLjr5Rf7TZw/Z3bhfn17P1YuvGz25v20BgPwuqjVVym55eZWn44dNbzZ3Nkze1L8u7SoqKizzZs1/UjT9ezDUeA/LNvdCrxtx65Ogz8b2oVEACDvMOMAcNVs2LAxaujnIyYr285ucYL/DuCVsqVVq5bLSeOvlS9f7vzzvZ+bvnDBl0VefemFR0uVLCm2UmLZSkzTzJ74AyhYTNNwbw/gWb12Tb2YaePHjGoyZdKEfne2uWMtCf29hg3rb9Q8bdLwPy6XJcq25fNhIyZv3LgpkkQAIG9QAARw1Xzw0YA3baXE0HVadgKAw+GQ61s0X0US/6xC+fLnnn2m5+yfFn9rPvN0j6dKlSwhtm1n76MIoCBdO02xLFssy5Zrr603ddhng1t9/81Xne+4/bb1pHN56sXU21a4cCFxuVy8kOKHlGcsaFm29B/w8eskAgB5gwIggKti9NhxD65bv/EJ9v3zf5qmiaZpEh1de1pkZGQGiVy+8PBw6/VXXx775ZyZpbp36/Kcw+EQy3IXw3O2AgIIvOumt/XfsmyJrl1r1scDPrj9u4ULutzX7t4VJPTvXH9d8z1RkZFzOA3Yf1m2Lbqmyeq1654aP2FSOxIBgNxHARBAvtu7b1/J4SPHzGXVX2AwDF1ENGl5w/VMWq9QzRo1Ut95683hi79dWKb9Iw+8Kp79v9wrArlVA4HEYZqilBJbKQkLC5U3Xnv5oR8Xf9ehw6OP/kg6/+U6Wn2viCaaTgHQnykRGTZi1ILY/XHFSQMAchezCgD5bujnw/ucSksTh2my+i8AuFcAijRp1Ggdafw3tWvXOj5o4ICBC+fPrXLjjTd8LpqIZSlxONgfEPB33gN/LNuW4OBgebxLp+d/WvRtkad7PPkl6fx3TRo3XqeUyj5gCf7Hsm1xGIacOHlShg4b3odEACCX521EACA/fff94mZPPdNrNa2/AXIT0TRRSklw0WBZ/P3CsKpVqpwmldzz/aLFTUeMHvPslq3bOyvbvtAyyO8O4DcMXc8+3EOJyEP3t3ure7euE+rFxBwlndyzfefOiDvb3nuU62Pg/M6MGzOyaZvbW/PiIgDk1tyNCADkp+ta3fR1QsLhu8Wz6TP8m2nqYlkirVpeN2zmtCm9SSRvTJs+o82QocO+P5ZyXJRS4jBNcbpcBAP48iBb08Q0DHFZ7lPumzRqOP7Ffi98cv11zfeQTt5ofkOrbw8dPtJWY4zh9787IiJVK1desPzXJfeTCADkDlqAAeSbdz/48NmEhMN3655VYwiEQbohmqZJ7Vo1d5NG3nmsU8dFP3z/jf5E967PBQcHi8uzGpC24Ks3Oc355m3tNHRdTNPI8aZf9OZwmH9+M//iLcfneL/24j/vwt+T8+/3Pi9yviH/maYhSimxbFsqViwv77/zv3sWzJvzJMW/vNW4UaP1mggHgfg5pZTomiZx8fH3ffjRgKdIBAByaXxCBADyw++r19R4pH2n4UopoTkncIogStmixJYaNWrsI5G8VaZMGSUiw7du2z5/+IhRvb5f/MNr4mmVEtqC/9XzVv5QIPAeGqBs9wsT3gNY/npy6u6h8P4Jds7Ptbx/6KXaLP7LY/THr1WiLrzr/celv9d/yMObxR9zyPmz8aLN5fG2LlqWLQ6HKT2e7P5U965dJoSHh1ukk/ca1a+/4auvvxVN/4+/brjqvNfhseMnjl67bt1PTZs0iSMVAPhvKAACyBdDh4/oYysRh8MUp5PWxUDhcllSPCxUalavvpc08sc19WKOiMjri3/4af6gwZ++tGfvvodpC76Yt6jlLmgp0UQX0dzvu1yW/OmFCMuzKUrOQpqmiSjlXuFnaKLrphiGvsY0DFexYiFnQkOLnQ4OLnY2JCQ4PaRYSHpQUFBmsZBiZ4KLBp8tWjQoI7ho8NnChQufMwzdEhEpXKTIOUN3v1+kSJEswzDcHy9U6JxhmpZSStM0TYmIWC6XkZmVFaTruu2yLDMrM7PIhfezimiaKMuyjczMzKCsc1lFTqenh2ZmZAadzTgbnH76TEhmVmZQenp6yOnT6aFnz2YEnzmTXszpcjlsWzW1bUssyxbl+dkku8inidjqT8VE7+c5TFM0XfcUAt0Tc2WrfyyWFqTnnGka4nK563x3tL5tYJ/ezw6tFxNz9PVXXuaXMp/UjYneQQqBwXtfc1m2DB02oo+IcCgIAPzX8QoRAMhrX8yZe+uLr7z+k2noFP8CiHelS80a1ecu/WnxwyRydXz2+bBOY8aOn5Z+NkP0y1i9FlCDmD+sXvMWtLxFPvd/u0+p9hb0bGVLcNGiElIsRIKLFpWgoCIzg4KKZAYVDc4sWaJ4aqnSpU6ULFEitWSJEqmlSpY6UaJkiZNhYaFpxYsXP1WhfPlz/pxXYmJi4bS0tLATqSdLnTx5ssSpU6eKnziZWurE8ROlUlNPljx56lSJs2fPBmdlniuSmZnZ/mzGWUk/c1YyMjPdOXsydNcIlWd1oRLT1EXT9IuKglKAVg16T/bVdV2qVo6a/0LfPp/ee8/dq7g65b+EQ4eK3nv/g2ePHTue/bjAvzkcprhctnw2eODNDz5w/68kAgD/YexMBADy0rFjx/S299xvHTl6NPvEWAQG0zTEspT8300th0ydPPEFErl6du/eU3rkmLHPzF+w8F3xtLf6eyEwZ6uutzXVu3ItxyddGMjkeN+2bSlbtrSUL19+aumSJY+XKl36RPlyEUfKlil7rFTJEidKlS59okSJ4idDQ0NPl4uIcPIM+rPEI0cLp58+HZJ66mTJ1OOpJU+kppZKPZlaMiXleJnU1JMlj6WklD1y9MiTx4+fkKxz53MsoLx08c+9ktLdrh4oRUJv+73t2a/s6aeffOr1V14ey7Pn6ur4WJehy1as6m0YmrhcFAD9frLqGTtWqlRBvlkwT/dshwEAuJL5GxEAyEsjRo959mhSMq/EByDLcj+etevU5gCQq6x27VrHReS9xT/+9P2Ajwe9Ght74AF/aws2dN29ik/cK82cTnddzpYc++rl+FzDNKVM6VKLatSsvq96tWqxURUjD5YrH3E0vGzZ5KCiQZlFg4IyoqKizvLsuDIVypc7JyLnROT4X33O4cOJvbOysoqcPp0WevRoUrkjR4+WP5iQEBV34EDVvXv31zx+4sTtLpcru8hnWd55u7rQWuxwuD+ibFG28pv7hHtVkvuJ2fKG64e/9MLzgxo2bJDAM+fqq1q1Stzylb+LxkaAAUEpJYauy+HDR2X02HFPi8goUgGAK8MKQAB5ZsOGjVEPd+gUn5V1jtV/AWz40E9b3dfu3hUk4TsGDR7y+NjxEydmZmWJobsLL770+5dzdZ9u6KKULS6XnePUWk1s25ISJUpIyRLFpXjxsEnlIsodrVatyv7KlaPioyIjD1aOiornYAXfduTo0ULx8Qcrxx88WDk+Pr5yXFx81eRjyeFpp053PXHypJw6dUp03fBM8t2rO03TfbK4bdk+uUrQ23ZuK5HwsmWkX9/et3do/+iPPNq+Y8LEyfe+8/6HXxmGkf1CAvx8wuoZQxYtWlTmzJwW2aBB/UOkAgD/HisAAeSZ4SNH9Tp33snhBIF8EzF1qVO71i6S8C0v9es7adPmLUs++XTIi8uWr+rtLaz8qYU2HyZt3hbenH+3d/WXrZQoyxYlImXKlJaqVaqMqxwVGV+rZs09UZWjDkaEhyeViwg/SqHPP5UvV+68iOz1vGU7cvToU8lJyeFHk5LKHTp0uNKhw4crxe7fXz02Nu7ZpOTki14wyvl89a4SvRqHj1wo/Cmxlch97e5+55UX+w2sWLFCFo+0b6lcOTJeEyVOp5MXHwOEd0V7VlaWjBg15lkReZVUAOAKxjNEACAvfLXw6xt69em3wjCEPXgC8ebhmVSVLFHi122b199MIr5r2oyZbQZ9MuT71JMns1dYeVsX8+J5YRi6p/VOidPpyl7R5237NE1DwkLDfomJqbs9JrrO9jp1au+qHBUVX7JkiVRadgu2Q4cOBx0/caJ0bGxs9Z27dkfv3LUresfO3XVPp6XdaNn2n55LDtMU0TRRys7T4rb39HpN16ValcrzX3/15f63t75tA4+Yb9oXG1uifccuqUnJyaJrGtuPBBDvC1mjR3ze4q62d64mEQD4l2N1IgCQF1reeMuCuIMH22kF6CTIAnXz8LRwNm3caNz8L2f3IBHflpBwqOjHgz99+auF37ztnUTl1oncF4p+WnbBz1sADAoKkvLlI+ZVrFDhcEzd6O3RdersrFWzxp5atWqd4FHB5dqxc2f4nr37au3ctTt6x44ddRMPJ/Y6kpQk586dFxEtu33Y4TAvOok4N+493r3+DEOXbl279Hr7rTdG8Ij4vtvb3DVjx67dHSgABubYo1q1qvOX/fzjAyQCAP8OLcAAct0nnw7p+tnnI9oZDLwDlrcVrmbNGntJw/dFRlbKEJF3vvt+0aKPP/l0ddyB+OyWxsv9Hf2rdl7xHO6gaUqCixaVa+rVG1OnTq1dNWvW2FutatX917VoznME/0nd6OhkEUkWkeUiIsnJyc/vi91fIzZ2f/U9+/bW2r1rd+2t23c8cf6803MI8YXin7dA/W+Lgt6Dq1wuWxo2qD/p1ZdfHMBz2X+ULlP6uOzynCDOMCRgeA8E2b8/7v4hn3/+WN/evaeRCgBcPgqAAHLVvn2xJR54+NFJrPkLbN5JVfVq1WJJw3+0vbPNmpSUFH34qNG9xk+Y/LktIg7TFJdlXbIw4i6eaKJp7s30c57Iq2mahIaGrIiJjt7epEmjdY0aNtgQFVX5YLWqVdJIGnnJsyfkbs/btyIisbH7Xzpy5Ej5Ldu2Xbtp0+YG6zdsapx68uTNkn36sKdt2OEQESUu198/591FbU36PPdMt5f69Z309YIvCd6PVK1SOW7Z8pWiKP4FrClTpk+NO3BgYdUqVU6TBgBcHgqAAHLVpClTHz95Kk0Kmaac5/S9gKWJJpooqVIl6gBp+JcyZcooERn289Jflr/f/6O3YvcfeMC7qsK7z5r3dF6n0yWWpYmmuWfRUZGVpHq1qp82a9p0TfNmTVc3bNggYefWTTLnixkEi6uqevVqp0TklIjsFJFZIiKr16ytvnrNmubrN2xsnHAwoU9c/MHs1as5W4a9H/P+Dli2JvWvvWbKO2+98U7jxo3iSdf/VKtabb8SyT5JGoHDsm1xOBxyIvWkTJoy9XERGUoqAHC5czgAyCUbNm6Muue+h+K9e7Sw91/gMnRdbKVk8bcLy8XE1E0iEf/13gf9nxkzbsII78Eu3t9fTdMkpFiwNGnc6NNrr712S0xM9Pa60dE7KpQvf47U4G+SkpLNHTt31N26bfs1W7dtv2b9+o0vnkpLu6hl2Pvc792rZ/eXX+w3kdT819Jffrnmsa5PbCGJAJ3Aeu5Xhq7LV/PmRDVs2CCBVADgn7ECEECuGTFy9LOapouuCXv/BTDvKpnSpUpJsWLBZ0jEv/3vzddHLl++8td3P/jw7T179z1cu1bN2TfccN3Kltdft6Ja1ar7K1euzGMMvxcREe4SkS2eN4mPj3/30OHEShs3bWq4YsWqlr+vWftUvZi60999+823mzZpEkdi/q1C+QqJ3tObEXi8xT9bKRk2YuRzIvISqQDAP2MFIIBcsWjxD02eePrZtZz6G/i8g+56daNl6uQJuqelFAEgISGhaGRkZAZJoKA5dOhwUKVKFTNJInDUqFPv94yMjOYkEcATWU0TJSITxo5qckfr29aTCAD8PZ0IAOSGkaPHPKN5TodFgN84DF1E06RcRMQgin+BheIfCiqKf4GnQvlyiaJp2a3dCMDxiKaJJiIjRo56ljQA4DKum0QA4L+aPGXaXZs2b+tqGDobbhcEyr18vHTZ0scJAwDgiypULJ/IC5OBzbJtMQxdNm3e1nXa9BltSAQA/h4FQAD/SUpKijZx0uRvRNyFP9p/CwBNE9E0KVmiRCphAAB8UUTZcA6oKjCUTJg4+fuUlBSqvQDwNygAAvhP5i346oEDBxPENA1xuSwCKThjbSlZoiQFQACATwoPL5ssoommUxMKZC6XJaZhyP4D8bLgq6/vIxEA+GucAgzgiiUlJ5ut77hrrm3bYnPqb4GgaZrYliVKiZQoUfwkiQAAfFF42fBk93GHdCYEOpdliVJKRo4ZM+/YsWNG2bJlGZQCwCWwAhDAFZswaXL31JMnxdC5lBQklm2LUraEhIamkwYAwBeVKF78pCYimsYYJdAppcTQdTl+PFUmTp7ajUQA4NK4IwK4IrGx+4vP+mLuaF5XL5gKFSokwUFBZ0kCAOCLQkKK8SJVATTriznj4g4cCCUJAPgzCoAArsj0mTM7paWlicM0xaL9t8ApGlREgoODKQACAHxSSEiIuwDIK5UFgmXbYhqGpJ48KVOnz+hMIgDwZxQAAfxru3bvLjNtxqxhtm2Ly+UikIJ00/CcAFyocCEpElQki0QAAL6ocOHC5/6fvfuMr+Os0z5+3TNz5CJZcomL5N6SuDtO4vRAaGFpgQRCD7ChLGwCC7uwD/tQlmwoC/vAsoQeIAkhIc1pm+40lzhx792SLasrstUlSzP3/bw4kgnEto4s6WiO9Pu+SV5fH2vOf665i3NOjgZw0AijSNZa3fmnu3+2Z8/eMSQCAH/zLkcEALrrt7/7/WeOHWtXEPhyjsF6sDHJFysNHzasmTQAAHGUlZXV5hmjMIxkDDcBDwbOOQWBr9bWNt36hz98mkQA4K9RAALols1btk66//4Hv+ucVRhGBDJIDckawhZgAEBsJbIS7bl5HAU32IRhJOes7r3v/h9s2749n0QA4C8oAAF0y62//8Onbcdtaxi8hg4ZctfYsWNZ/gkAiKWsRKItJydbkkkeX4FBw/c8RZHTrb9nFSAAvBZv8ABStn79hmlPPPnUt51zsmz9HZSMZyQZZQ3JaiMNAEBcZWVltWUPzxbd3+BjnZNzTo8/8fRNmzZtnkwiAJBEAQggZXffe9+H29ralQgCzv4b5HzPY/83ACC2xo0bZ7MSiTt1/OMVBgvnnBKJhFpbW/Xne+/7EIkAQBIFIICUbNu+Pf+++x74nrVWYUT3M+h/PDzfkgIAINZY/jdohWEoa63+fO99P9yxY+d4EgEACkAAKbrt9j9+0jpx8y94qQIAZATfZ7X6YNV5I3AUOf3hjjs+RSIAQAEIIAXbduzIX/bgw9/j5l/8ZbImAgBAvBlj+LUaxDpvBL7//ge/v2MnqwABgAIQQJd+9/vbrm8PQ27+RccblWQMFSAAIOY/VxSAg57veQqjSL/7/W3XkwaAwY63eQCntHnL1kmPP/HUf3DzL3ipAgBkEi6sgjq2Az/+xJPf3bJ120TSADCYUQACOKUHHnzwmpaWFiUSCc7+w3EUgACA2L/ocGHVoBdZq0QioabmFi178KGrSQTAoP5dJAIAJ7P/QOHI++5b9t/WWoVhSCA4zjnHLSAAgFizNuJdB8dvBL5/2UP/c6CwKI9EAAxW/CgCOKmHH3nkqqbmZiUSAav/8BdOCsP2gCAAAHFVXV1tmltaPy1JzjLDDOqxxTklEoHq6+v18KOPXkUiAAYrCkAAJx2c/3D7nbdZa9Xezuo//NUorfYoSpADACCuImv91mPHCAKSpPb25CrA22//4ydIA8BgRQEI4ITuvufeD9fW1soYdnriLzpXUYRtrAAEAMRX2B4Gx1pb2cGA44wxqjly9E23/OJXHyINAIMRBSCAE3pg2UPXSJJHAYgTaAvbs0gBABBXYdgeNDe3EAT+8uLbMdPev2zZ+0kDwKB8DhIBgL91+x13vvNA4cGrfd8oslyghxO8WLWF7y8tKxtCEgCAWP5OhVHQ0toqSbKsAkTHjcC+b7R/f9E1f/zTXX9HIgAGGwpAAK9z7/0PXCs5Saz+w4m1hW1qa2tjFSAAIJaiKPJbWlgBiBNxuu/+Bz5ADgAGGwpAAH/lyaeePm/Ltu3XBYGvMIwIBK8fm53U2tKqpqambNIAAMTRsba2IZJREPicA4jjwjC5CnDjpq2femb5s+eQCIDBhAIQwF+5/Y47PyHnZCO2/uL1ktuonJqam1VXV59HIgCAOKqrrc0zRjLsZsDfcFaSnG7/453cCAxgUKEABHDchg0bp65YtfoG5xxn/+GkjDFqaWmlAAQAxNarNUfOSP5okQX+WmStnHN64cWVX9q0afNkEgEwWFAAAjjuzrvv/pgxRr7HowEn5/tGxniqrasdSRoAgDiqqakZ4yS2/+LEs0zHrHvHn+66jjQADBa85QOQJO3dt2/0c8+9cDNJ4FScczLGl/EMKwABALFV/Wr1WNH9oQvPv/DCzfv3H+CDJoBBgQIQgCTpiSef+rsjR2sVBAHbf9E1J9XV1VEAAgBiqaamZozk5CwtIF4vslZBEKim5qgee+KJd5IIgMGAAhCAqqurzQPLHrrTOScbcfMvTs11XARSc+TIGNIAAMRRRUXlBFLAqdgoknNOyx58+M7q6mpOiwQw4FEAAtCKlasuLzp4SEHgs/oPqYzMck4qLy/PJwsAQBwdKCqa6Y7fXg+8XnIVoK8DRQe1avVLl5IIgIGOAhCA7rjzT9c55xSGrP5D15yVJKeysvIvVVZW+iQCAIibqqrqcXKOS0BwSmEYSc7pjj/eyWUgAAY8CkBgkHvllbUz12/Y9PeOIRkpsh3/VkpKS9XY2JRDIgCAONm0ecvkMAyXkgS60jn/rl2/8dNr162bQSIABjIKQGCQu+ueez5ijJHv8ThA6sNyIhGopaVVdXW1XAQCAIiV0tLSiexqQKp8z5MxRnf9+Z6PkAaAgYw3fmAQKywsyl29+uWbSAKnq7y8gnMAAQCxUlJSMskYI2O41wGpW7365f84ePAgOxsADFgUgMAg9uxzz7+5sqpKgc/lH+ie5JaZ5CHrpAEAiJO9+w+cKUkeBSBS0HkZSHllpZ5Z/txbSQTAQEUBCAxijz3++Dudc3Li7D90j7NOktOuXbvnkAYAIE6Kig5Ol4yMRwGIFOcaZyXn9PiTT72DNAAMVBSAwCC1cuWqORs2brne9w23/6LbrEvWxtu375xPGgCAuCgrL8+qebXm05Lr+FgFdC0MrXzfaN36DZ9etfqls0kEwEBEAQgMUn++7/4POTk5dv7iNDjnJOd0uLT0vaVl5UNIBAAQB8XFh6dUVVfJOSfrKADRjdmmYya+74EHPkAaAAYiCkBgECo6eHDEU08/8y3nHGf/oUfCMNS+fftmkwQAIA4Olxye3NjUrCDwCQPdElkr55wef+Lpm4qLi4eTCICBhgIQGISWPfjw1a2tx7gdDz3S+e9n127OAQQAxENR0cHpxngyxkuuVge6Odu0tLRo2UMPX00aAAYaCkBgEFr+7HNvEbfjoYd835NktGnTlnNIAwAQB3v27D0rWfxR/uF0Zxtp+fLkrAwAAwkFIDDIPLP82XO2btv+Mc7GQU913gRcWFQ0gzQAAP2tpKR06LbtO7/mnJWNOOIE3RdFyW3AW7dt/8Rzzz+/kEQADCQUgMAgs2Llyss9z1cikWBrDHrEOifnnCoqqz64afOWySQCAOhPlZWV48vLKxQEPmcc47Q455IzsqQXXlzxRhIBMJBQAAKDSElJ6dDHHn/yv62NZKOIQNBjQeCrtrZOe/ftPZM0AAD9afuOnfNlxPZf9IiNIllr9fgTT/+0pLR0KIkAGCgoAIFBZO26dUurX61RIhHwZRw95pxT8qB1o527ds8lEQBAf3r5lbUXOufkGHHQA5G1SiQCVVZVaf36DeeRCICBwicCYPAwQeKrxcWHl1rLl3H0Ds8zstbKN6Zs966dj5AIAKC/tEfuG83NzdNJAj2emTs+dDY2NTVt27r5CRIBMCDe3YgAGBx27d499qWXXv5H13FuG9Aboo5D1tdt2HT9jp07x5MIAKA/rFy1es6rNTVvUkdxA/RovrHJy0BWv/TSjXv27BlDIgAGAgpAYJB4YNmD11jn5Hv82aP3OOcUBL48z9O27TsWkAgAoD+8tGbNxcYYGWMIA73CGKMosnrgoYeuIQ0AAwFNADBIrFy5+jJSQF+wUfIr+fPPv3AFaQAA+sPatRuWSka+z+sNekfnv6UVK1ZfThoABgJ+IYFB4Nnnnlu0Y9fujzjnZNkWg15mO7aVr1ixigEZAJB227Zvz9+3f/9nkxeAMOegd0QdHzh37tz10Weff34RiQDIdBSAwCCwavWaS40xSiQSnIuDXtf5b6q+sfHSRx997CISAQCk04YNm849WlurRMJXZLkCGL033yQSCTkZrVnzMvMNgIxHAQgMcFVVVd6zzz1/i3NONooIBH3C9zwZY7T8+efeQhoAgHRat379+ZIkvnGil9koknNWzz7/wi+rq6s5YBJARqMABAa4HTt2zis8eEhBwFdxpOElbN2Gm8rLKxIkAQBIhwOFRXnPPPv8t6y1CvnQiV4WWSvfN9q3v1A7du6aRyIAMhkFIDDAPfrY4++Wc7IR5R/6jnVOvu+p+HCJVqxayVmAAIC0WPPyyxe1tLQokQg45gR9wllJzumxJ554J2kAyGQ+EQADW31T682tra1TGYrR5z8oni8nadiwYUVrX3n5BRIBAPQ1K+//lJWVL7Fc/oE+0jlDl5SWJaoqym4jEQCZihWAwAB27333v6m2tpbVWEiLMIpkrdVTTy//9p49+8aQCACgL23Zum3ixo2br3cdt9EDfeno0aNvWPbQw8zVADIWBSAwgD351NNvN8ZTELDYF32v87a81tZj2rdv32wSAQD0pVdefuUC6xxzDvpcEPgyxtNjj7MNGEDmogAEBqjCoqLcbdt3flVycmyLQRokEoHCMNLb3/aWH7zrXe94mUQAAH3ps5/99LJLL7no51HklEgEBII+k5ylnbbv2PG1Q4cOZZMIgExEAQgMUGvXrV9aXlEh3/e4/Rd9Lgh8hWGkRQvn3/HbX//i6yQCAEiHn/33j288+6zZCsNIiYASEH0jeRuwp9LScr2ybv0FJAIgE1EAAgPUK2vXXmCMkWQIA30qCHxFkdXkyRP1y1t++nkSAQCky9ixY90vbvnpmLFnjFEYRWwHRp8xxpMxRq+8spYCEEBGogAEBqDDh0uGvbhi5c3WWjlW/6EPdZZ/I3Ky9etf/HzilClTmkkFAJBOZ86efeRnP/3JnKFDhygMIyU/gAK9y3ZcdvbiilXfKykpHUoiADINBSAwAO3YtWtedXWNEomA7b/oM77nKQwjSdIvbvmfhQsXzC8jFQBAf7j0kot3/+gH37tcHZdSUQKit0XWKpEIVFlVpR07d84jEQCZhgIQGICefOqptzvnZCPKP/QtY4xu/s63333FG9+wjTQAAP3pfe+9auXX/uXLHzPGk+9TAKL32cjKOaenn1n+NtIAkGk4JAMYgJpb2/+9uaVlOkmgrwSBJ+ukj3z42n/96j9/5Q8kAgCIgyefeHzbx6+7ztu1e98bgsDIWkco6FXOOZWXV3iVFWW3kwaATMIKQGCAeeyxxy+oOXLkis4BBehtiSBQFEkXnH/eb374/e/9kEQAAHHy8//5728vmDfnzihyXAqCXtU5W9ccOXLFE08+fT6JAMgkFIDAAPPU8uVXGmPke/x5o/f5nqcwilQwYbx+/KMffIVEAABx9P9+9IN/zhuZpzC0zETo9VnIGKOnnn76StIAkEn4NQQGmG3bdywgBfSVyFr5vtF//fD786ZOndpEIgCAOJo7d27Vf/3ge0uNnCJruRQEvW7r9u0LSQFAJqEABAaQZ597btGB/YXvd87Jsv0XvSwIPBnj6ev/+rUPXH75ZTtJBAAQZ3/39ivXffHGL1yfvBSE1x70DuucnHM6cKDwA8+/8CIf3gFkDH4JgQFk46bNS5yMEokE5/+hVyWCQJGV3vH2t33/Hz77mftJBACQCb72L//8+8suvfCWKLIKAl590HPOOSUSCVkrbdi06VwSAZAp+BUEBpD1Gzae55yVcxFhoNd0nvs3aWK+vvWNf7uJRAAAmeTmm276xuhRo8SlIOgtzkVyzmnjxo1LSANApqAABAaIXbt3j121es0XJCmKWP2H3mOdk5P0nW9987xJkya2kggAIJPMnDG97qZ//+ZlyRmJ8wDRc1Hk5JzVqlVrbtyzZ88YEgGQCSgAgQFi06bN53iepyDw2f6LXhMEnmSMvviPn//0lW976wYSAQBkovde9Z5Vn/rkx/9JEucBoseS24ADOUmbt25bTCIAMgFr4IEBIm/U6M8dKCy6RE4UgOgViUSgKLK6+MILfvnTn/zXzSQCAMhkK1544ZVLLr1sVkVl1ULf85iX0COmowj0PFO+ccP65SQCIBOeWwAyXHV1tbn0jW+2jY1NhIHe+XEwRs45DR06RMvuu2fSooULSkkFAJDpXlm7duY1135kv3Pu+G8d0JNZKTcnZ9WuHVsuIxEAccf6d2AAePnltRdS/qE3+b4nY4y+/KUbP0z5BwAYKC5YuvTAF2/4/PWm49gU4HR1lsf1jY2XPv7Ek0tJBEDcUQACA8CKVasvN8bI9/iTRs/5nqcoslp63pLf3vCFz/+ZRAAAA8nX/uWff79w/rw/hmHE7IQez0zGGK1Ytepy0gAQd/ziAQPAtu3bF0iS8djVj54xxiiyVolEQt/65jduIhEAwED07W/+23e8jt884LTnpo7Ze+vW7QtJA0DcUQACGW7Dho1Ti4uLP+qcUxQxxKJnklt/PX35Szd8dPGihSUkAgAYiC5YuvTAF2/8wqeM5ykRBASC0xJFVs45FR8u+fimzVsmkwiAOKMABDLcjp275jU0NimRCDjIGj3SufV38aL5t3/xhn+8i0QAAAPZv3zly7ctmDvnzjCKFAS8FqH7nHNKJALV1tVp+44d80kEQJzxSwdkuM1btixO/h/bf9Ez1jk5SV/95y//iDQAAIPBl754w0/lpChK3goMdJ+RkbRl67ZFZAEgzigAgQxWUVkZrN+w8bvOOdkoIhCctuTKB6MPfeCaf3vD5ZfvIBEAwGDw9ivftv6qq951kyR5FIA4DTaK5JzTxo2bvl9ZWcnV0gBiiwIQyGClJaUTC4sOyvc9DrHGafM9T2HklJuboxv+8fO3kAgAYDD5yj998cfDhw9nlsJpiayV73vau2+/SkvLJpIIgLiiAAQy2Nr165eKr9XoIeMZGRn90403XDN92rQGEgEADCYzZ8yo+/IX//Fa43lKJLgQBKcjuYV846ZNS8gCQFxRAAIZbMXKVZeL23/RA6+9+OOzn7l+GYkAAAajz//D5+5bMG/unWEYKQjYxYnuiSIn55xeWLHyjaQBIK4oAIEMtmHj5nOdc9z+i9MfWK2Vk/SlG2/4KWkAAAazL/zDZ38hSVFkuRAE3dI5j2/YsPFc0gAQVxSAQIZ6/vkXFjQ1NV1EEjhdvufJGKM3v/Hyn7z1LW/eRCIAgMHs3e9655rLLrvkFnEhCE5TfUPjpStWrJpLEgDiiAIQyFBr129YaozhCzVOy/F/N87pxhu+8DMSAQBAuvELn/+Zc06W3RU4jdnKGKO169ctJQ0AcUQBCGSozVu2LJaMfJ8/Y3Sf7/tykj7wgau/cf555xWRCAAA0sUXXbj3Pe9+582S4SxAdHO28iQZbdy0mYtAAMQSzQGQgUpKS4cWFx++QXJyli/U6OaA6nkKw1BDhw7VJ6+77jYSAQDgLz7/uc/80velMIzYaYGUJWdyp8PFJTeWV1QkSARA3FAAAhloz549Zx0+XCK2qOB0GWN07fuv/sqihQtKSQMAgL9YuGBB2cc/+tEve56nIAgIBCmxHReBFJcUa/fuPWeTCIC4oQAEMtDu3XvPdjJKJBLcAIxui6zVsGHD9OnrP3UraQAA8Hof+uC1fx6Rk632MJTv8cqErjnnlEgkZK3R7j0UgADih18zIAPt2LlznuQkyj90UxD4Mp6nD33w/f80fdq0BhIBAOD15s+bW/H2K9/2f9kAjG5xyW3AO3bumkcYAOKGAhDIMGXl5Vlbtm77pnNO1loCQcqMMQrDSIEf6CMf+uBdJAIAwMld//ef/J3ve4qYt5Aia62cc9q6ddu3OQcQQNxQAAIZprKicvyh4hIxkKK7giCQ53m69v1X/+ucs8+uJhEAAE5u3ty5le9771XfNMbjRmCkJLJWvu+psOigKiurxpMIgDihAAQyzM7du+cmL6Rj+y9SZ4xRe3u7srISev81772fRAAA6Np1H/voHc5ZRZHlRmCkyMkYzgEEED8UgECG2bxly2LnnByL/9Cdh70xMsboLW960/eWnn9+IYkAANC1JecsLn7fe9/zHWOMAp9VgOias8kLQTZv3rKYNADE6p2QCIDMsmHDpnMlyXIBCLoh6jiT5hOf+NjtpAEAQOre+553PWStVXsYsgoQXeqc0ddv2HgeaQCIEwpAIIOUlpYOKSw6+AHnnBwFIFJkOlb/LT3/vFsvvvDCvSQCAEDq3vLmN29eet6SW40x8igA0YXOOX3/gcIPlpWXZ5EIgLigAAQyyNZt2xe2t7cTBLolCHwZY3Tdxz5yB2kAANB9773qqofEDgx0Q3t7u7Zt276AJADEBQUgkEG2bN26yBgj3+NPF6nxPU9hGGnalCm66MIL15AIAADd94nrPvbY2LFjljvn2AaMLnXuvti6bdtC0gAQF7QIQAbZvmPnfMnIeAyeSPEh7ydX/7373e+4fsKE8SGJAABwej78wWvv9jxPvs8rFE4t+W/EsAIQQLzeDYkAyByHD5dMlpycZfsJUhg+PU/t7e3KHZGjt1955ZMkAgDA6XvXO9/xv57nKYosqwBxSslZ3am4pGQKaQCICwpAIEOsXbduRlVV1dXOOc6fQcqM8XThBRf8cOGC+WWkAQDA6Zs7Z07Vu975dzcZYxT4PoHgpGzHRSBVVVXXrFu/fjqJAIgDCkAgQxw8dGhaQ2OzgoCBE6mJrJVzVu+76j0PkgYAAD335ive+KxzTtayChCnFgS+6usbdfDgoWmkASAOKACBDFFUdGh68kBhT44VgOhC50vJhPHjn37Xu97xMokAANBzl1x80eoZ06bJOiePAhAnkbwsxpMxng4eogAEEA8UgECGKCwsmuGUPE8E6IrvJ4fOq97zzodJAwCA3jF+/Pho6dLzvk4S6Fpybi8qOsQWYACxQAEIZIDKykp//4ED/ybnZCNLIEh58Hz7lW/j8g8AAHrR+9571YPOOUWWmQwnZyMr55z27z/wzerqapaLAuh3FIBABjh6tHbU7j17k8ME23/RhSDwFUVW55937q1Lzz+/kEQAAOg9l1x80Z7Zs2c+IGM4BxAn1XkRyO49e3Tk6NHRJAKgv1EAAhmgtLxsoud5CgKf8//QJaPkC8lb3nTFctIAAKD3vf/q993vGSPfpwDEiTnnlAgCOUmlpWUTSQRAf6MABDLAzp275jonyj90yRij9jBUTk62LrrwgjUkAgBA73vD5Ze9aJ2Ts2IVIE7KKXmC9+49e84mDQD9jQIQyAA7duycJzk5SwGIU+u8/OOs2bN+t2TJOcUkAgBA71swf375Beed91vrnHyfVyqcmLNOck47d+2eSxoA+hu/VkAG2Lpt+0LH+X9IQRRZSU4XXXQhq/8AAOhDF120dI0xyQ9vwIlYl1wBuG3r9gWkAaC/8WsFxFxZeXlWWXnFu9VxkDBwKq7j38lb3/ymZ0gDAIC+c9655673PKm9vZ1twDjpXCbnVFxScnVlZaVPIgD6EwUgEHMHDhTODMOQINAlY4xkjGbNnLFsyZIlbP8FAKAPXfHGN2ybPWvWPcYYeRSAOIUoDHWgsGgmSQDoTxSAQMwVFR2c7sQB0+ia73syMrryyrc+RRoAAPS9JUsWbyQFdCWyVkVFB6eTBID+RAEIxNy+/ftmG4kvy0iNkd5w+eUvEgQAAH3vzVdc8axzTpG1hIET8j1Pxhjt279/NmkA6E8UgEDMFRYWzZAxMh4FIE49XIaR1eSJBZo+bWoRiQAA0PeufNtbN+SOyFlFEjgZ4yWPaNl/4MAs0gDQnygAgZh79dWaM+ScnOUCEJziYe558ozReecu+feC/Pw2EgEAID3OOWfxJmMMx7XghJxNXgTyavWrZ5AGgH59ZyQCIL727N03prrmyEdIAl0Olx3/nT9v3nbSAAAgfS6/7NIVMka+z6sVTq7myNGP7t9/YCRJAOgv/EoBMVZWVlZw5EiNnHOyjhWAODFjjMIw1JAhWZo/nwIQAIB0OnfJORsMYxpOwjon55xeralRWVl5AYkA6C8UgECMlZSWTooiq0QikKMAxMke5B3bjiZPnnT/JRdftIdEAABIn4kTJ5ZOmTJJYWTle7xe4a855xQEntrDUKVlpRNJBEC/vTcSARBfpaWlE2VM8mpX4JSMzpo9m/IPAIA0K8jPbzv33HO+7RkjjwIQJ5rSjC9jjA6XlEwmDQD9hV8oIMbKyssL5JIHBwMnY52Tk9OFF17wMmkAAJB+C+bN3yZJ4iIQnEjHPF9eXpFPGAD6CwUgEGMV5ZUTXEe5A5x8pnQykhYvWrSZNAAASL9Zs2bu9zypvb2d24Dx+llNyXMAKyorJ5AGgP5CAQjEVGlZ2ZCy8vLPS5KzFIA4sc6XjJEjR764eNHCEhIBACD9pk+bWpSfny9jjDwKQPyNzlm+pKT0hrLy8iwSAdAfKACBmGpsaMw5eKiYG4Bx6od4xwUgCxfM30oaAAD0j2nTpjUWTMj/rWRkPApA/LXOm4CLD5eosbExh0QA9Mu7IxEA8XS0tnaUMUaJgBuAcXLJlwyjcxYv3EQaAAD0n1mzZ+6XHDs38DrOOSUSgay1qq2tHUkiAPoDBSAQU4cPH54sSU6WMHBSRkbGSAsWLNhGGgAA9J9FCxducc4pssxuOLnS0rKJpACgP1AAAjFVfPjwlOTCP7aR4MSMMQqjSNZaTZ86tYhEAADoP/Pnzdvue7xe4cScc3JOOnjo0DTSANAf+IUCYupQcfFUtpHglA/wjkPG58+do9GjRx0hEQAA+s+ihQtK8/LyXtBrLukCOiVneqfiw4enkAaAfnl/JAIgnoqKDk5Xx6HBwAkf4L4nGaMZM6bfPHbsWP6hAADQz86aPXsP5R9OpHOmP1jECkAA/fT+SARAPB06dHgql3/g1IyMjCZPnnSYLAAA6H+zz5y1T69ZpQ+8lnNOhUUHZ5AEgP5AAQjEUEVFZdDQ2HhF56AAnGyIlJwK8gvKSAMAgP43c8b0AzJGxqMAxInmNqm+oeFN1dXV/AMBkHYUgEAMVVRWTrA2IgiclDFGYRjKSJo0aWIJiQAA0P9mzJhRaDrW6AMnYm2kiorKCSQBIN0oAIEYqqisnBCGFIA4xcPbGMkYjTljtAoK8lkBCABADORPGF/unFUYRVwEghMKw0gVlRSAAPrhHZIIgPiprKgYz4djdMVIGj1q9L1z58ypIg0AAPrfiBG5DZMmTZTjHECcYoCjAATQHygAgRgqr6zMNzJ8OcbJZ0evYwXg6NE1pAEAQDxMmjSxddrUqT83nb/VwGvnN5O8wK2iooICEEDaUQACMVRWVl4gGb4c46ScdZJznP8HAEDM5E+YUN5Z9AB/9fLdMduXlZcXkAaAtD+DiACIn6qqqnEyfDnGydmOm+TyC/LLSQMAgPg444wxr0rJlfrAa3Xu4OASEAD9ISACIH7q6xty5VzHKW/A67nOAnD8BApAAABiZMyYMTWMcDjFEJec9QEgzVgBCMRMRWVl0NjY9HF1bvMETmHChHEVpAAAQHyMGTO6xlkr5yznOeOvdM72DQ2N11VWVvokAiCdKACBmKmrrctramoiCHQpCDyNHz++kiQAAIiPMaPH1Pi+URhGhIETam5uVl1dfR5JAEgnCkAgZuob6nObm5vlnDt+zhtwwge4F2jC+PGsAAQAIEZGjx59ZMQIuh28nnVOzjk1NTepvoFtwADS/P5IBEC81NWxAhCn1rmdaOTI3OVjx46lJQYAIEZGjxp1JDc3R8aY47e+Aq/V3Nysuvo6WmIAaUUBCMRMXX1DnnVOvsefJ07OGKOC/IIykgAAIF6mTJncnDM8+26SwIn4nqcosqqvq2cFIIC0omEAYqa+rj7XGE+e7x+/6RX4qwd3x2qCMaNH1ZAGAADxM2TokGOSkfFYAYi/cM7J8zwZYzgDEED63yOJAIiXuvq6PBlxaxy6lDdyZB0pAAAQP0OHDG0VoxxOwHieZIzqG1gBCCC9KACBmKmtqxspJ1b/oUt5ubkUgAAAxFBOTnYjKeBEnHOSk2pr60aSBoB0ogAEYiY5DDiJAhAnkdxOZDRyZF4taQAAED+5ebn1ck7OMs/hbzgnySU/+gNAGlEAAjFTV1ubl/wwaAkDJ2ek3BG59QQBAED85OXlsUofJ53hnJNqa2spAAGkFQUgEDPJA4FdcjoATsjJSBqRO6KBLAAAiJ/OYzosOzrwt1NcxwrAuto6LgEBkFYUgECMVFVVefUNDZ+RxJYRnJQxyUf3yDy2AAMAEEd5eXl1THI4kc4Zv7Gx8bPV1dV88QeQNhSAQIy0tbVnNTQ2yomREV0bPnxYMykAABDT32jnuNQNJ+Qk1Tc0qK2tLYs0AKQLBSAQI23tbVmNDQ2SY8sIupgaJQVBIiQMAADiJ/ADfqNxQtYlL/traGxSW3s7BSCAtKEABGKkva090dDQSBBISSIRtJMCAADxEyQoAHFqjawABJBmFIBAjLS1t2VZ5xQEPltG0AXD6gIAAGIqK8hqIwWciHNOvucpjCK1t7UnSARAulAAAjHS2to61Bgjww3AOBUjSU6e71vCAAAgfvwgiEgBJ30J9zwZY3TsWOsQ0gCQtmcPEQDx0dDQMELqLHiAE3Mdh4r7vsfLBQAAMZTI4pgOnELHrF/f0JhLGADShQIQiJH6unqGAJx6XjRGzia3h3vGYwUgAAAxxBZgpOL4x38ASAMKQCBG6hsacp0k5+h1cHK2YwWg51MAAgAQR0EQhMawpQMn5pyVk1RXX59HGgDShQIQiJHGxsYcObEHGAAAIIMZI25zw6n+hUhOampszCYLAOlCAQjESHNLy3BSQKqcczTFAADEUGStTwrocvZvZvYHkD4UgECMtLYeGyq542e8ASd8cBuTXFpAAQgAQCw5a41zzHM42b8PJ8mp9VjrUNIAkLb3SCIA4qOlpWUYKeCUA2PHy4SRxOYiAADiiRWASG32b2X2B5A2FIBArIYACkCkzokVgAAAxJG1lvcsdInjfwCkEz9MQIxQACIVxjMynAEIAEBsWRvxnoUuHWttHUIKANKFHyYgRigAkRonZ4yc47poAADiyDrHexa61NzczApAAGnDDxMQqyEguQ3Acmg0TsHIk5EUhSHnCwEAEEPtx9oTpICT6Zz12QIMIJ0oAIEYaWltHUb1h9QYtYe8XAAAEEdt7W1ZpIBTcZJaW1q4BRhA2lAAAjHS3Nw8XKz+Q4pjY1tbOy8XAADEUFs7v9HoapRzam5uZQUggLShAATiNCy28bUYKTD8ewEAINYz3bFjWTIc1YtTO3bsGJeAAEgbCkAgRtjSiW69XLACEACAmP5Gt2UZSYYSEMz+AGKCAhCIkbA9CkgBKQ+NbW0MjQAAxBCr9JGKyEZc6AYgbSgAgRixNvIkyXEOIE7BOStJajnWMow0AACIn9bWY1zugC7x8R9AOlEAAnEaAkKGAKTCyElqaW6lAAQAIIaampuyJcljCzBOoPNjf2RDVgACSBsKQCBGwiikAEQ3Xi6as0kBAID4aWxqyiEFdKW9PeI4FwBpQwEIxIiNIv4mkRonNTU1UgACABBDTU3N2RKr/8DsDyA+eOAAMdIehnwFRJecdZIcKwABAIippsbGbBnJeJSAOLkw4vgfAOlDAQjESBRyExhS19zUNJwUAACI4W90Swu/0ehSe3s7H/8BpA0FIBAj1lr+JpGyxkbOFwIAII7a2tqz5MgBXcz+bAEGkEY8cIA4DQHO8TeJlNXW1Y8kBQAA4ufYsWNDRAMIZn8AMcIDB4iRIPBDUkAKw6Ik6ejRo6NIAwCA+GltbR2q4+f2AieZ/X1mfwDpQwEIxIgxHlMiUuIkHTl6ZDRJAAAQLyUlpUNbW1uvJQl0xQ/8iBQApAsFIBAjrABEKpxzknOqq63LIw0AAOKlqbk5u7X1GEGgS74fUAACSBsKQCBOQ4DnMQQgZcfa2i+prq42JAEAQHw0NTZmt7a2yDl3/NgO4ETYAgwgnSgAgRjhKyC6w1rLRSAAAMRMU3NzdktLK0Gg65dx37ekACBtzxwiAOLD9zkHBKlz1qq+ri6XJAAAiI/GxsacY21tMoZF+uhi9vcMsz+AtKEABOL0B+kbK4mBESmJrNWrNTVnkAQAAPFxtLZ2lDGefJ95DqfGx38A6UQBCMTIkEQWJ0ajW2pqasaQAgAA8VFXV5dnPCNj/OTFXcDf6PzYn5WV1UYaANIlIAIgPoYOHcqBMejW4MgKQAAA4qW2tm6k6P2Qyuw/jNkfQPqwAhCIkSFDhrACEKk9vCkAAQCIpdq62pGSk1j9h1MyGjqEAhBAGt8hiQCIjyFDhxwT5/8hlZHRM5KMqquqx5IGAADxUXu0bqSTJEY6nHKYk4YNHdJCEADShQIQiJGhQ4a2MiuiO4PjkaNHRxMEAADxceTIkdFyjvP/0NUYp6whQzgDEEDaUAACMTJ06BC2ASAlzia3FtXXN+SSBgAA8VBeUZGorKr6h+O/1cCJXsI7dvwMGzqUFYAA0vfsIQIgPoYMGXrstUMB0JXGhsaPlZWXZ5EEAAD9r7mpeXhVVbWcc7KsAEQXsrJYAQggfSgAgRhhBSC6w8mpoalRR48eHUUaAAD0v6bm5uzGpmYFgccWYHRpyNAsLgAEkDYUgECMDBs+nG0ASIl1TnJSXV29al49MoZEAADof0eOHBltjGR4zUIKhg8b3kwKANKFXyYgRnKysxtJAanyPU/t7e2qOVJDAQgAQAyUlZcXSJKTJQx0acSInAZSAJAuFIBAjOTkZDdKRsbjDECcmnNOnu/LGE81NawABAAgDioqKickd/4yy+HkkrO+UXZ2ThNpAEiXgAiA+MjOzmYIQPdfNiorJpACAAD971DxoamSk2MBIFIwIiebFYAA0oYVgECMZGdnNyU/GHNoNFLhJDmVV1TmkwUAAP2vqOjgdHWe1QucYoYzRhqenc0ZgADShgIQiJGc7OGNRpIx/GkihdHROTnnVF5WQQEIAEAMHDxYPI3bf9GVzlmf878BpBMtAxAjw4fzFRCpc9bJSSotL/1MSUnpUBIBAKD/FB8+PLy+oeEKdXykA7qSnT2c438ApA0FIBAjOTk5ya+AzIxIgXVORlJJSZkaGxtzSAQAgP5TUlI6KQxDgkDXOmZ9Pv4DSCcKQCBGjl8CwsVxSGV2dE5B4MvzPL1aU3MGiQAA0H+Ki4unsPIPKc1wcnKOCwABpBcFIBAjQ4ZkHbPWKgwjGUMLiBQGSGflJBUWFs0gDQAA+s+BwsKZxhj5Hq9YODljjMIwkmekIVlZx0gEQLrw6wTESFbWkLa83BGcG4OUOSvJOe0vPDCLNAAA6D/79x+YJWNkPD7iomu5eXnKGpLVRhIA0oUCEIiRIVlZx0bk5ib/OFkBiG7Yt//AbFIAAKD/VFZVjxcfcdHVC7gxMsYod0SOsrIoAAGk8flDBEB8DBmSdSxvRC7bf5Ey65ycc9q9a/fZpAEAQP84dOhQ9pGjRz4uSc5SAuLkOleI5uXm3jmxoIAtwADShgIQiJGxY8e6ESNG/Oa1wwFwKp3bxY/W1r7l0KFD2SQCAED6lZaXT6ypOSrnnCyrAJGCESNGNJACgHSiAARiJjc3p14yrAJEt7S3h9q3fz/bgAEA6AclJSWTWlpaFAQ+YeCUjDGSMRqRk0MBCCCtKACBmBmRm9tgjCQ+HqMbg6QxRnv27D2LNAAASL9Dh4qnGuPJGI/L3HBqTjKScnJHNBIGgHSiAARiJi8vt06SxApApPogN0aS0c5du+eSBgAA6VdYWDTDyfEFF13rmNtGjRp5lDAApPW9kQiAeBk5cmStDFuA0Y05suO8yOLDh6eQBgAA6VVdXW0KCw9+Q87JRpZAcOq5zRjJSCPz8mpJA0A6UQACMZOXm1snJ7aPIGXJ2wadql999ZNcBAIAQHodra0dtXvvHi4AQYpzm5Wc08i8kRSAANKKAhCImZF5ebXOWdkoYhUgUmKdk3NOFRVVOnSoeCqJAACQPqWlZROtdUokAj7g4pSMMbLWyjmnvLy8OhIBkE4UgEDMdA4DkWULCVLjnFMiCBRFkfYfKJxFIgAApM+OnTvnOXZvIEWRtfJ97y/nfgNAmlAAAjGTmzuiPid7OEGgezoOlD5QWDiTMAAASJ9Nm7acI7mOIzmArg0fPpwVgADSjgIQiJm83Ly64cOHS8Z03O4KdM05K+es9uzZdxZpAACQPhs3b1rC+X9I6eW746K/nOyc5LnfAJDOZxARAPGSNzKvLic7R1R/6I4oSp4ns2Pnjs8VFhXlkggAAH1v1+7dY48cOfoWiS3ASN3w4cPYAgwg7SgAgZjJnzChPTsn+06SQHc4lzx8vLGpWWVl5QUkAgBA39u6bdvCMIwIAikxXvIT/4gRI24fO3YsjTGAtKIABGJoRE5Og4w5PiQAqXDOyUnasmXLItIAAKDvbdy4eYkxRr7HaxVSZIxGjBjRQBAA0o1fKiCGxo4bWy0nDpNGtzjrJOf0ytp1F5AGAAB9b+euXXMlPtqie7PahAnjKkgDQLpRAAIxVJA/oUyi/EP3WOfknNP6jZvOIw0AAPrW7t17zigtLfskNwCjO7NactbPLyMNAOlGAQjE0ITxEyrca4YEIBWdh4/X1dVftublV2aTCAAAfWfP3r1nVVW/Ks8YZjakPKs5J00YP54VgADSjgIQiKEJE8ZXqGM1F9AdxhgZY7R+40ZWAQIA0Id279lztjGePN9nZkM3OI0bN66KHACkGwUgEEPjxo2t4jBpnA7f9yQZrV+3ngIQAIA+tG37jgXJFV3cAozUBYGv8ePHV5IEgHSjYQBiKD8/v9zzfYJAtyXPIHLaf6DwK+UVFQkSAQCg9+0/UDjylbXrv+ScVRSx+g/deAH3/I7zvgEgzc8fIgDiZ9LEia25I0Y8r44tnUCqOi8COVR8WNu375hPIgAA9L79Bw7Mam1tVSIRsP0XKemc6UePGvX0uHHjLIkASDcKQCCmpk2bcpDyD93lnFMikZAxnrZt37GARAAA6H2rX3rpEuecbESPg9QZYzRzxvQDJAGgP1AAAjE1deqUQ5LkUQKi25KrALdt20YBCABAH1ixYtXl6lh5D6T04t0x00+eMvkwaQDol+cQEQDxNGXy5GLJyHgUgOieMIzknNWal1/5l8KiolwSAQCg9+zctWvcwUOHrnYdx24AqUjO9EaTJ02iAATQLygAgZiaNHFiSfJDIYMluie5DThQU3OLdu7YNZdEAADoPS+88OIbo8hyTjO6O6HJGGnypIkUgAD6BQUgEFOTJye3Bxj+THEabGTlnNNzL7zwJtIAAKD3rHxpzWWSke8zoyF1nTP9xIkTS0kDQH/gVwuIqdGjRx2xzspavjCj+zpvA37hxRVvJA0AAHrHgcKivP37DtwgOTnLLg2kxhijMIpkrdWokSOPkgiA/kABCMTUiJwRDQUTJihyjotA0G2dZxJVVlW/deWq1XNIBACAntu8efPi8ooK+b7HBSBI/aW7Y5afNnWKckbkNJIIgH55FhEBEE+TJ09qmTpl6q/N8UODge7xPU/GGD3z7LNvJQ0AAHpu3YYN5xtjZIzHBSBImel4654yefItEwsKjpEIgP5AAQjE2MRJ+aXGGBlRAOJ0hs3kv5tXXll3AWkAANAz5RUViRdXrPyRdU42iggEqc9kSn6UnTiJ8/8A9B8KQCDGJhYUlMoYiS3AOA1Rx0Uge/bu+8iKFSu5DRgAgB7YtWv3nJKSMgW+UWQtgSB1HfN8QX5+GWEA6C8UgECMFRQUlMk5SWwxQfc555RIJBRFVmvXr19KIgAAnL6nn1n+NuecHN0fusEYI+ciOetUUEABCKD/UAACMZY/YXy5kdTeHnITME6Lc1bOWa1a/dKlpAEAwOl7Zvlzb3XOcfkHui0MrYLAV/748eWkAaC/UAACMZafn18+5ozRkjHcBIzTHDgjecZo3YZN16/fsGEaiQAA0H1PPv3MeRWVlW9Txwp7IOUXbmNkjNGY0aM1IX9CBYkA6LfnEREA8TV3zpyqUaNG3Uf1h54wXnLwfGb5c9wGDADAaXj0fx97tzFGvsfrE07PmNGj7j7rzDNrSAJAf+EXDIi5M0aPeVXGHL/RFeiuKLJy1urhRx+9ijQAAOiew4dLhm3YuPFbJIHTYbzkBSBnjB37KmkA6E8UgEDMzZg5vVDOyVm2m+D0dG5VOny49J3PPvfcIhIBACB1q9esuaSkpEy+73H7L7o/h1knOafZs2fuIw0A/YkCEIi5s2afucdJHDiNHvE9T8YYPfzoY6wCBACgG1auXHWZMUZG7MZA90XWyjmns2bP3kMaAPoTBSAQczNnTD9gOHAaveSVteu+U1xcPJwkAADo2p69e8c8/uTT37LWKowiAsFp8T1Ps2bN3E8SAPoTBSAQc7Nmz9ofBAFBoEciaxUEvkpLy/X8CyuuIBEAALr2/AsvXhGGoRKJgI+xOG2JrMTapeefX0gSAPoTBSAQcwX5+W0FBRMelUne5Ar0iJGeeuaZKwkCAICu3X33PR+21ikMWf2H0xi7Oub3qVOnHCINAP2NAhDIAHPOPnuXkeRRAKIH2ttDeZJWrFh948aNm6aQCAAAJ/fsc88t2l9YdLXkWP2H03vZ7pjd586Zs5M0APT7M4kIgPibO+fsnZKR8SgA0TPGM5IxeuSxx95DGgAAnNwDyx66xhgj3+OVCT2bu+acfdYu0gDQ3/g1AzLA3DlzdhojtgCjx8IwknNW9973wM8qKyt9EgEA4PV27Nw5/sWVq7/Juj/0ROfd0awABBAHFIBABpgyZXKxdU42spSA6Pkwaozq6xv04MOPvI80AAB4vSeffubt9fX1SgSBImsJBKc1b7WHoTxPKijILyMRAP2NAhDIAKNHjz4ye8Z0Wec4BxA9f/B3/Bt6+JH/vYo0AAD4a1VVVd5DDz5ym3NONuLyD5z+vGWM0dlnna3Ro0YdIREA/f5cIgIg/vInTGifNWvWf0pGns+fLXrGdhxkvnX79o899vgTF5AIAAB/seqlNZceLC5WEPis/sPpv2h7nowxmj1r5nfGjh3LbnIA/f9cIgIgM8yYOb0wuf2XFYDoGeecAt+XMR6rAAEA+Bt/uP2OTznnFIas/kMPJA/w1vTp04oIA0AcUAACGWL6tGlFTk7OMYyi58IokifpsSee+vq69eunkwgAANIzy589Z+PGzZ90zsk5Fm3h9BhjZKNIzlpNn0YBCCAeKACBDDFt2tSDw4cNUxhyEQh6zjkn4yXPprnrz/d8hEQAAJBuu+OPnzTGyPd4TULPRNYqLy9P06ZOPUgaAOKAXzYgQ8ycPv1A/vhxMsZwEQh6RRhGcs7qwYcevXnv3v2jSQQAMJitWv3S2ateWvNF59zx83KB03rJ7rgAZPy4sfctWXJOMYkAiMWziQiAzDBu3DhbMLHgFsnIeBSA6B2+5ykMQ/3utj9cTxoAgMHs/mXL3m8jq0QiwfZf9EhyVjeaOmXyIdIAEBcUgEAGmTd3zg7JyVmGUvQeJ+l///fxH+7atWssaQAABqONGzdPue/+B/8jeflHSCDokSiykpwWLFiwjTQAxAUFIJBBFi1YuMU5p8hawkDvDKjWKhEEqm9o1L33L7uWRAAAg9Hvb7/97zuPWWH1H3qq8xKZhQvmbSUNAHFBAQhkkAUL5m0LAv5s0bvCMJS1Vnf/+Z5b9u3bP4pEAACDyabNWyY/9PCj3+YjK3pTVlaW5s+fv50kAMQFTQKQQaZNm9Y4aeKkR9RxsDDQG5xzCgJfjc0t+uOf7vo4iQAABpNf/+bWz6njXFygp0zHnH7mrJl3TRg/nv3kAGKDXzkgw5x77pINpuN2MaC3hGEkZ63uuPNPP92xc+d4EgEADAYrV66a8/gTT/5fbv5Fr71gd8zo5563ZANpAIjV84kIgMxy7jnnbDDGyPDXi16WvBE40i9//dvPkwYAYDD4w+1//JSTlAgCzv5D77xg+56MMVpyzuKNpAEgVs8nIgAyy4L587YlB1RWAKJ32Y4Dqx959LFvr3n5ldkkAgAYyJ597rlFTy9/9queZ9TOzb/oBcYY2cjKOaezzzprN4kAiBMKQCDDjJ8wvnLKlEkKI8tZNehVzjklgkDWOv321t99hkQAAAPZ/9zyiy9KkrOs/EMvvVwbI+uczj7rTI0bO7aKRADE6hlFBEBmmVhQcGzh/AXfNcbI8/kTRu9qD0P5vtHTy5/76mOPP3kBiQAABqLbbv/juzZs3Pz3njHc/Ivee7n2ktt/FyyY941x48bxDwtAvJ5RRABknrlzz95pZNgGjD4RRcl59Uc//slXSQMAMNCUlZdn/eq3v32UJNDrTHI+P/tMtv8CiB8KQCADnXnmmXutjdTe3i7DbcDoZc45ecZo//4D1/zil7+6lkQAAAPJH26/41OlpeUKfJ/Vf+g1xhi1t7fL943OOmv2HhIBEDcUgEAGOnP2rL2TJhXIGCOPAhB9xEn6xa9vvWf/gcKRpAEAGAg2b9k66be3/uFX1lqFUUQg6L0Xa2NkjNHkiZM0e/bsfSQCIHbPKSIAMs+M6dPrJ02c9BvJyHgUgOh9kbVK+L5q6+r0s5///EYSAQAMBD/8rx9/LQxD+Z4n57j8A70nOZMbTZoy6ZaJBQXHSARA3FAAAhlq8eKFmyXHzXXoM+1hKE/SA8sevunpZ5YvIREAQCb7011/vnLFylU3cvEH+kLyDGWn8889dx1pAIgjCkAgQ124dOnLzjkGWKTFD370X/+HFAAAmaqsrCzrJz/92ZMkgb7inJNzThdecP7LpAEgjigAgQz11re8eVN29vA1JIG+FFkrzxjt3XvgA9/9/g8+RyIAgEz045/+7CsVlVUKAi7+QO/rvJRv1KhRL1580UV7SQRAHFEAAhlsyTmLN5qOA4eBvmKdk3NWv7n1979a/dKas0gEAJBJnnjq6fP/fM993/eMFIZc/IE+eKnumMdZ/Qcg1s8qIgAy16WXXLxKxsj3+VNG33HOKZEIFEVW//Hd73+TRAAAmaK6utrcdPN31+r4By3OTkbvM15yFeAlF120mjQAxBWtAZDBzl2yZEPy/xhm0bfa20MFga/tO3d99Ef/78efIhEAQCb40Y9/8tXDh8vkGUP5hz7jbPKD6eLFizaTBoC4ogAEMtjkSZMOF0yYoDC08j3+nNG32ttDOWv13//z89+vWLFyLokAAOLskUcevfiuu+/9T88kV/8BfcH3PFnnNHv2TBXkTygjEQBxRWMAZLBJkya2nn/ekps8z5NHAYg0DbnGGH3jW9+5mTQAAHFVXFw8/N//47urJcl4rP5DH75Q+76MMTp3yZKvjx8/nkMmAcT3eUUEQGZbvHgxWw2QNpG1CgJfhQcPve+r/+fr/0oiAIA4+s5N3/12VXWNfN9w8Qf6lHOR5KRzFi3aRBoA4owCEMhwC+bP2zZs2FC1hyG3ASMtwjCSZ6S7/3zfD+69/4E3kQgAIE5+9Zvfvv+p5c9+LVn+WQJBn/E9T2FoNWpUnhYsmL+NRADEGQUgkOEuvGDp/ulTp95luA0YaeKcO36T4je+9Z1nt+/YMYFUAABx8NKal8+8+Xv/eZ9zTlFE+Ye+ZTwjYzxNnTrltoUL5nP+H4BYoy0ABoDOL47O/n/27jo8iiQNA/hX1R3cFogLwS0QICEEd3cIBAjuBAgaEtw9sLjL4s4uC4vLssji7h6CBHed7q77Y2ZCdm93scj0zPt7nrvb27vnrvtlprvqm6qv0N8GEoYQgiTO6e3btxTWd8BYJAIAAIktOvqBHBrW9zIRkSxL6PsH8T8e0gQRCSpUsOAJpAEAlg4FQAArUKJ4sf1CCFI1/NINCcfcD/D02XPN+/Tt1weJAABAYho0ZNiwyNtRJMsS+v5Bgo2FhBBUqmSJP5AGAFg6FAABrEBR/yJ/Jk+WFEFAgjMYFJI4o+Ur1oydN39hHSQCAACJYeKkSc03b93elzNGBoOCQCDemXtvp02bZl/5cmVPIxEAsHQoAAJYAUdHR7VwYd9pjDEcBAIJTlU1EkKj4aNG/7x37768SAQAABLShl83Fp84adoiITTSsO0XEmoibRp3lyxebB/SAABdPLcQAYB1qFShwnbGGMmyhDAgQZn7AaqqRr36hJ+7detWKqQCAAAJ4eSp0+5hffvvN7+L0PcPEmwiLXFijFGFCuV2Ig0A0MVzCxEAWAdfn0LHNE0jTdWwChASnKppJEsSRT94QF1CekxDIgAAEN/u3LmbrHvP3rdfv3lr/CEKvZAhgTDTVnOJc/LOnx/bfwFAF1AABLAS+fJ53ffzLTRPE4IkCV9tSHgGRSFJYnTqzLkWbdp1xMnAAAAQr3r1CZtw/cYtkiQU/yBhSRIjxjiVKFFsco7s2Z8iEQDQA1QJAKyIX+HCRxjjxBi+2pA4FEUjSWK0bcfOPoOGDgtBIgAAEB+69ew98MCfh4MliePEX0hwjEnEGKPCvj5HkQYA6AWqBABWpGChgic1TSVFUbANGBKNqmrEGaMFCxdPnjlrdgMkAgAAcWnEqNEd163fMEzijBQFJ/5CwjJu/zWQLEtUqEDBE0gEAPQCBUAAK1KoYIETWbNkNn65UQCERCKEIE0IEkLQyDHjVy9fuaoSUgEAgLgwfcaswFlz5s/kjLDyDxJnAm06/Td71iwrSpYsfhGJAIBunl+IAMB6ONjba3nz5BlBhOIfJK7YpzGGhvXbtm3HDh+kAgAA32Pp8hVVRo2LWElEpOG0X0hk3gW8cfgHAOgKCoAAVqZixfI7hNDQDBsSnappJHHja6Zjpy7H/vhjXx6kAgAA3+KXDb+WCOs7YAsJQZwxEigAQiKOb4QQVLVyxS1IAwD0BMuEAKxQnnzef7x4+bokwwAZLIAsS6SqGiVLmoQW/bQgV/Gi/peRCgAAfKkt27YX7hTc9YhBUUjiOPEXEnHybBpbOzrY7zhx9BBanACArmAFIIAVKl2q1F7GGPoAgkVQFJUkidO7Dx+pbbsOl44eO54ZqQAAwJfYsXNXwS4h3Y8YFMX4gxKKf5CYk2dT/7+KFcrvQBoAoLtnGCIAsD7VqlbZzBgjLuErDpZBUVSSJU6vXr+hFq3b3jh67BiKgAAA8J927tpVoGPnric+fPhIsizh0A9I/MmzxIkxRpUqVtiONABAd88wRABgffJ55T2bJk0aMhgUYlgFCBbCvBLw5ctXFNS89Y0DB/7MiVQAAOCfbN6y1a9DcNeTHz58JM4Yin+Q6CTOyWBQyMXFmXLnyonTfwFAd1AABLBCnp6er0uXKjGcc06yJCEQsBjmIuDbt2+pVbsOl/YfOJgLqQAAQGy/bPi1RHCXboffv/9AkoSef2AhE2dJIs45lSxRvK+Li8tHJAIAunuOIQIA61S0iN+fgnDUD1gecxHwzdu31KxF64tbt233RSoAAEBEtGLV6oqdQ3rsM/f8w8o/sASMMdJUlYQQVLSI359IBAD0CAVAACvl71/kkKO9vbHYwvFVB8ti7gn40aBQm/adjq5as6Y8UgEAsG2zZs8J6N2n73YybbdE8Q8sZtLMGGlCkIe7G/n7+x9CIgCgy2cZIgCwTtmzZXuWzyvPBCJGjGMZIFgeRVFJlo2voZ69++6cM3d+PaQCAGCbRo8b327E6HFrGGMkcWz7BctUsID3MFcX5w9IAgD0CAVAACtWuVLFbUII/IIOFuvTClVBw0aOXjdwyNBuSAUAwLb0Cg3rO33GnDnmf4/iH1gaVdNICEHVqlbdjDQAQK+wLAjAij169IiVLFNee/X6DcIAy34ZxZxWzahGtSojZ82YOgCpAABYtwcPHkg9Q8Mm7t13IETiOOkXLHeMIoQge/sMu04dO1IBiQCAXmEFIIAVs7e3F+XLlR1m3k4DYKmEEEREJElEmzZv7V83IHDu7du3UyAZAADrdOHCBYeg5q2UvfsOhMjo9weWPGFmjBhjVLVy5S1IAwB0/TxDBADWrWaN6hsZY8QlfN3Bshm3q2sky5yOHjveNiCwyZt9+w7kRjIAANZl67btvoFNmj+4dPkKSZzIoCgIBSwW40TEGFWtXAkFQADQNVQEAKxcPq+8Z50dHclgULAKEHTBYFBIkjjdux9NTVu1vrB0+YoqSAUAwDrMmDm7Ydv2nY4+ffaMJImToqDfH1guiXNSVUHZs2Wh3LlzXUQiAKBnqAYAWDlXV9cPFSuW78k5Jy5JCAR0QVFUkiRGikGh8H4Dt/QfOLgHUgEA0LcevUL7jxoXsUqYCivY9gsWP1mWJGKMU8UK5TvY29sLJAIAun6mIQIA61eqZIk/NE0jRVFiHbYAYNkURSPGGHHGaPHS5RPr1G8w78rVq+mRDACAvpw4ccqjXMUqq9es+2UENx2qgJN+wdIxxshgMJAkcSpZvPg+JAIAeocCIIANqFyp4vG8uXOtIFMjYwC9EEKQqmkkSZyOHT/ZpkFgkycbft1YHMkAAOjDosVLq9cPbBx55eq1BrLMSdW0mIOfACyZJHFijFH+fHkXlixRHNt/AUD3UAAEsBElShTbjxRArwwGhWRZosdPnlLnkB77+4T364NUAAAs173795N0DO4yov+gIZs+fvxIksTIYMBhH6AfqmpcpVq+XNldSAMArAEKgAA2om6d2j8TEbbcgG7FPshm+co1Y8uWr7TmwME/cyIZAADLsmXb9sL1GgR+2LRlW3/OmKnfH8YfoC9CCLKTZapVs8avSAMArAEKgAA2Ip+X1/3CPgXnMcbQBxB0y7x1TJY5Xb1+IyCwSbNLY8dHtEEyAACWYciwEV3atu905M6deyRLxi2/+PER9Ebixu2/pUuVmJDZ0/MVEgEAa4ACIIANqV+/3jrGGMkyTgMGfTMYFJIkRkIImjp91rzGTZtPvXTpckYkAwCQOI4cPZqlSrWaS+ctXDSVMUaSxLHlF/Q7STb1/6tXt856pAEAVvNsQwQAtqN4saIH0qRORQYDTgMG/TOfEixJnPbtP9ilbkDDRzNnz2mAZAAAEtbYiIg2AQ2bXD934WKQxJnpGa0iGNAliXMyKCq5uDiTr6/PMSQCANYCBUAAG5LZ0/NV9epVwzjnJMsyAgHdE0KQoqgkSZxevnpNI0ePX129dt1F+w8czIV0AADi1/YdOwtVqlJj+dTps+epmkacMVIUFaf8gr4nyJJEnHGqVqVyFxdn549IBACs5vmGCABsS9nSpfdomkaKglWAYD0URSWJc5IkRqdPn20e2KT5xUFDhoY8evQIH3IAgDgWFXUnee8+4eGt2nY8fuHSpcYSJ2KModcf6B5jjAwGA0kSp3Jly+xGIgBgVc84RABge6pUq7n03IWLQRyDdbBCEjc2nWeMU+ZMHhQW2qtojRrVDiEZAIDvt3TZiio/Tp665cGjR0RCEMYSYE1kWSJV1aiwr8+8n9euaodEAMCaYAUggA0qX77sLiIiDVt0wAqZJ6KyzOlmZCR16Nz1z/YdO486feasK9IBAPg2fx4+nL1ho6AZ4f0Hbol++JAkbmzDgOIfWNUYQjV+nqtVrbIZaQCAtcEKQAAbdO3a9XQVqlR/ZjAYEAZYNfMv+UREksSoebOm3du3aTPH3d3tHdIBAPi8y5cvZ5g7f0G7FavWjmaMETe1D0HhD6xV6lQpac+u7UmcnZwwUAYAq4IVgAA2KFu2rM/LlSk9njFGEsdjAKyX+RRKY2N6jX5atHRS3YDAt3PmzquHdAAA/t29+/eTjBkX0bZarbqPV65eP9r8LNWw6g+slMQ5McaoRvVqfVH8AwBrhJk/gI1q0rjhcmKMuITHAFi32FvUJInT/QcPaNioMesqV625bMOvG4sjIQCAv5q/YGHtOvUafpg+c/bc9+8/kCR9WvWHE37BWjFu/JzXr1d3HdIAAKt8ziECANtVuVrNZecvXGwiSTxmpRSAtZM4J8YZqapGgoiK+hWe3alju5nly5U7jXQAwJat//mXUtNnzu58+crVhkREsiSRoqoo+oHVs7OTSVE0Klqk8Kw1q5Z3QiIAYI2w9AfAhtWsUW0jY4wYfgsAG6JqGimKSpwZP/mHjhzt0KJ1+1ONgppN++23LUWQEADYmpWr11SoVbf+gpCeoXvNxT/OGBkUBcU/sB0Mh38AgNU/5gDAVl2+fCVDw8ZBj588fUacMfT0AZv0aUWgICJB/n6FZ7dq2Xxh9WpVDyMdALBmq9euLbfwpyWtzp4735Sw4g9seBygCUHu7q60ZuWK5G6uLu+RCgBYI6wABLBhOXPmeFKsqP8IJBE/GGMx/5A4j2kuHfsfkPjMKwJl2fhKPHTkaIf2nboeCmjYeNbOXbsKICEAsDar1qwtX6ZCpbU9e4fvOnvufFPOGEkSVvyBbStZongYin8AYNXzU0QAYNv27dufu1HTFheQxFc+PBkzbiHljIT2Lycisv/eXP33Sdbf/zc1ITARS6Q/V1XTTAVaRgW8vRbVq1N7fY3q1TY5ODhgmSwA6NK1a9fTbd66tdqGjZtqX7lyraH5/WI+2RfvG7B1mzas9yhYwDsKSQCA1c51EAEAVK1Re4l5+w8mAJ95aDJGsiyToiixHqPGiZPEOUmyTJLEDydLlvz9D2nTPkuZKuWblClTvkmbJvULIqK3b9+lUFVVevHyZdrHjx9nfPnqVRqD4WMRRflUcDISxBkjLkkkhIZDWhLpz1qSTFuDGSMPd1eqWb16+yaNGi7PlCnTGyQEAHpw+sxZ10VLlrbYs+f3kY+fPCUhBMmyRIqCrb4A5u2/JUsUm7Zi6eKuSAQArHp+gwgAYOXqNRVCw/rtkCROBoOCQP5jkKhqGnHOSdM0ypI5M3l4uE3Jkyf3hRzZs1/J5OEe6eToFO3h4f72a/53z1+44Hjv3n2Xa9evZ7tw8VKeW7ciPe/du9/ywcOHxBgnIbSYlYGqqmHClsBkWSLGWEwRNnny5FS/bq3QwAYNVhUsWAArBQDAIu3e83v+xUuXNd+xc3cvc8sJWZJIkMCPSgAx73hOqkY0d+Y0v6pVKh9FIgBgzVAABAC6fz/arm6Dhh+j7twjCYeB/P+DMqZXH6MUKZJTQL06vUqWLLGvgHf+U85OTob4+P+8fPlyhstXruY8e+5cvkOHj/qfPHW6JTFmLP6ZVhuSqX8dJAzzKgEhBDHGiYRG5cqW/rFSxYrby5Urs9vF2fkjUgKAxHTx0iX7PXv2lt2ybXvVk6fPtCTxaYU63hkAfyXLEqmqRl55ci/bunljUyQCAFY/r0UEAEBENH7CxFZTps1cIEkSGQwGBGJ+SJqKbowxahhQr39wpw4zsmXN+jyhr+PU6TNue//4o/TPP2+oe/X6jfoxqzlkmTRVxaQugZkn0xoRkSDycHel4sWKhjcKbLDSp1ChSCQEAAlpy7bthdet+7n+kaPHwp49f24s+kn833vUAgDZyTIpmkYDwkMbdOzQfi0SAQCrn9siAgAgIjp//oJjw8ZB0c9fvsIqQPMD0rzijjEa3L9v/fbt2qy3hOv644/9eVatXRu4f/+BQU+fPSdN08jOTsb27cSYPNjJJIQgVTV+X4QQ5OdbaF7jRo1W+BcpfMjDw+MtUgKA+HDh4kWHXbv3lF+xcnXjyNtRNRljJIjIDtt8AT7LvKrf0cGB1q1entrT0/M1UgEAq5/fIgIAMOvUuevwjb9tGcBRAPzL4LBxowbh48eMHmtp13f5ypUMm37bXGPZ8pU/PXr8hDRNwzavRPysmHNnjBFjjNKmTUuVK5bvV6RI4cNFi/j/6e7u9g5JAcD3uH7jZtp9+/aX3PvHH6V37d7TWxAjzfS8x/Mf4OvHeEFNAvuMHTVyPBIBAFuAAiAAxNh/4GCuwCbNLiKJT2SZ0/bNv2XMmTPHE0u9xqioO8k3bvqt5tz5C1Y9evyEhBBkJ8tkULAiMFFerIyRLEtkMCjEOSchBLm5uVBhH58h1apW2Ywm4wDwtX7+5deSGzdtqnnm7PnQ6IcPjefPCxFzUjkOhwL4ehLntHnTL85eefNGIw0AsIl5CiIAgNjqBQTOOXLseDsyTS5s9uHIGAlB5OCQfufJo0cq6uGaHz16zOYtWNh28ZKlc169eUucKObQCkicz5D5xM1PW4SJ3N1dfqtZo/rGsqVL78maJfN1R0dH7NMDgL+IjIxMeeHipTybt26rtmvX7vIvXr4qyRgnIkGyLBERkaKoeL4DfAPz6r8qFSuMnTd3VjgSAQCbmZ8gAgCI7bfNW4p06BxySJa4TfeUM/f/s7fPsOvUsSMV9HTt585fcJoxc1bwr5s2DyQi4oyhEGgBkw2KtTXPOJEnyprFk0oUL9bTx6fQ8cI+PkexTRjAdp05e87l+PETPkePHy+8f//BgebDPMzPbmzxBYgb5tN/ly9emLdUqZIXkAgA2MwcFxEAwN9Vq1Vn8Zkz55pJErf5JuJ2djLt3Lblh2xZszzX27Xv2Lmr4JhxEeGXr1xtKIQgWeakKJg4JvqLlzGSJNNEXtViis3u7q6UO2eu8WXLlt5TumTJvR4e7jhABMDKnTx12n3X7t3lD/55uNi1a9fbPXtufNWYD3fSVA0FP4A4HtcpikYlSxSdtmLp4q5IBABsah6CCADg735atKTGgMHDNsoyVgESEfULDw0M7thhtV7vY/TY8e2mzZg1J3ZvOrAMEufEJYk0VSVNCCJiJIRx4p8rZ85lFcqX3elfpMihzJk9b7q6uHxAYgD6du3a9XQ3bt7Msm///pI7d++pEBV1t4Z5SG7+7pMgUlRs7wWIj3GdJHFSVY0mRowp3zAgYDdSAQCbeg4iAgD4u0ePHrE69RtqkbejyJZPBDb3iMmWLcu633duD9Dzvezas8d76NCRg2/ciqzLGXoDWuKkhJsKzp+2CTMi099zdXEiv8KFhxTIn+9UvnxeZ/0KF76B1AAs391795KeO3/e68zZc/lPnTpd4PCRoyEfPnw0bu0lY2PQ2EUJPJcB4n9clztXzpU7tv7WGIkAgM3NORABAPyTcRETWk+ZNnO+LRcAybxVRNWoR7cuLXt177ZI7/fTp2+/PstXrB5r3BIs2fwWb4t+QcdsFRakKBpxU/+vlCmSk5ub26rs2bJeLezrc9SnkM9xb+98d5EYgGXYs+f3fEeOHfc7feaMd2Tk7a63Im8T55Kpn9+nrb34IQYg4d+rREQD+4UHdGjfdh0SAQCbew4iAgD4J3fv3k1armLV96/fvLH5waIQgpIlS0rLl/yUrYif33W939PyFSsr9Rs4eJuiqNgSrBMS5zEFQIOimCYxjAQJkhijdOnS7fEv4neoiJ/v4QLe3qecnJ2isWUYIP5dv3Ez7b1791yOnzjhc/DgoWJnzp7N/+r1m+Lm7yiRschnZ2dHQqikqij6ASTmeE6Ph7sBAMTZsxARAMC/GTp8ZOe5C36aJnGy6cMjzFtGsmbNQquXL5EdHR11v2zu4J+HcoSF9798M/I2SRLDSkCdTWLM24VjryBijP3lQJE8OXONy5Yj27Uc2bJdyZI5842CBQtEIT2Ab3f7dlSKGzdvZLl+/VbWa9evZbt65Wr2cxcudHjz9h0Zv4Z//T5KEiehCaz0A7AAdnYyqapGfXr3aNK1c/AKJAIANjmPQAQA8G8uX76SoXrtuo/fvXsfU1iwVbIskapqVLpUiSnLFv/UzRru6c7de8n6Dxg4ctfve3tKHP2ndP0yNxUFGTe+2hXT6cLMdLBA2rRpycnRYbWHu9ttLy+vc3ny5L6QM0f2y1kyZ36J9AD+2fHjJzJduXo1x+kzZ70vX7ma88HDB23v3YsmVTX+YCKEeXWfTEIIPEMBLJTEOamaRvb2GejX9WtTenh4vEUqAGCTcwZEAAD/pf/AwT0WL10+UZYk+mgw2HQW5n6AVStVHDN39oy+1nJfffsP7LVk2coIMrakxwTWSiY7XOJExEhTVVI1jf6+JVGWZUqdOvXePLlyXvD2znc6b54857NkyXIj/Q8/PHVzc32PFMFWXLt2Pd2Tp08yXL9+I+u5Cxe8Ll68nPvSxUu5Xr15U0KYDun4y3ZeWSZixuI6in4Alk+WZdI0jYI7tW/ft0/oXCQCALYKBUAA+E8nT55yb9ik2e23b9/a/CpA4yCSk6oRVa9SedTsmdP6W8t9RUz8seWkKdMXCiFifikHK3nRm7YLG1cIsv8rWJj/c/P329XVmTJ7ek53d3ePcndzjXJ0dHjg5OAU7erqcjdbtqzPkSjo1cWLF+3vR0c737133zUyMjLTnTv33CJv38505erVph8/Gn/gMn83Yn9HJM6JcYbtvAA6ZG7jkv6HdLRuzcr02bNle4ZUAMBm5wWIAAA+p0u3HkN+2bBxsK2fCGxm7iNTrGiRGVN+nBBiDT0BiYgW/LSo1sDBwzZQrO0yYOWDgFjFQS5x0lSNVE0QY6b/jBmLHrIskX3GjJQ+/Q/LXZ2d72bO4nnTw93jtru7W5S7m1tU9uyYUIFlePDggRQVdcc96s5d99tRtz0iI29nunPnrtvTZ8/SP3n6JPDp02ekaSLmEB36yzZejYRGKPIBWBFzAbBFs6CeI4cP/RGJAIBNj/0RAQB8zsmTp9xr1g24jQnRJ3Z2dqQoKuXNnZMmRoxzyps3zwNruK+169aX6dk7bI+qaSgC2vBkiXFj/0DzNkdFUWOKhcSYqWhCRGQsnCRPlmx/Jg+PyMxZMt/MlMk90s3F7Y6Li9O9jBntH6dKmfJ1ihQp3jo5OeK4afhut29HpXj79m2K5y9epLt/P9r53v37Lrejojxu3bzlef3GzayPnzyp/Ndt77E+s0REpmKfeUuvpmoo+AFYuWTJktLWTb+mx49VAGDrUAAEgC/SMbjLiE2bt/bHKsBPzAeDpEmdisaOGlmsZs3qf1rDfW34dWPxkO699iuaSrIk4YRg+MvJw+atkH9/DsQUW4iR+S+FIEqdMgU5OTuRs7Pz1KRJknxo0bzpojKlS51DqvClBg0ZGnLrVqTn8xcv0t27F93qfnQ0cc5jPmMx/Us//Y2/fG7Nn1kirO4DsL1xmqBmTRv1Hj1i+AQkAgC2jiMCAPgS7dq0nmueNH2a6Ns2RVFJkji9ePmKOnbtdnD4yFGdrOG+ateqeWDGtCn+5lWOEserwtYJYSz4qZpxNeC//QjAGSNJYsQ5I0niJEmMXr5+TVeuXqP9Bw52JRKUO1fOi0gUvoaXV95zu3//o8eJU2da3Y+OJjIfdMPJ+HkzF6f/5XNr/syqGg7sALAVjDFSFJXs7GRq3jRoMRIBAEABEAC+kI9Poch6dWsPEUQkSxICMYkpkAlBs+cunFG3foO5Z86ec9H7fVWvVuXw9MmT/GVZIvN2YID/ErvYoigqGQyKcfIly8QYoxbNg7ovnD831Fp6ZkLCaRgQsHvtquXZ06ZORcSMfVgNikKK8qm4J7CyDwBikWWZOOfUpFHDnrlz5XqERAAAUAAEgK/QpFHgcolzMigKVgHGYu41JUmMjh4/2bZeg8C702fMCtT7fVWvVuXwxPFjy5jvEUVA+PoJGCdF06hpk0ahw4cMnoxE4Fv5F/G7tmDe7GwpU6Qkg6KSLOOHKAD4ZxLnZDAYKFXKFNQ4sOEKJAIAYITZHAB8saL+Ra5WrVJpROx+YGAkhIjZEvzu3XsaPX7Cyjr1AuYdOnwkm57vq369untHDhtSkzFGmhAo/MIXs5Nl0jSiwAb1+40ZNSICicD3KuLnd33+7Jl5kqA9AQB8BmOMatWq0cfLK2800gAAMD0bEQEAfI0TJ0561KnfMBIHgfw74ymqRKpq3JLWNKhxn47t287K7On5Sq/3NGXa9CbjIn5chkNg4EvIMidVI6pcofy4+XNnhSERiEtbt+/wbdOu41Hz8xbPJAD4u2TJktKWTRsy5Mie/SnSAAAwwk+nAPBVChUqeLt27ZpDGGPYgvUvjH3QtJhVkstWrBpXs07Ay5mz5jTQ6z2FdOm8vFXLZt0FGftvAfwb86mLvgW956P4B/GhSqWKx0YMHVwLK5MB4P/fQZwY59SkcWB3FP8AAP4KIyYA+Gpnzp5zqVazzl1hmnih8frnB6OKohHjnArk91o0ZOCAIb6+Prf0eC/tOgSP3rJ9R7hs6gUJ8NfPukSKqpGjfUZas3J5uqxZs7xAKhBfBg8d3nX+wkVTJImTouBsGQCbn9iaxqSpU6WkjRvWp8+eLdszpAIA8AlWAALAV8ufz+te06BGoZxzknAi8GcpivEADYkTnTp9tkW9Bo1uzpu/sI4e72Xu7Bl9vfN5LVZU9N+C/594KYpKJARFjBvjjeIfxLehgwdOLV+29ERVFSTLeB4B2DpZkohzTs2aNumI4h8AwD+M1xEBAHyLi5cu2derH/jw5evX6MH0NYNTWSJFUYkxRo0aBvSNGDdmjN7u4cqVq+kbNgl68ujxU5LQExBMJM5JE0R9w3o36typwyokAgnhzp27yeo3aPTu7v37hJWAALb+DhLkYJ+Rflm3OqWHh8dbpAIA8Ff4uRQAvknuXLkeNQwMCEHvpa9jLv5xxmjlmnWj69ZvMDcq6k5yPd1DjhzZn0aMHV2QhCBV09B/C0iWjROvypXKj0PxDxKSm5vr+5EjhhQ0n8SO5xGAbWsa1LgFin8AAP8MoyQA+GZ37txJVqlazXcvXrxEGN/ATpZJUVXKkjkTzZ8zO3327PrarjJj5syGo8ZOWMVNjfjRC9I2GQ/90MjJ0ZF+Xrsqhbu72zukAgltbEREm6nTZ8/jpoOYAMCGJrSm3n/OTk7bjh0+UAWJAAD8M6wABIBv5ubm9r5jh3ZBnHOcDPsNDIpCsiTRjZuRFNS81dPTZ8666un6gzt1Wl2jWpWRmhAkSXid2OqkS1WNxZZ+fUNLo/gHiSWsd+/5+b3yLtGEQH9SABsjy8bef12CO05DGgAA/zF2RwQA8D2iHzyQ6wY0NERF3SWOfnDfOHDlpKqCMqT/gRbOm5OpUKGCt/Vy7Q8fPuR1AwLVyNtR+PO3QeaeS3Vq1xg6bfKkIUgEEtPhI0ey1mvQ+BrFWhEEANY+hjKuQs+TK9eK7Vs3NUEiAAD/Dj+RAsB3cXJ0VNq0bFGXGCOGJ8o3URSNZEmiJ0+fUZsOHSPPX7jgqJdrd3Bw0MaOHplboB+gzWGmgm/6H36gsN69xyIRSGxF/Pyud+7UvgPjnGQZJ9QD2MJ7SGjGQn/btq3mIREAgP+G6ToAfLe2bVr/4pUn9zJVxdarb2XeDvzo0RNq26FT9I0bN9Po5dpLFC92qXePbs0Zw6Tblpi3XPXsHlITW3/BUvQLD5uTLbPnOkVR8T4CsPaJrKkHsZ+v79yGAfV3IxEAgM88NxEBAMSF4I7tZxARadhy9c0MikKyLFFU1F1q06Hji3v37yfRy7X36B6ypFDB/Asx6bYNssxJUVTy9Sk0r2WLZpuQCFjU+yi4wwykAGD9zAeQde3ccSrSAAD4PMzSACBO1KpZ42DJksWnkakvGHwbg8G4EvDq1RsU3CVEV5PYwQP6D7WTZfQBtHKMMVIUjYQQ1Dm4w3QkApamYUDA7mLF/GfiQBAA62XcccCoZvVqI8uWLXMWiQAAfB5GRQAQZ7p37TxJCEGaEOgF9x0MikKSxOn4iVNtgrt0G6aX6/bxKRTZs0dIE4ZToa174MAYMcaoSsUK4yqUK3cKiYAl6tU9ZALeRwDWyfhDlEqyJFGnju1nIhEAgC8cxyMCAIgrRfz8rjcKbNCPMUayjALQ91AUhThn9OumzQPHRUxorZfr7to5eEURX985iqKiCGilzCs8g4M7YpslWPT7KKB+3UF4HwFYH1mWiXNOzZs36eadP99dJAIA8GVQAASAONW2dct5qVOlNK5iw9ar76KqGhEJmjJt5vyVq9dU0Mt19w3rPVqWZTIYFKy8sbpJl0SMcapfr/Ygn0IFI5EIWLJGDRus5JyTwWDAswjASkick6IoZJ8xA7Vu0XwBEgEA+HKYnQNAnMqdK9ej5s2btsNU6/sJIYgzRkIICus7YMfRY8cy6+G6fX19brVr26ojY4wkCa8Za8EYI1XVSAiNmjdtuhiJgKUr6l/katXKlUYyxoijAAhgVdq2aRXo6en5GkkAAHzFeB4RAEB8KF6q7IZbt6NqMVMhC76dLHNSVUFZM3vS2tUruL29vS4CLVux8pqrV68HcMZwMIgVMB/wUqd2zSFTJ00cikRAD06cOOFRs24DrFYFsAIS56QJQXnz5F6+bfPGICQCAPB1sDQDAOJFrx7dJjAirACLA4qikSxLdP1mJA0aMkw3h4L0C+szCn961oExRgZFIUZE9evWWYdEQC8KFSp0u3zZ0j8yxtCWAkDv7yLOYsaYSAMA4OthJAQA8aJe3Tp/lCldcrKqCbJDA/bvZjAoxBnRxt+2Dpg2Y2YjPVxzxQrlTzYODAgXpobdoOPBgunkX7/CvrPLlC51DomAnjRvFrSYxSoeAID+GFehC6pRrcrIShUrnEAiAADfMKZHBAAQXzp36jBdlrhx5RD6L303TQgSQqPRYyNWHDhwMKcerrl7SNdJTo4OpKoqVt/o/LNHRBQQUG8t0gC9qVC+/KkCBfL/pKrG1dQAoC/mVegpkienjh3az0IiAADfBrMxAIg3Rf39rzZsUD+MMY4G7HFACGE6hZXRwCHDhuvhml1dXT8MGTTAn2IVkUB/Ey8hBLk4O29p1LDBTiQCelS3dq2fybSSFQB0NmFljBjj1LRJo84FvPPfQSIAAN/4PEUEABCfQrp0mWJvn55UTcPEKw4oikqyLNHVa9cb9Ozdp58errl6taqH27RqEcIYIzs7bAXWG0nixDinRo0arEQaoFflypbZ7ezoSIqC1cgAesIYI1UIcnd32TRoQL8ZSAQA4NthBAQA8crN1eV9r+7dqzLOsfUqjhgMxsMYVq9dP3Ll6jUV9HDNQwcPnJrPK+8SRVFRBNTZxEtogoSmUcXy5XYgEdArT0/P14V9Cw1HEgD6IkmcGBGF9e41FmkAAHwfFAABIN41DWq8tUQx/+mKoqH4E4cECRo9ZvyO6zduptXD9Q4bPHCQJEtkMChYgaMTsiyRRkQVy5edkM/L6z4SAT2rXavmBiEEqZqGMAB0wHzwR5WKFcbWqV1rPxIBAPg+mIEBQILo1rXLZM5Mq9ewFfi7qZpGdpJMT549o9FjxvXVwzX7+vrcGty/X238+etPubJldyMF0LvKlSoe9/Bw20Sm1a0AYLnMB38kS5qEunbtPBWJAAB8PxQAASBBFPUvcrV5s6AejDEcCBJHDIpCEme0dfuOsCVLl1fVwzW3btXi16ZBjUI1QVgNauEkzklRVHKwz0D+/n6HkAhYgzq1av7CGCdJwhAYwKInqaZDe9q2btXOO3++u0gEACAOnq2IAAASSkiX4ClOjo6kCoHVF3FEVTUSQtDoseM2X7t2PZ0ernnMyBERhX0LzUM/QMvGOCMiRrly5pyaI3v2p0gErEGZ0qV+RwoAFv7+YYw0ISiLp+fP4X16z0MiAABxAwVAAEgwDg4OWr/w0NLM1NQZvp8QgmRZopevXtOYsePD9XLdEyPG9nR0dIg51Rgsj6pqJEhQ+bJldyENsBZZMme+kStndlJVDb1IASx1gmr6kbhveOhopAEAEIfPV0QAAAmpXt06f1SpVHGsqgmyk7H6Ky6oqrGh/dYdO8NWr11bTg/XnNnT89WkCePzSJJxmykm4pZHCON3tGIFnP4L1sPe3l4UL140hDFOXMKPDwCWxk6WSSOienVrDa5apfJRJAIAEHcw4wKABNerR8iENKlSmnrY4TH0vYQQMSsqIyZM3nX37r2kerjukiWKX5w8MaIkMUaqhtU4loSZei8VyJ9vvoeHx1skAtbEz8fniKappCg4lArAkkick6KqZJ8hPfXoFvIjEgEAiFuYbQFAgsudO/ejzsEdG2HiFXfMW2nvRUfTpClTu+vluuvUrrV/yIB+9cz9fvCZsJBJmMSJGKOyZUvvQRpgbQoULHDKM5OHcSCMZw6AxenRLaR6Zk/PV0gCACBuoQAIAImic6eOq/wK+87VhMDKrzhiMChEQtDylavH7Nnzez69XHe7tq1/7tKpfTuKdeofWAJBRfz8DiMHsDauLi4fsmT2nETETIfdAEBik2WJNCGoVKniU5s3C9qMRAAA4h5m3QCQaML79BojhCBV01D0iauHuqmANv7HSaG6+iyE9ZnXpHFgmCZQBExsEuekqhplzpSJMmXyiEQiYI18fX2OEYmYHqoAkHgYY6adDDKFh4aOQSIAAPE0V0QEAJBY/AoXvhHcqX1HxjlOgo0jqqaRJHE6c/Z8sxmzZjfU07WPGz1yXONGAeGaECgCJubAgHNijJF3/nxDnZ2cDEgErJF/Eb9DZOqhCgCJS5YlYpxT95DOzfLn87qHRAAA4mmcjwgAIDH1Dw+bnStH9lU4CTbuCE2Q0DSaOnXGqmvXrqfT07WPHzN6bLMmjXqjCJiIGCMiRnly576AMMBaFfHzu54xY/pdZFp9BACJQ+KcFEWlgt75fuoe0nUpEgEAiD+YbQNAohvYL3y4EII0rMSIE6qmkSxzevXmLU2fOauz3q5/9KgRE1o0C+qpmT4OmJwnHMYYGQwGEkKjHDmyX0EiYM2KFPY7zBjDQSAAiTxmkSROA/v3HY40AADiFwqAAJDoSpcudb5DuzadGWNkZycjkDigKBoJodHqtetH/Pnnoex6u/6Rw4f+2LlT+/Zk2qKH1aEJNCgwrbp0d3elHNmzoQAIVq1AgfyniOEgEIDEYmcnE+ecunbu1MqvcOEbSAQAIJ7H+ogAACzBoAH9ZuQ0bQVGP8C4IZl6uU2cNKWnHq+/b1jo3NEjhlajWKsaIX4ZCyGMnByd5nl4eLxFImDNvPLkOcewyhggUdjZyaQoKnnn91rUu2ePn5AIAED8w2wKACxG/75hI4UQpCgqJmRxwNxH78/DRzquW/9zaT3eQ7OmQVt+WjCnUPLkyUhVBVaIxjOhCSISlDWL53WkAdbOxcXlXtKkSchgUPDOAUhAxnYTChER9QsPG4VEAAASBgqAAGAxypYpfbZ1q+bdGeMkSXg8fS8hRMzWthmz5gTr9T4qli9/ctXypZ6ZPNzJfFgMJuvxQxOCBBHlzZP3PNIAa5c1a5YXXnlyz2eM4Z0DkIAkiRNjnII7te9QrKg/2k0AACQQjHYAwKIMHzJ4cq6c2Vepqoa+b3HAvKX68tVrDWfPmVtfr/fhU6hg5Po1K+VqVSqP1oSxuIktwXFPCEGMiHLnznURaYAtyJY9+zXGGDHCjwoACUGWJVJVjbzzey3uF9ZnDhIBAEg4mD0BgMUZOmTQYCEEqZqGlV5xwGBQSGgaTZk+a+3du3eT6vU+HB0d1TmzpvcLC+3RhIiwJTieJE2a5Ih/Eb9rSAJsQSYP90giRoR3DUC8Y4wZV/JLnIYNHjgIiQAAJCwUAAHA4hQv6n+5e7curRnjOBAkjkic04sXL2jajFld9H4vXTsHr1j60/z8WbNkXq+qxiIxVovGzcSMMUbOTs73kQbYClcXl7tCaKSp6D0LEO9jEYkRY5xCe/Vo7ONTKBKJAAAkLMyYAMAihfbssbCwT8F5OBU47ghB9MuGXyPOXbjgpPd7KVu2zNm9u3fUb9WyWTchBGnCuBoQE/jvGBCYssuVM8clpAG2wtnJ6X7y5MlJ1TSEARCPjFt/BRUtUnhWl+BOK5EIAEAijPcRAQBYqsGDBgxNmjQJKYqKML6TqmlkZyfT6zdvacWKVY2t5b6GDR40ZfniBV7ZsmVZp6qaqTcgCsbfQpJlImLk4eF+G2mArXBydopOnz4dMcZiiuAAELfMW39TpEhOQ4cMHIxEAAASBwqAAGCxCnjnvxPWu1d9xjkOfIgDiqKQpmm0bMWqiefPX3C0lvsqXbr0+d93bg8I6dKpdbJkSSn2tmCsCPzvCVnsjAwGhYgE+foUOoZ0wFZk9vR8lf6H9EuJKObUdACIW+ZTf/uHh9XIkzv3QyQCAJA4MKMGAIvWvl2b9ZXLlxunqkR2Mg58+B7m1XGKqtJPS5a0tLb7C+3Vc+GmDesdataoPkIIIk0IEkLgc/M3jDGys7MjImNGRERp06ahdm1adNm88RfXalWrHEFKYEsyZEj/BIeAAMQPO1kmVRNUs3rVES2aN/0NiQAAJOI8ABEAgKW7detWqoDAoFf3HzwgiTH0aooDsszpt183OHvlzRNtjfe35/e9+ebMX9B+374DXRhjxDkjoQmb/uwwxkiWJTIYFOKck6ZplD+f19KaNapvDKhfd62DvT2+WGCT+vTt12f5itVjOd4vAHFK4pw0IcjV1ZnWrVqZ3M3N9T1SAQBIPFgBCAAWz9PT8/WwIYOKsFgrluD7BuSqKmj23HkdrPUey5YpfXbFkkVdl/w0P3+VShXHqKoW89mROLeJ7cES//9TtFVVI3v7DNSiWVCPBfNm+W7ZtKFZcMf2q1H8A1vm5OgUTXi/AMQ583dq6OBBhVH8AwBIfFgBCAC6MWTYiC7zFi6aKkvc1K8MvoXEOamaRsmTJ6NVy5d6+hQqGGnt93zg4J85l69Y2WTz1h2DDIaPMX9flmXSVNVqVv1InBOXJBJCI1XVTK95QcmSJaXiRf0n1qtbZ33BAt4nPTw83uKbAGC0fOWqSqFh/bYhCYC4Y2cnk6Jo1LFDm04D+obPQiIAAIkPBUAA0JXqteouOn3mbHPzVkb41oG5HamqSm1at+g6ZOCAabZy37du3Uq1bMXKoB27dle8eu16fc6MW2Ht7OxIU9WYvoG6eYmbTi5lnEhoxtUWjHESQiMXZ2fKkzvnhPLlyu4qXarUXg8PdxT9AP7Brt27vZu3ancKSQDE1RhDJkVRqVBB74W//ryuNRIBALCQuQMiAAA9OXXqtFv9wMZR799/iFnJBt/w8GeMhBCUIX162rRhXUpbXBG2adNm/30HD5Tctev3cQ8ePiQhBAkSRMJ0Qq7ESWjCIoqC5kKfWexrYozF/HnmyZWTChYs0MfHp+BxP1/fI56enq/xaQf4b+fOnXeqXrvOfUXB+wTge8XeZbB+zSrX/Pm87iEVAADLgKMRAUBXChTwvrN4ybLq/QYOxkly30EIQXZ2Mj17/py2bttRhYjW21oGNWpUO0REh6Ki7kw7d/681569e8v+/vu+Mnfv3atKRKSqgohETFbm7bRCCFJVLd6Kgubio7FHobGwpygKfSpNfCoEZkiffo9/Eb9DJUsU25c/f/4zLs5O9+zt7dHIDOArODjYP+RcJqKPCAMgjt5jQwcNrILiHwCAhT2fEQEA6FGPXqH916z7ZYQsox/g9wzQhRCUycN948F9v9dCIkaHjxzJuv/AnyVOnz7tffvOHY9796Lrv3v7jogb8yLT6jtZlogRI0HGXntC+1R3+6/DBGKv5GPc/NeCGBm3I6uaZiz+MUbMVHRkRGRvb0/2GTMs8/TMdCt//nxnChbwPlnU3/8q/sQAvl+OPPkPvnnzpiiSAPh2dnYyKapGjRrU7xsxbswYJAIAYGHzP0QAAHpVoXK1lZcuXwlEP8DveAmYilGTJ44vU79e3b1I5P/9eehw9hs3bma5HRXlERUV5X7zVmTm27dvN33x8lVMfuKv//R1r2H26WVs3pbt5ua62NXF5a6zs9P9TO7ukR6Z3G+7u7lH5cyZ4wn+RADinm+R4lvvR0dXNv8wAgBfx9z3zytP7mVbN29sikQAACxw7ocIAECvjh8/nikwqPmtd+/eEyZt30binDQhqFTJElOXL/kpBIl8mRs3b6Z5+/ZtiiePn2a4F33f5fHjxxlfvHiR9sWLV2mfP3+e7uWrl2kYY+L9u/fJFEWRBSOWIlnyt7KdrCRNkuRDqtSpX6dLm/Z56tSpXqX/If3TjBkzPnZ0dHiQJk2al6lSpniN3n0ACcv8gxKZCvEA8HVjCVXTKEWKFLR6+VKPggW9o5AKAIDlQQ9AANAtHx+fyMVLllbvN3DIb5wxUjFp+2rmwyROnjjZ9eSp0+MLFsCg/UtkyZz5JRG9JKJoIjqPRAD07Yd0aZ8hBYBvxxij/uF9aqL4BwBguTgiAAA9a96s6eaGAfX6C9P2E/g6xgMu7Oj127e05/c9ZZEIANiiNGnTvqS/9egEgM+zs5NJEFFgg/r9WrZotgmJAABYLhQAAUD3JkaMG+WVN89SRVFJlvFY+1pCGE+03bJ1Z1WkAQC2KE3aNC+RAsDXMff9y5/Pa/GE8WNHIxEAAMuGmTIAWIWIsaN7p06dihRFI4nj0fY1jIVTiS5evtxo46bfcAomANic5MmSvUMKAF9O4pwMBoVSp0pJY0YND0ciAACWD7NkALAKefPmeTBq+NBSjDHS0AvwqymKSiQEzZ47vwPSAABbI0syjpIH+AqaEMQYo1EjhpXK5+V1H4kAAFg+FAABwGrUrVN7X9fOndoSY+gH+JWE+TCQU2dabNu+wweJAIAtSZLE7iMR+v8BfAlZ5kSMUedO7dvXrVN7HxIBANAHFAABwKqEhfaaX6Zk8cmKoqEI+JUkzokxokVLlrVAGgBgS2TZTiEiYhxFQID/Ymcnk6oKKlOq5OS+YX3mIhEAAP1AARAArM6YUSPD3d1dYnrbwZfRTKsA/9i3v+vve//wQiIAYCvs7GQDUgD4b7IskaKo5OrqTKNHDOuLRAAA9AUFQACwOm5uru+n/Dghi51sPJ2OMazo+BJCCOOqScZo8ZKlzZEIANgKOzs7FAAB/gNjjBRFJUliNGlCRA53dzccnAMAoDMoAAKAVSrs63tz9MhhFc3FPxQBv4zBoJDEGW3fuTt0565dBZAIANgCWZIVtAAE+Gexx1JjR42sWNS/yFWkAgCgPygAAoDVahTYcGeHdq2DiRhJEmZ2X0pVNSIiipg4uTfSAAAAsG2yLBExRu3bte7cKLDhTiQCAKBPKAACgFUb2L/fzPJlS01UVcKhIF9ICEGcMTp3/kLQzNlzGiARAAAA22RnZ2ynUrpEsSmD+vebgUQAAPQLBUAAsHrjx44OzZbFE4eCfCUhBM2aPW/1tes30iENAAAA22I+9CNL5sw0MWJcTyQCAKBvKAACgNVzcHDQJv04wT11ypSkqBqKgF9A1TSyk2V68uwZTZo8pTsSAQBrJoRAnwiAWGRZIkXVKHWqlDT5xwgPR0dHFakAAOgbCoAAYBMKeOe/EzF+jD8JgZOBv5BBUYgT0S+/bhr8yy+/lkAiAGCtBAlGAjkAkOmwD1XViISg8WNGFy1YwDsKqQAA6B8KgABgM6pXq3p48IB+9RljxFEA/CKaECSEoEFDh++7cfNmGiQCANYIKwABYk0QTWOkfmGhjWrUqHYIiQAAWMnzHREAgC1p367N+lYtmnUXhENBvnBSTLIs0dNnz2jY8JGDkAgAAID1srOTSRBR0yaNQjsHd1yFRAAArAcKgABgc4YPHTy5Yvmy4xXV2OcO/puiqMQZo5279/aaNGVqUyQCAABgfexkmRRVo1IlS0wZM2pEBBIBALAuKAACgE1aMG9On7y5cy9XVJwM/CWMW4E1Gj9x0pJt23f4IBEAsCbYAgy2znjoh0rZs2ahiHGjeyMRAADrgwIgANisyRPHd3Owz0iqqpHE8Tj8zOTYmJEgCuvX/9jlK1czIBUAsKJnHAqAYLMkzklRNcqQPj1NnTTR2dnJyYBUAACsD2a8AGCzcuXK+XjalEk5kyZNQqqGIuDnmDN6/PgphXTv+fjRo0eYMAOAVUABEGyVxDmpmkayxGnqpIl5vbzyRiMVAADrhNkuANi0YkX9r0yeEFGUGCNV04jhdOD/ZJwkSHT+4iUKDes7HokAAADoE2OMNCGIMUYRY0eXK1WqxAWkAgBgvVAABACbV6NGtUMjBg+sxRgjzhiKgJ9hUBSSJU679uzt1bN3n35IBAAAQIcTQcaIiFG/8NDABgH19yARAAArf+4jAgAAolatWmwM6dKpjUZEksRRBPwMg0EhzhmtXvfzyNDwvmFIBAD0TBC2AINtkWVOGhG1adU8JLhjh9VIBADA+qEACABg0qd3rwUN6tUZoGqCJAmPx89RVWPPoBUr144ZOGRoNyQCAABg+WSZk6oR1apebfjQwQOnIhEAANuAGS4AQCw/Thg/skLZ0hNUVZAsSwjkPwghSFFUkiRGCxctnRQa3g8rAQFAr88zrAAEmyDLEqmqoBLF/KfPmDZ5EBIBALAdKAACAPzNTwvm9fYt5D1fVTUUAT8/aTYWATmjFavWjAnp0QuTCQAAAAsky5xUVSOvvHlo6qSJXZEIAIBtQQEQAOAfzJg2JTh7tiyEIuCXURSVZM5p/S+/Dg1q1mLy/ehoO6QCAHohBGEFIFg188o/V1dnmjl9Shp7e3uBVAAAbAsKgAAA/8DFxeXjvNmz0jk6OKAI+IUMikISJ9q772BIUPOWH8+dP++EVAAAABKXLEukqBqlTZuWFsyZ7ZTZ0/MVUgEAsD0oAAIA/IusWbO8mDd7hkfqVClRBPxCiqKRLHO6cuUaBTZpfn/zlq1+SAUALB16AIK1kmWJFEWl5EmT0LzZM3LkzZvnAVIBALBNKAACAPyHggULRM2fNztn0qRJSEER8IsYDApJEqfnz59T+05dDo8eM64dUgEAS4YCIFgjiXNSFJUYYzRrxtSCRf2LXEUqAAC2CwVAAIDPKObvf2XOrOkFJMaMve5QBPws48EgxlfM9Nlz5wQ2aTr98uUrGZAMAFgiRoR+aGBVJM5J1TQiIpoxdVLxCuXLn0IqAAC2DQVAAIAvUL5s2dMzp03xp78Vt+DfqZpGQgiSONGBg4eD69Rv8HjxkqXVkAwAAED8MRf/GGMUMXZUpVo1axxEKgAAgBksAMAXql696uGJEWMrEGOkahqKgF/I3Bfw5avX1G/gkN/adQgeffnyZawGBACLgS3AYC2YaYzCGKNhgwfUbtwocAdSAQAAQgEQAODrBDYI2DViyKBaDEXAr2IwKCRxTpwx2rJtR3i1WnUfT5k2vQmSAQBLgAIgWAPGWMy/9undI6h1q5a/IhUAADDDzBUA4Cu1atl8Y//wPg1j/8oOn6dqmrFoKjF6//4DjYuYtKxytZrLtu3Y4YN0AAAAvl3ssUjXzp3ahnTpvBypAABAbCgAAgB8g04d268J79OrMWOMhBAoAn4F84mEksTo/IWLTdq063QssEnT6fv2H8iNdAAgMWAFIOhZ7DFIh3ZtgsNCe81HKgAA8HcoAAIAfKMuwZ1W9u7ZrVnsLTfwxZNtUhSVuCmzAwcPBTdu2uJCcJeQYQf//DMHEgKABIXnN+j2o8ti3qVt27TsOrB/35lIBQAA/gkKgAAA36F7SNelvXuENIs9EIcvZz4pmJsmMBt/2zKwSbNWl5u2aDVp67btvkgIABKC0LACEPTHXPzThKAWzYJ6Dhk4YBpSAQCAf4MCIADAd+reLWRpl+CO7WIPyOHrxPQH5JwMBgP9vndft7Ydgo/Wqlt/wc+/bCh5PzraDikBAAB8GmsYi39ETRsHho4cPvRHpAIAAP8FBUAAgDgQ3qf3vC7BHWKKgDgd+NsYFCVmUiOEoBMnT7cK6dH7j7oBgR+HjxzVac/ve/MhJQCIa+gBCHpi7KPLSRNEjRrW7ztm9MgIpAIAAJ+DGSoAQBwJ7xM6r1vX4NZERBoOBvmeiTipmvbpRcWJoqLu0px5P81o2abdmbr1G8yd8OOkFufOX3BCWgAQJ88dMhYAhSYQBlg0849kqqpR40YNwiPGjRmDVAAA4IveIYgAACBuTfxxcvOJk6cuMp8OLAQmlN9L4py4JJHBYIgprEoSp3xeXotqVK+6qVTJEn/kyZ37IZICgG8xauy49jNmzp0tSYwURUUgYJkTt1g/LAY1adRn7KgR45EKAAB88XsEEQAAxL3JU6cFjZ8waakQgiTO/7KiDb5v8mNueG4usDLGSNM08vcrPMfHt9Bxb698p/Ply3vWw8PjLRL7vIuXLtlH3o7K5Obqcscrb95oJAK2yFwA5IzwvAaLf/+1atms+/AhgycjFQAA+BoyIgAAiHvdunZZNnvOvPfDR41Zaz7cApPK7yeEIPVvKyo5ZyQEo8NHj7U/cuwEaZpKHh5u1LBR0My8efOcL+Cd/5R3/nynPT09X9tydo8ePWY3b93MfO3a9WwXL1/Jff369awPHz5yCGrWMvDho8fUq0e35kS0BJ8ysMlni+kUYMYZER7VYGHMK/9Q/AMAgO+BAiAAQDzp0L7tutlz5gWgCBiPk3YhSFHUmIbojHESQqOoqLsUFXWv08FDh0kIQbIsU4XK1VYVKlTgRK4cOS9lz5b1qqOj44N06dI+d3BwsIo/lAcPHkivXr9J/fLFizT370c7374T5XE7Ksrj1q3bntev38jqV6xkVVVRSNU002SSGTufmVZSJkmS5CM+UWDzzxT0AAQLY24lwhijTh3aduzfN3w2UgEAgG+BAiAAQDzq0L7tuiVLl1XrO2DwZlXTSJYl9JeKj0m7qRBIpMZsk2KckdCIVCFIURS6dPlK4KXLVwKJMWP/CyEoZ84c1LZ9p7Eurs73HB0cHjjY2z+0t8/4yMHe/mGGDBmeODo6WsQf1qNHj9izZ89/eP7iebqnz56nf/bs2Q9Pnz5L//Tpk/RPnz5L/+jxY/vGzVp0i4q6S+/evzeV9oz3SH/7ayL6Sz5M4qSqGgmhoS0I2PJTBBGAxTH/cMgYox7durbs1aPbIqQCAADfCgVAAIB41qxp0JZ1638uE9Kj9++KoqIIGN/TePM24X9Y12cufDHGyGBQ6NLlK3Tp8tUwxhgRIxKaRnayTGnTpaE0qdNQ1Rq1lyZPnvxd6lQpX2XIkOFJxgwZHv+Q/odnqVKlep0iRYq3yZImfZ8yRYo3dkmSGlKmTPEmWdKk7yVJUoUQ7B+ui334+DHpxw8fknz48DHp+w/vkn348DHphw8fk757/zb5q5evUz9/8Tzd8+cv0j1//jzd8xcv0r1//yHZ+/fvkzVoHNT09as39Pr1a3r1+jUxxo1bFY2VPVNtT5hWO5pXQgoSmulE6r+VN1RNi8mHmS71n64ZwFZomuBEghjn2AIMFiF28W9Av7AGHdu3W4tUAADge6AACACQAOrXq7t367bthTsEdzmqqlgJmBj+Xhg0rxTkEo85E0swoo8GAz16/JQeP35KRNSUiFGsJXVE/7Ci7tMWZEZCfPqvmytq4tOGWxKaiDnEJLb/sXff8TXdfxzHP/fmRu1YCRFJrBBBjBDEjL1H7a0UpapKVVW1FKWtPWvWJgix1UhixV61EzMJMVqb0Nxzzu+PJKqt/iRk3Nzzej4efTx+/Fq55/393uSet+/3fF893VHEIAaDvCz2Xr0GEREbG4MYDMb43xRNVNFUg6giYjarQoMBJI6qqkZhCzAsxMtHhhgMMua7EY27dum0mVQAAO+KAhAAUkj9enWP7tmzr3iP3n3ORkdHUwKmsvhC8J/PZYwvBl/+2hhXDqqavOwG/lHe/bUF+d3Ff+2/vu5f/1/8/4zf7pzEebACEABS++bslc8Gk8f/ULN1q5ZBpAIASJL7DCIAgJRTrVqVc0sXzS9sZ2cnsSsB+TZsabS4UjD+H7NZEbNZEUVVY7fValqyfd1Xv/arXzf+n2T++hSA0K34FYBAajKZbMSsqGJra5I5s6ZXpPwDACQlPuwAQAqr4O192W/5EkdnZydRFI0SEBaBAhA6fwcQAVKVyRR7IFOmjBll0fy5JRo1bHCIVAAASYm7TgBIBSWKe9zyW7YkU3GPYnEloA2hIFXFnRUC6JKqaXwmRqqJLf80yZkju6xYsjB/9erVzpIKACCp8WEHAFKJi4vLsyUL59v4VKwwK74E/PtBEEDK0TSVyQf9zn+V+Y/UYWtrEkXRpGCB/LJq5fJcXl5lr5MKACA5UAACQCpycHBQV61c1rdp4wajFEUTo8FACYjUwbyDjrEFHqnBZDKK2ayKp2cJWb5kUYaiRdz+IBUAQHKhAAQACzBz+tRvunRqPyj+lFdKQKQ4lWegQb/YAo+UZDAYxMZoFEURqVmj6qRF8+ca8+Vzek4yAIDkRAEIABbi+9HfTRw88NNOEnciLM8FRErShBVQYP4Dyc3GaBSjwSCqiLRp1WLY4oULBtrb2/M3MACAZEcBCAAW5NNP+i37adyYuiIiZrNCCYgUwzMAoWeqqvKZGMnOxmgURVVF1UT69enVc+L4H78nFQBASuHDDgBYmPbt2u5YtGBOGbusWURRVEpApBD6P+gXzwBEcosv/wwiMnrkN02+/GLwPFIBAKQkCkAAsEC1a9U6uWzJIpcCrq6iKJrY2toSCpIVBQj0Pf9pwJF8bG1NomqaZMiQXmbPml6xW9fOm0gFAJDSKAABwEKVKV0qYvGi+VnLlS01X1EUMZn4lo3kQwEI5j+Q9GxtTWI2K5Ind25ZsnBBkUYNGxwiFQBAauBuEgAsWIH8+R8HrF3zYfNmTUYo6l8nBwJJjQIEup7/Ks/ARNIyGAxiMhlFUVQpXcpz0Ypli3JUqlghjGQAAKmFu0gASAOmTZ448pO+H30oIqKoPBcQyXK7SgTQLQpwJCUbo1FsbIyiqCKNG9YfvWn92m5uhQvfJxkAQGqiAASANGLI4EHzx40Z1eC9dOniDgfhWziSDqcAQ89UVeMbKpJE/GEfiqJKrx7dPp41Y9pwUgEAWAI+7ABAGtKpY/tti36Z55ErV464w0FMhIJ3+yBgiOv9NLKAflGAIymYTEZRNU1sjAYZPeKbJt98PWwmqQAALOZzPxEAQNpStUrl86tXLs/hWbLEErM5djuwwcC9K96NZmAPMHQ8/9kDj3dkazKJomiSI3s2+WX+nNLdunXhpF8AgEWhAASANMitcOH7WzYGdGnetNFIRdFE0zQOB8FbUbXYpX88Aw16xvzH24o/nMscd9iH/6qVOWrVrHmKZAAAloa7RQBIw6ZPnTziyy8GthcRUTSNw0GQ+A8CcatHOQUVesb8x9uI/4s3VRNp2rjBqE3r13Zzc+OwDwCAhX7uJwIASNv69e2zcsG8n8tly5pFFEXluYB4K6qq8pkAusUKQCSWyRR72IcmIgM+/fiDmdOnfkMqAABLxod9ALAC9erUOea3YqljkSKFV/NcQLwNVeMUVOh4/lOAIxFsbWOf95clcyaZM2Nqxc8/G7CQVAAAlo4POwBgJUoUL34rcPu2Nu+3aPotzwVEYqkKBQj0ixWASIiXz/szq+Lh7r7Cf9XKPI0aNTxEMgCAtIAP+wBgZaZOmvDdsKGD20jcAQ+2JrYE4800oQCBjue/xinA+P9MJhvRNE1UTaRFs8Yjtm/b1KF4cY/bJAMASCsoAAHACvXp3Wv10kULPB3z5BGzynMB8WYcggBdz39WAOL/MJliT/kVEfn6qy9aT5syaSSpAADSGgpAALBSvjWqn161cmnWalUqTzMr6sutS8DrqCrPAISe5z9b4PFvBoNBTCYbURSR3Pa5ZMnCeaU+6tVzDckAANIiPuwAgBUrkD//4+VLFvbv2b1bPxERRdNYDYjXUlTFhhSgV2yBxz+ZTDZx3xtVqV6t8lT/1Suz1vT1/Y1kAABpFQUgAOjAt8OHzfh5xtRK9rlySOwpwXz7x9+xBRK6nv9sgccrTCajKIoqmqZJ3969ei9bvPDTAvnzPyYZAEBaxh0gAOhE40YND/r7rcxWwdtrjqIIW4LxN4qisgIQuqVqbIFH/JZfoyiKiIN9Lpk3e6b3V19+MYdkAADWgA87AKAjhQoVfOi/amXvPh99+JHGlmC8StPIAMx/6Fb8Kb+KIlLZp8LMNatW2DWoX+8IyQAArAUFIADo0LAvh8yeO2t6hZzZs7/cEmwwsANOzzgEAXrGFnh9i9/yKyLSt0/P3n7Ll35csECBRyQDALAmfNgHAJ1q2KD+4bVr/LLXrll9gqKKaJrGlmAd4xAQ6Hv+a8x/HYp/FIaiaJI3Tx75Zf5sr6+GsOUXAGCduNMDAB0rXKjgg4UL5n0+fOgXrUwmo6hsCdbrbbCoKs9Ag36pqmKU2GcBEoZOmExG0TRNVE2kXt3aP67zX5W+bu3ax0kGAGCt+LAPAJDevXr6r16xrJB70SJ+ZkUVk8mGLcE6wymo0PX8j9sCbOT7ni7Y2ppEUTSxNZlk+FdDWs2f8/MQJ6e8L0gGAGDNKAABACIi4u3tfWXnr1vatW/b6ktFUUXThCJQBwzG2PFVVE4Bhn5pKs8A1AMbY+zzbhVFFc+SJZasWrm0UO9eH/qTDABADygAAQB/89O4sT/8PH1qpTy5HURRNDHGPSMJ1o0VgNCz+ENw2AJsvUwmk6iaJpqIdOvSccCWjQFdvMuXv0IyAAC94I4OAPAvjRs3PLh29YrMDevXHatqmiiaJiYTC8SsmaYJBSB0PP9ZAWitDAaDmEw2oqqqODs7yfw5s8qPGjliCskAAPSGAhAA8Fqurq5P5/w846tx349qkCljBlF4NqBVUxROAYZ+xa8AhPWIL/40TRNFUaVF8ybfrlu9yrZ+3TpHSQcAoEd82AEA/F+dOrTftjHAP1ct3+oTFUUTTYt9cDqs6U45dgkgoFesgLUuNkajGOOe9ZczRw6ZNP6HmlMnTfwuT57cZtIBAOgVBSAA4I2KFinyx6Jf5g/68ouB7TNkSC+xJwXzI8SaKCorAKFnFODWwmSyEUVVRdU0aVCv7rgN61Znad2qZRDJAAD0jrs3AECC9evbZ+UavxXO1atVnqqof91sIe1jCyT0Pf8V5n8aZ2M0io3RKIqiSa6cOeXHcWPqzZ09c2j+/PmfkA4AABSAAIBEKl3KM3LZ4oWfjh7xTZMsmTPFPRvQyEnBaZyiqjS50PH815j/aZitySSKqomqadKwft2x6/z97Dq0a7udZAAA+At3awCAt9Kta+dN6/xXOVSrWnmaokjcScH8WEmrVFVj8KBbnAKcNsUf9GFWVbG3zyE/jhtdb87PM74qWKDAI9IBAODv+LAPAHhrxdzd7y5fsqj/qBFfN82eLZsoiiYGg4HVgGmQpqkUINDv/FeZ/2nJyxN+RURRVGnSqMHodWtWZe3Qrh2r/gAA+A/coQEA3tkH3bpu3BiwJuv7zZt+KyKixp0UbDBwT51WsAIKesYW+LTDZDKKpmmiKKrkc8or06dMrDpr+tThBfLnf0w6AAD8n5+hRAAASApxN1/frd+wcdeEiVP2Xb1+XSTuweyKqhKQhaMABPMfls7W1iRmsyIiIu3ath76+WcDxufJk9tMMgAAvBkrAAEASapZ0yb7/VevMHbv1qW/psU+lD3+dEZYLk2lAIGe5z9bgC3Vq4+VUBRVihdzX774l7mlx/8wdhzlHwAACcfdGAAgydnb22sjvx0+zW/5kmIlSxRfqsYVgbYmFp5bKlZAQc9UjUNwLJHJZCNGg0FUTZN06dLJoM/6d/5166aOtWrWPEU6AAAkDh92AADJpkplnwtbN63v/N23w5vlyJ5NzKrKakALRQEIPVNVlW9KFsbW1iSKooqqaVKzRrVJ69eudhrQ/5OlJAMAwNvhww4AINl1/6Drhg3r1mRp1aLZcJVtwRZJ04QCEPqd/0IBbgle3e5rVlRxdXGWCT+Nrb144YKBniVL3CQhAADeHnuxAAApIn/+/E9EZHRQUPD6sT+OH3ru/MX2mqhiazKJWVFE0zRCSi0aBQj0TVVYAZjqNyUmG9HUuL8gMtlIz+7d+vbu+eFsBwcHTpECACAJ8GEHAJCifH1rnN6+dVOHwYM+7WSfK+fLE4JZDZjKKGCh8/nPOyD1vLrdt1rVKtPWr1nlMnzYV7Mo/wAASDrcbQEAUsWnn/Rbtna1n12nju0+12Ifws+24FSkaZyCCv1SVQ4BSWl/2+5rVsXFOZ9MGv9DzeVLFvYvU6Z0BAkBAJC02AIMAEg1BQsUeCQiEw4dPhwwedqMAXv37u8nImJrMomqqi9XByL5cQgI9EzV2AKckmxtTRITYxZVRDJkSC99P+rVtXPHDkvs7e1ZiAkAQDLhww4AINVV8Pa+vGLJok9+HDemXgFXV1Hiyj+TiR9TKUXVWAEFPc9/CsCUYDAYxGQyitmsiIhIg3p1x20KWGs/cMCniyn/AABIXnzYAQBYjA7t2m5fs2q5aeCA/l2yZ8smStwCQBujUQwGFqglJ1YAQs9UlQIwOcU/3kHTRBRFxLuc19zFC+eVnjt75lB396K/kxAAAMmPLcAAAIuSO3duRUSWXL58ZcPCxYu7LVq8bLKqaaJpWtzKEbYFJwcKQOh6/qvC/E8GsSv+TBJjNotBRJydHTcP+mzAhNYtWwatXeNHQAAApCD+thMAYJEKFSr4cNTIEVPWrvErUKeW73gxiCiKJra2JlYDJjlNNI0CBPqlqqqRk7CTlslkI5qmiaIokjN7dvn0k77dD+7b27h1y5ZBpAMAQCr8bCYCAIAlK+dV9pqIDP51x46Vs3+e1/vw8eM9JW5lidFg4KCQd6SpsaUHKwCh6/cB8z9JvPp9WVE0sU1nK507tBvQrUuXhYUKFXxIQgAApB5WAAIA0oR6deocW+vv12v2jGkVPdzdV0jswRVia2sSGyM/zt4VBQj0TNUUvom8I1tbk8R/XxYRadG8yYjNAWvzjBo5YgrlHwAAqY8POwCANKVRw/qHtm/b1GHs6O8aFi5YwN+sqC+LQCSewRjb+1EAQtfY/fv230MMBrG1Nb18Pmst3+oT/VetcJs2eeLI4sU9bpMQAACWgQIQAJAmde7UYWtw4I5WQwcPaudgn0uUuCOD40+bRMLEbwHm+WfQM0VRbEghcV49nd1sVqVy5YozZ8+cVnHRL/MHVazgfYmEAACwLNwhAQDStI/7fuS3fu2ajJ8P/LRT9uzZRdU0UTVN0tnaUgQmAisAoWeqpvHNIoFMJhsxmWxebvUtXsx9+ewZUyr6LVvycaOGDQ6REAAAFvoznAgAAGmds3O+aBFZdjMqavXSZcs7rfRbPf/u73+Iqqpia2uSmBgzIb0BBSB0Pf9V1RD3PiCM/2AwGMRkYyNmRRERkRLFPZZ92KPbvFbvvx/869ZNBAQAgIWjAAQAWI28jo5/isiC69ev+/mtXtN2+Uq/+X/8cf/lzSunBv83VkBBz+ILcIPBQAn4ivjvm/Gr/cyqKp4lSyzp1KHd0g7t223ftnkDIQEAkEZQAAIArI6rq+tTEVlw7dq1VX6r/dsuWrJ03qNHj2MPCzGZRFVVisB/YAUg9ExVVaOwAvDvNwkmoyiK9rL88yjmvqJP716zWjRvunfLxgACAgAgrf1sJwIAgLXKnz//ExGZf/PmzSXLVqzsuGbtugU3b94SLa4INCsKN/xxKAChZ4qqcQhIHBujUYw2xpen+pYp7bmwS+eOi1u3bBm0na2+AACkWRSAAACrlzdv3j9F5JcbN28u37BxU1O/1WtWXb58VTRN+9sWNz2XgUajkSWR0C1bkzFGdLwF+NVHJKiaJqpZlYoVys3u1KH90ubNmu7bGLCWSQIAQBpHAQgA0A2nvHlfiMjqu3fvGrdu295g9tx5va+HRzSNL/9sTSaJMevzwBBbW9sYZgj0KlOmzE8fPnqqu+s2GAxiMpkkJiZG4v8GoGoVn+m9enSf4+tb4/QavxVMDgAArAQFIABAd+zt7TUR2SIiW1atXlPTb5V/24OHD/cyq6rYGI1iMBrEbFb0UQAYDSKKSMYMGZ4xM6BXDrkd7kTduq2ra44/IV1RFEmf/j2pVaPG2M6dOy6pWqXy+RVLFzMpAACwMhSAAABda9O6VaCIBO7Yuevn1WvWtt68ddtQQ9yBuHo4OVhTY7c75nHMc4vZAL0q4Op69dSp07HvdyvdAvzPxx0oiipZs2aRVi1bDGjSqOFG7/Llr8yZPZPJAACAlaIABABAROrUrnVCRE4cO3Z89rKVfh3Xb9g45sWLP0XVNDGZjGIwGCUmxvq2B8ef8FmiuMcZZgH0yqOY+7mAjZtjV8RaWd9vMBjEZGMjZkV5+X63t8+5q2uXTouaNGq8sXChgg9GjfiWSQAAgJXjxD8AAF4jPDw84/KVfh02b94292p4uIgmYmNjEE3VrHJF4Hr/VQXKlfO6xshDj/YfOFi0XYfOF2xsrKvoN5lsRFM1UWNP+pYypTwXNW/WNODD7t0CGHUAAPSFAhAAgP/j7t27hl937Ky3ecvWRnv3hfSTuBtpa9geHHviqUh+V+cN+/cENWO0oVc3o6LStW7b4cW18AixScPv639u8zUYjaKpqjSoV/eHFs2brWvUsP4hRhsAAH0yEgEAAP/N3t5e69Sh/bYVSxd/smLJQo/GDRuMSZcunUjc9lkbo1FsTWnziRo2NgYxGA3SvFkTVgNB1/I6Ov7pW6PaZ0aDQYw2Nmnu9RsMBrG1tRVN015u87XLmkV6dOvcf/OGdc7z5sz6kvIPAAB9YwUgAACJFB4ennHVGv82m7ZsbXzp0pWWBoNBDHEn6qaV04NjV/9pYrIxytbNG3J7FCt2h5GFnu3bH+LeqesH52NizC/fH2nhfWxjYxSzWRGj0SiqqkrpUp6LG9Svu7VNq5arHBwcVEYWAAAIBSAAAO9m9Rp/323bttfftmPnF/Hb7UREbIzGl9vwLJGtra0oiiJdOrUfOGbUd5MYSUDkgx49f9qxK+jz+FLNEtkYYzfwKKoqYhAxGozy3nvppGnTxsPq1a79a726dY4xkgAA4J8oAAEASAInT/2Wb9PmzY3XrF3X6u7v92oZ4p4VaGtrK6qiWNQzxWyMRlE0TRzsc8ra1X5ZC+TP/5gRBGLfx02bt4xQVNXiVgGaTDZiEIPEKIrEf38pVKDAurZtW/vVqVVzR5EibvcYQQAA8F8oAAEASGKr1qypuWHj5qbHT5z89PHjJ6JpWtwJwmIRRWD86sSffvi+bvu2bXYwYsBfJkya0nXSlOkLbWxEzGbLeL8ajAZRlNhSMkf27FKhvNfYVq1arqlbp/ZxRgwAACQEBSAAAMnk5Knf8u0KCqr167Yd9c5dvNhe4k/mjHtul6KoKbrCKPbrGkRVRbp/0KX/yG+GT2OUgH/7oHvPn3YGBX9uY2MjMTExKfvh/B8njBsMRhHRpLxXmXl169bZXr1a1d08sxMAACT6MwYRAACQ/HYFBZVav2FTs+3bd4x88vSZiBhE01SxNZlEEy3ZnzdmMtmIpmqiiUj7dq2H/Dj2+x8ZFeC/tWjZeu6R4yc/NMU9DzC5y3qTySgGQ2zhaDAYRRNVcmbPEdSkccONjRs12FSpYsUwRgUAALwtCkAAAFLQ7du3bbZu297g1x076p0+c67fw4cPRdM0MRoML7f5JXXRYGtrelkwftSrR5+vvxr6MyMBvFmHzt2m7t27/xNVU2OfnZnEW/jjVwNrqiZq3OrgrFkyi1fZMpOaNGm0sXXLlkGMAgAASJLPHUQAAEDq+O30mby79+ypviswqNbRYyd6iMEgmqqJiPbypM/EniQcv33w1TLRaDSKk5OjDP1icJVmTZvsJ3kg4caO+7Hn9J/nzIk/eONt35uvvj/l5Sm+hpeHjVTxqTizetWquytX9tlfyrPkDZIHAABJiQIQAAALcOzYcdedgYG1N23a2vjKtWvNDXElQfxJwnG/EDHIP0oHLe4ZYbH/vqooompa3K81yZo1i3Tt3OnDbl06LcydO7dC0kDiHTp8uNCEiVMG7T9wsE/8e1NExGQyiWiaaKLFlff/+KBtjC344t+fsdt7/3pvFy5UcG2L5k3X1ahePbh0Kc9IkgYAAMmFAhAAAAuzb3+I+8ZNm5scPnrUOyzsciuDwRjX52kS2/39o2gwGGJ/oBsMoqmq5HZwkAL5XWfXqV1zx/stWqy1t8+lkSrw7vbu219s6bIVnU6fPfPV9esRYrSxEfnHSkBNNDG8+hHbYIj7tSYGEXErUnhVpQoVDjRu1HBTxQrel0gVAACkBApAAAAs2PYdO8tGRt7Id/f3u/a3bt/O8/D+Q7vnL16kf/7iRXpFMdtkzJjpWeZMmZ7kyJn9Xj4np0iXfPnC3d2LXihatOgfpAckj8gbN9KfPPlb6YuhF4tG3riRLzLiRr6HDx9+FB39XKKfPxfbdCaxy5JVMmXKPCdXrpy/Ozk53nDKm/eGq6vL9dq1ap0kQQAAkNIoAAEAAIB3dPfuXUOM2WxrjjGbjDZG9b106V7Y29uz+hYAAAAAAAAAAAAAAAAAAAAAAAAAAAAAAAAAAAAAAAAAAAAAAAAAAAAAAAAAAAAAAAAAAAAAAAAAAAAAAAAAAAAAAAAAAAAAAAAAAAAAAAAAAAAAAAAAAAAAAAAAAAAAAAAAAAAAAAAAAAAAAAAAAAAAAAAAAAAAAAAAAAAAAAAAAAAAAAAAAAAAAAAAAAAAAAAAAAAAAAAAAAAAAAAAAAAAAAAAAAAAAAAAAAAAAAAAAAAAAAAAAAAAAAAAAAAAAAAAAAAAAAAAAAAAAAAAAAAAAAAAAAAAAAAAAAAAAAAAAAAAAAAAAAAAAAAAAAAAAAAAAAAAAAAAAAAAAAAAAAAAAAAAAAAAAAAAAAAAAAAAAAAAAAAAAAAAAAAAAAAAAAAAAAAAAAAAAAAAAAAAAAAAAAAAAAAAAAAAAAAAAAAAAAAAAAAAAAAAAAAAAAAAAAAAAAAAAAAAAAAAAAAAAAAAAAAAAAAAAAAAAAAAAAAAAAAAAAAAAAAAAAAAAAAAAAAAAAAAAAAAAAAAAAAAAAAAAAAAAAAAAAAAAAAAAAAAAAAAAAAAAAAAAAAAAAAAAAAAAAAAAAAAAAAAAAAAAAAAgFRgIAL9uXXrlunBg/vZ7/1xL8f9+/dy3Lt3P/v9+/dy3L93P/u9e3/kjImJsX385Enm6GfPMr548eK9hw8eZHvx55/pHj96lDUxXyerXbYHNjY2yqu/Z2symbNkzfI4ffr0z9NnyBCdJXPmJyaTyWyXLft9W5PJnClTpqfp06d/ni79ey+yZM78JHv2HPdy5MhxL1u2bA/ssmV74ODgoDKCAAAAAAAACUcBaGVuRUXZXrt+3fX6tasFbt26lSfqZpTjnbt3HG5ERua7fetWnps3b+YVEbc0fIlhWbNmfWTvkPu2vYP93Zw5c/6R2yH37bxOeW/mzp37dp48jlEOuR3uFCvmcYfZAAAAAAAAQAGYZl25fNku9OLFoqFhoUUuX75c6FJomNuFC+eLPX78uCzpiIhI2Hvp0z/Pl885Il8+pxsFChS84urqet3ZxSXc2dk5Ip+zc4S9vb1GTAAAAAAAwNpRAKYBR48eKXD+3Pli58+fL3bm9G+ev536zfPZs6elSebdZMyY6WThIm5hhQsVulykSNGLbkWKhBYqXPiShwerBwEAAAAAgPWgALRAgYGBnkcOHapw8NDBikcOHarw559/FieVlGO0sbngVtgtrJiHx7miRYteLFGy5OkSJUuednJyekE6AAAAAAAgraEAtABBgYGeu4N319izd3e1s6dPl9Q0rQipWB6HPHn2ent7Hy5duvRJT89Sp2r4+p4mFQAAAAAAYOkoAFPBgQMH3EL27asSHBzke+TIkfKqoriTSpoUls/ZOaJKlSr7qlartqdKlap7HfPm/ZNYAAAAAACAJaEATCGHDx0qtG3r1gbr1wc0jwgPr0Ui1sdoYyNlSpdZ4VuzZmCVatX2+Pj4hJIKAAAAAABIbRSAyShk//6iW7dubbB+3boWt25FVSMRfcmYMdPJGjV9g2rU8A3yrVkz0NXV9SmpAAAAAACAlEYBmMTOnTvnsNrPr62f38p2v9+960MiiFeuXPnlTZs3D6hXv/62AgUKPCYRAAAAAACQEigAk8iypUvrL1uypPPRo0c6kAbexMur3Io27dqtbNykyUZ7e3uNRAAAAAAAQHKhAHwHx44dzb908ZLOa/3XtIqOjvYkESSWyWSS+g0bTmjbtt3KevXrHyURAAAAAACQ1CgA38K2LVu8Z86a2fdgSEhX0kBScXZx2dW9e4/5bdq1W8mqQAB4d4GBgZ5RN2/mfRb9LKOerjtzpkxP8xcoeKVSpUphzALLsjs4uERkZGQ+vc3JTBkzPXVxcQmvUrXqeWYBgLe1f98+9/Dw665Pnj7NpKfrTp/uvRf29vZ36zdseJhZgHdBAZgI06dN7TBvzpxeN2/erE4aSC7p0qWT9h06ftXn449nFCxY8BGJAEDiBAcFlfx80MCJ4dev19ZzDiU8Pf2nTp32SYmSJaOYFal/0zrwswGTr165Uk/PObi7u2+cPHXaJ2W9vK4zKwAk1Injx10++/TTKefOnW2u5xxy5sx58LsxY4a1bt0mkFmBt0EBmACTJ03sMmvmzL73792rQBpIKenSpZMuXbsN/qhv35kuLi7PSAQA3mx3cHCJtm1an1YVhTBEJEuWLLL11+25ihQt+gdppI6QkJAird9vcTEmJoYwRCR9+gyyedu2vCUppgEkwJnTpx0bNah/Mzo6mjDiTJoytUHHTp22kQQSy4YI/tu8eXNbXAoNnf/rtm39n0dH5yMRpCRFUeT48WN1f1kwf9jAgYPu7969+xCpAMD/d/7smcX3790rTBKx/vzzT4mIjMx4+vSZraSROi5dvLDg9u3bRUkiltlslkuXLuW4cPHietIA8CY3b96YevXKlTIk8ZcDIfuL3XvwYA5JILFYAfgafitX1Pnxhx+GRISH1yINWIo8eRz3fD9u3JeNmzQ5QBoA8G/Hjx1zrV+3zjWS+MeHPYMh9Pbvf1BApYKzZ8/m9q1W9RZJ/Nup02fec8yb90+SAPBfbt648V5pz5LPSeLf5s5fULVZ8+b7SAKJYSSCv+zYvr1sVR+fDZ98/PF2yj9Ymlu3oqp179Y1ZMmiRY1IAwBec6Nw82ZeUvg3TdOKnD17NjdJMCctyY2bN5xIAcD/E3UrypEUXi8yMpIdikg0CkARuXr1apauXTpP6ti+3bGLFy80IRFYsq+HfbXp9u3bbN8HgH+IMZtNpPB65pgYW1JIeQq5//f7NYb3K4A3/OwyK9zz/Gc2/HxB4un+B+/E8eO7VatS+ZcXz1lZjLQhOjpadgcH+YrITtJ4e7eiomyfPXuWMfr58/QiIpkyZXqaIUOG6Ny5c3NyAAAAAADAqui2ANz+669eXw/76vtxY7+vyzRAWhMVxXL4hNq7Z4/HqVMnS4eFhbmFXQwtcv7C+WJPnzzJ7FmiuNvr/n2HnDnCsufIca+ou/uFokWKXizs5hZW1svrWPny5a+SJgAAAAAgLdJdAXj79m2bLwZ/Pr5Th/YDGH6kVUWLul8ghdeLiAjPuGXzlobBgUE19+3fW6Vli+YlE/lHuN2/d08OhoRUOBgS8vI3C+V3PV7Dt2ZgDV/foM5dumwhaQAAAABAWqGrAnDjhg0+NapW2f/HH38w8kjTynp5HSOFv/Nfs6bGqpUr25UrU6a3pmlJ/uc/fvy47MYN68tu3LD+c6c8uc81aNhoc+s2bVbVq1//KOkDAAAAACyZbg4B6d/v45E9PuhG+Yc0z61I0U0ODg4qSYjcuXPHOGbUqD6F8rse69O7V1BQUGCylH//FBMT47FhfcDgzh07HClR3GPP9GlTOzAaAAAAAABLZfUF4LFjR/NXqlBh88oVK75huGENfHx8QkhBZNLECV0rV6ygTJk8aebjx4/LptbruHPrVtXvRoxYVsbTM3DRwoWNGRkAAAAAgKWx6gJwwk8/fdCwXr2rly+FNWSoYS28K1Y4pOfrX7JoUSMP96L7x44Zs/Dhw4cW87pu3Ij0HTxo4MaqPj4bdgcHl2CmAgAAAAAshdUWgB927/7jD+PGLkiJ7YBASvLyKqfLZ87duHHjvfbt2s4YNPCzTb/fvetjqa/z4sULTVq3fP/0gP79WXUMAAAAALAIVlcAhoWG5qhW2WfDhvUBgxleWBtHR8c9BQsWfKS3696yeVPFGlWrPN+1Y0fftPKaly9bOrJUieK7Dxw44MbMBQAAAACkJqsqANetW1e1dk3fPy5cuNCEoYU18qlceb/ernnc2O97fdC16wFL2u6bUFFRUdXatGoZumTRokbMXgAAAABAarGaAnDOnNktP+r54Z7o6GhGFVarnLf3YT1db48PPvhp4vjxs9PyVv4Xz5/LoIGfbfr2m2/6M4MBAAAAAKnBKgrAIYMHD/l66NA1PO8P1q58ef0UgO1at561ccP6z63lembNmD7ls08/Hc4sBgAAAACktDRfAHbp3GnyLwvmj2MoYe0yZc58wtPT86YerrVNq5azAwN3fWRt17Vs6ZLvOBwEAAAAAJDS0nQB2LRJ44Xbtmz5lGGEHlTy8QnRw3V27NB+WnBQUC9rvb7ly5aO/HrYsM+Y0QAAAACAlJImC8Bbt26ZatX0XX0wJKQrQwi9qFChwiFrv8YB/ft/s+PXX/tZ+3XO+XnWxOnTpnZgVgMAAAAAUkKaKwAjIiIyNG3cKOb0qVOtGD7oibU//2/u3DnvL1+2dKRexnPUyJHLduzYUYaZDQAAAABIbqa09GIjIiIytHq/xbNrV68yctAVW1vbcz6VK1+01usLCQkp8n7zZv56GlNN06RPr57Hr1y5YlewYMFHzHIAAAAAQHJJMysAIyMj07d6v8Wzq1euMGrQnbJeXses9dru3r1r6Nu710VVUXQ3ro8ePZI+vXvNYYYDAAAAAJJTmigAIyMj07ds0Tya8g96VbGS9R4AMmrkiBE3b97U7dieOH687aSJE3ieKQAAAAAg2Vh8AXj37l1D5w4dKP+ga15WugJw9+7gEitXrPhG7+M7/scfF4aFhuZgpgMAAAAAkoPFF4Dt2rZZdfbsGUYKehZWv0GDI9Z4YV8P/ep7hlckJiZGRoz4diRJAAAAAACSg0UXgO3btZ3Bab/QO3d39wvWeF0Lf/mlycWLF5owwrF2/Pprv93BwSVIAgAAAACQ1Cy2ABw6ZMjgXTt29GWIoHc+lavss8brmjRh/OeM7t/9MHbsUFIAAAAAACQ1iywAZ82c2Wb+vLk/MjyASHlv78PWdk3Lly2rFxUVVY3R/bujR4902L9vnztJAAAAAACSksUVgOsDAqqM+Ga4H0MDxCprhQeAzJg+vR8j+3qzZs1k5TMAAAAAIElZVAF49uzZ3P37fbxX0zRGBhARhzx59hYoUOCxNV1TcFBQybDQi40Z3dfbvm3bJ5cuXcpGEgAAAACApGJRBeAHXbssjo6OZlSAONWrVdtjbde01n8NB/u8wcYN65uRAgAAAAAgqVhMAdjjgw9+unb1al2GBPhLee8Kh6ztmtYHBDRnZP+/lStWtCcFALACBgPbWgAAgEWwiAJw/vx5zTduWM+JoMA/lCtX7qg1XU9AQECV6OhoT0b2/7t65Uq9UydP5iMJAAAAAEBSMKX2Czh+7Jhrk0YN1zEUwN9lzZr1WImSJaOs6Zr2BAfXYGQTZu/ePdVEZDlJAAAAAADeVaqvAPyoV8+5MTExjATwDxV9fEKs7ZqCg4N8GdmE2bdnb1VSAAAAAAAkhVQtAPv17TPq2rVrdRgG4N+8vb0PW9P1XL16NUtkRERNRjZh9ofsr0wKAAAAAICkkGoF4PqAgCqr/Py+ZgiA17O2A0BOnTpVilFNuBfPn5c8cfy4C0kAAAAAAN5VqjwD8NatW6bqVavsJX7g9Wxtbc9VqlQpzJqu6cqlS4UZ2cS5fPlyIREJJwkAAAAAwLtIlQLw66+++v7+vXukD/wHr3Lljt7YtNmqrunSpTA3RjZxrl65UlBEgqz5Gr8ZPvzTTRs3NI2MiHDW6zg7OjpGeVeoePDbkSO/zZcv33NmPgAAAICkluIF4PqAgCo9e3QfTPTAf6vkU3n/BisrAC+GhhZhZBPH2kvTLp07Tf555oxP9T7OUVFRbusD1lW7FBbmJiLvM/MBAAAAJLUULQDZ+gskTLly5Y5a2zWFX7uWn5FNnMiIyHzWfH07t2+vyyj/5ezZMy0uX75sV6hQoYekAQAAACAppeghIN+N+HYkW3+BNytdpswJa7umR48eZWVkE+fBw4d21nptkZGR6c1mczFG+e9u3rjhRAoAAAAAklqKFYCBgYGea1av/orIgf/Pw6N4gL29vWZt16VpmoHRTZwnj623NFVV1cgIkwsAAACAlJFiNxrDhw0bQ9zAm/lUrrzf2q7pzp07RhHhEJBEeviQVZMAAAAAgHeXIgXg3Llz3g8LvdiYuIE3K+ftfdjarikmJsaWkU28P/988R4pAAAAAADeVbIfAnLnzh2jTwVvf6IGEsbLy+uYtV2Tk5PTC4ecOcJYBZg4WbJmfSS37xCEjrBVHgAAAEBySPYVgBPHj//80aNHJA0kQD5n50BXV9enJAEREbusWfnmCQAAAAB4Z8laAJ4+fdrxlwXzfyBmIGF8fHxCrPXa3kuf/jkjnDiZKQABAAAAAEkgWQvA0SNHfqtpGikDCVSuvPU9/y9erpy5fmeEE5tZzj9IAQAAAADwrpKtAAwMDPQMCgrsTcRAwpUrX/6ItV6bu3uxC4xw4hR2KxJKCvrCMwABAAAAJIdkKwDH//DDEOIFEs7Ozu5oiRIlblnr9RVyKxzGKCdOwUIFr5ACAAAAAOBdJcspwMFBQSXbtGrZgXgRJzHFj25Pia1QqdKBsCtXrfb6ChUqdJm3QuIULEhmAAAAAIB3lywF4PiffvyCaK10wphM5/MXLHilYMGCV+xz2d/Nnj37fbtsdg/t7LI9yGpn99DOzu6hnV3WR3ZZ7R6mz5AhWkTE2dk5OqF/fkRERAYRkadPn2RWFNVoNptNz549yxj7e08zPXr40O7hw4d2Dx8+yPbwwUO7+/fvZ3/w8EG2+/fvZ39w716OP+7fz37v999zmc1mU1orEytWrHhw6bLlVjt3ihYtepF3UOK4ubmxalJneGouAAAAgOSQ5AVgYGCgZ7vWrToRbdpltLG54F7U/YJ7MfcL+QsUuOri4nrdxcUl3NnFJdzV1fXpzdt3JOTAwWT52q+UhdHv+medO3fOISoqyvFmZGS+iMjIfJER4S7h4eEu165fd71z61YeSysIvcpZ7/P/RER8Kle+6OLk9Nvz59GevMverFBhty2JKc8BAAAAAPgvSV4A8uy/tCd//vw7qlarvrusl9cxDw+Pc2XKlg2/deeuBO/dm6avy8PD446I3BGRU6/7/8NCQ3NcvnSp8PkL54udP3e+2JmzZ0pcCg0tkhrFoK2t7blKlSpZ/WqvipUqHgwOCqIATIAaNWoEHzh0iCAAAAAAAO8sSQvAHTt2lOnYri3P/rNw9g6599WpU2dHtRo1gsuXL3/E2dk5+vCx47rLwa1IkXsicjjun5dOnjjhHBp6sei5s+c9Dh08UPHUqZOlzWZzseR8LV7lyh29sWmz1WdeuUqVfcFBQb14F75ZJR+fEFLQH04BBgAAAJAckrQAnDxhwiAitUzFi5dY1/z9Futq+NYMLFWq1I2z58/L5KlTCeY1SpcpEyEiESKyU0SmioiE7N9f9PjxY16HDx/2PrB/f+WHDx+WS8qv6e1d4dAGHRSAvjVr7RozahST7A3SpUt3tmmzZvtJAgAAAACQFJKsADxy5EiBRvXrdSRSy5G/QIHtbdq09WvUpPGmYsU87gTt2UMob8mncuWLInJRRJaLiJw5fdpx9+7d1Xfu3FHn0IEDld51hWBRd30ckOHp6Xmzbu1aq06eONGGWfXfGjdpsvHnOXMJAgAAAACQJJKsAPxl/rwPiTP1GW1spHHjJj916tx5SQ1f39OHjx6Tz7/gUOakVqJkySgRWRn3j2zdsrlC4K7Amlu2bGl4987tKon5s9KnzyA1fGsG6iW7Vq3bUAC+QctWrVdTAAIAAAAAkkqSFICRkZHpvb3KfkWcqSdLlizHe/TsNadbt24L8zo5vZi3YAGhpKAGDRsdEpFDIjL24MGDhbdv21Z/w4b1zcKvX6/9pv922PDhre3t7TW9ZNW4ceNNI74ZLmazmYnzGrly5TpQp27d4yShTzwDEAAAAEByMCbFH7J0yeIu3Mynjlz29iHfjBjR8fK1615fDRs2O6+T0wtSSV0VK1a89M2IEdOPHj9RZ2dQsNMXQ77s4e7uvvF1/+6AgYM+6v3RR2v0lE9eJ6cX7Tt0/JqZ8np9+/WbTgoAAAAAgKSUJCsAF/3yywdEmbLSp88g/T75pOcXX345r98n/QnEQnl6et4UkQUisiAsNDRHUHCQ743IG052WbM+qlOv3q8lY7cS687H/fpNX7Zs6WhVUZgkr7Czszva75P+y0kCAKyDwWDQSAEAAFiCdy4Aly1dWv+zT/tXJMqU075Dh5GDh3w5Ll++fM9JI+1wK1Lknoj4v/yNzz/XbRYFCxV62OvDD38IWLd2CDPjLx/27DVnyNChBKFjbAEGAAAAkBzeeQvwjBnT+xFjyijh6em/bfuO/FOmTR9B+Ye0bsDAgRNNJhNBxMmWLfvhIUOHcvIHAAAAACDJvVMBGLJ/f9FLoaGNiDF52drayueDv+gZGBTcqqyX13USgTXw8PC483G/T/qSRKwR3333DSkAAAAAAJLDOxWAfn4r2xFh8nJ3d9+4IzAo9xdffjmPNGBthg0fPiufs3Og3nMoX957WYeOHX9lRkDYAgwAAAAgGbxTARiwdu37RJh8Onfp+vWe/SFNPTw87pAGrNWIkfpe+WZraytjxo7lwX8AAAAAgGTz1gXg2rVrq0VHR3sSYdIzmUzy04SJTSZMmjSGNGDtmjZrtv/DXr11eyLKiFGjWpYuUyaCmQAAAAAASC5vXQD6LV/egfiSXs6cOWXt+g1uXbt120Qa0Ivvx46dUMLT019v192seYsfe/bstZYZAAAAAABITm9VAEZEhGcMDg7qTXxJy8OjuGzbsTNzxYoVL5EG9GbGzJl9s2bNqpvrdXF1Zesv/kXjGYAAAAAAksFbFYCbNm5qrGka6SUhD4/iAStXr7Z1dXV9ShrQo2LFPO6s8FtVKEOGDFZ/rY6OjrI2YH0mBwcHlZEHAAAAACS3tyoAFy9a1JXoko6XV7kVwXv3tsiTJ4+ZNKBn5b29r/yyeEkpk8lktdeYJUsWWbpiZV4XF5dnjDgAAAAAICUkugA8dfJkvsuXwhoSXdLw8iq3Yuv27TxPEYhTs2bN3yZNmVLXaGNjddeWKXNmWbBoUcmSJUtGMdJ4HbYAAwAAAEgOiS4AN23c2ITYkkYJT09/yj/g39q2a79jpd8qz4wZM1nNNTk6OsrGzVscq1evcYYRBgAAAACkpEQXgBs2rG9GbO+uQMGCsmKlX1uSAF6vhq/v6RWrVhXJli17mr+W/Pnz71izLiBHiRIlbjGyAAAAAICUlqgC8Ny5cw5Xr1ypR2zvJpe9vSxbsTJ77ty5FdIA/lulSpXC9uzbl65a9erz0uo1tGvf/rvDx47XdXNzu8+I4k3YAgwAAAAgOSSqAAzctbM2kb1j4DY2MnvO3OKFCxd+QBrAm+VxdIxZs3ZdzyFfDu1uMKSdbuS99OllwsRJjadOn/EtowgAAAAASE2JKgA3rGf777v6btToVlWrVTtHEkDiDBo8+JdV/v4lCxV222Lpr7V8ee9lW7f9mrdz166bGTkAAAAAQGpLcAF47dq1zCdPnGhDZG+vTdu2o3v17u1PEsDbqV69xpkDhw41GjNuXMsMGTJY3Ouzd8i9b+78BVU3b9vWqQQn/QIAAAAALESCC8DdwcE1iOvtFSxUeOv0mbOGkwTw7nr27LV2b8iBTB/27DU4Xbp0qf56smbNemzwF0M+PHv+fNVmzZvvY4Tw1ngGIAAAAIBkkOACcNPGDU2J6+2YTCaZPWdOL5IAko6Li8uz78eNG3/o6LH0fT/+5FM7O7ujKf0aHB0d93z19dddL129Vm7wkCHzGRUAAAAAgCUyJfRf3L9vXxXiejsf9en7SanSpSNJAkh6Tk5OL0RkqohMDQ4KKrnWf02rtf7+Lf/888/iyfH1smbNeqx9x05LW7Rosa6sl9f1AZ8NZBAAAAAAABYtQQXg+oCAKj17dC9GXIlXslSpNd+MGDGdJIDkV8PX97SInBaRbzdv2lhp3959VXbt2ln72tWrBUTE7S3/2LDixUuc8a1ZM7BKtWp7atas+duo0aNl1OjRBI4kpwlbgAEAAAAkvQQVgIcOHqxIVIlnMBhk3LgfhpT39iYMIIU1atzkgIgcEJGfREROHD/ucj083CX8+rX8d+7ctX/44H72+w8eZHv44EE2g8GgZcue/X72bNke2GXLft/R0THK1dUl3NnF9XrJkiWj7uzZI0F79hAqAAAAACBNSlABuHPnjjpElXhdu30wtLy39xWSAFJfmbJlw0UkXEQ4pAMAAAAAoCtvPAQkPDw847WrV+sSVeJky5b98I/jx48jCQBAQmmcAgwAAAAgGbyxADx4IMSHmBLv8yFf/EgKAAAAAAAASG1vLAAPhByoREyJU6iw25ZevXr7kwQAAAAAAABS2xsLwMBdO2sTU+J8OXToWFIAAAAAAACAJfi/BWBYaGiOqKioasSUcMWLl1jXrHlzDhkAACQazwAEAAAAkBz+bwF48ADbfxNrwMCBE0kBAAAABoNBIwUAAGAJ/m8BeIADQBLFrUjRTaz+AwAAAAAAgCX5/wUgB4AkyoDPBkwmBQDA29JYKwQAAAAgGfxnAXjzxo33btyI9CWihHF0dNzTuk3bXSQBAAAAAAAAS/KfBeDp06dLEk/CdevefQEpAAAAAAAAvL2IiIgMr/5DIknD9F//x2+nTpUinoRJly6ddOzUeclnAwcRBgDgrXEKMAAAAKzF3bt3DZEREc43btxwioiIcL73xx857927l+OPe3/k/P3uXfu7d+/a37lzx+HpkyeZX/3vvEqXcnv11w45c4S9+uuMGTM9zZ0n923HvHlv2ueyv5srV67fHRwc7uTMlet3B3v7u64F8l8rVszjDiPwd/9ZAB4/dtyLeBKmZevWIxwcHFSSAAAAAAAAehIREZHhwoUL7hfOn/M4e+ZMidDQ0CKXL10qXNy9qGcSfYm/FYLPnj2Vq1euyNUrV/7zP3DImSMsf4ECV4sULXqxcCG3S4UKFbxcqHDhSz6VK1/U6zj9ZwF49Ojh8kzjhGnXvsPyKVOnEQQAAAAAALBqu3btKnX86NFyR48cKX/ixIkyXqVLeVvgy3S7dvWq27WrV+tul20vf9MhZ44wtyJFL5Yr53WsvHeFQxUrVTpQuHDhB3oYt9cWgGGhoTkqV6pYjmn9ZoWLFNlcqVKlMJIAAAAAAADWZn1AQJW9e/ZUCzkQ4nMpNLRI+zat3dLw5biFhV50Cwu92HjF8uUiIlLG0zOoVu3aO+vUrbu9Xv36R611HF9bAP7222+eTPGEadOmzaqQAwcJAgDwzngGIAAAAFLbiePHXYKDg3wDd+2qdfjQoQo9e3QvYs3Xe+NGpO/iRQt9Fy9aOMY1n9Nv9eo32NqkadMNTZo2DbGm63xtAXiKA0ASxGAwSIv3W/oP+GwgYQAAAAAAgDRp165dpXZu315386ZNjevVqV1NrzlER0d7Bqxb6xmwbu2QIoUKHW7Vps2qVq1arSnr5XU9rV/bawvA48eOsv03ASpUrLjY1dX1KUkA72b1Kr9aN27ccFLMio1ertk2nW1MPmeX8IoVKhzK6+T0glkAEZGNGzbsm/DTT93T0ms22hhVu2zZHvj4+IS4uxe7yygCAACkDfv37XP3X7Om1Vp//5bt27QuTSJ/9+DBfe95c2Z7z5sze3zd2rVWde/RY3679h22p9Xref0W4FNsAU6Ilq1ar96waTNBAG9p5owZbX8Y+/1XH/fpo9vvOSaTScaMGtV32PDhs5gRWB+wTtaLLEirr//jPh+NmTHr568ZSQCWbvuvv3rNnzu358GDBypFR0dn0Nv1Z8iQIdq7QoVDH/bsNcean3f1NqJu3kw3berU/tu2bW0QGRHhrLfrd3F1vd6gYaPN/T75ZFru3LkVZoT1iYgIz+i3YmW7FSuWd2jRrGktEkmYkydOtOnfr18bt4IFjn7Q48N5PXv1mmNvb6+lqXvPf/7GlcuX7Sp6l6cATIA6dersIAXg7Ywb+32vEd8Mn633HMxms0yZPGnm8K+/fm/U6NGT9XDNx48dc121cuU13gXWZ/WqVcNatmiex39dwIekAcBSTZ0yuVOnDu2X6DmD6Oho2R0c7Lk7OLjnpIkTun02cNAiZobIpUuXstWvW+d+VFSUbjMIv37dbfasmbU3b9o46cqVK3YFCxZ8xMywDusDAqrMmzunl1fp0p1J4+09fPiw3OSJE8rNnD7t58GDBn3Vr3//qWllZ6jxn79x+fLlQgzpm5X18lrJtj3g7Rw5fLjgxPHjZ5PEX+b8PGvShQvn7a11vGdMm9a+Q/t20/M7O5+oX7fOtR9/GMegW6m9e/b0WOvvX50kAFii3buDS4z+7rslJPGXsWPGLAwOCipJEiI9u3dfoOfy71WRERHyUa+ec0ki7Zs7d877PpUqburZo/veQwcPUv4lkT///FMWLfzl+2qVfZ5MmTwpTeT6rwIwNDS0CEP5Zg0aNtxCCsBb/hCaM6cXKfydpmmydcuWhtZwLSEhIUWmTJ7UuW2rVj+7ODmdatSg/uWRI75dvnP79o+fPXvKs0V0wFrmMgDrM/vnnz8ihdfkMuvnPnrPYOfOnaXPnj3Tgtnwl5MnTrTZvTu4BEmkPVevXs0ydMiQwa75nE4N+/JL/0uhoY1IJXlER0fLmFGjFnt7ld2+edPGSpb8Wv+1BTiMAjBBataqvZMUgLezb9/eqqTwb+HXw13S4uves2d38SOHDnuHhOyvfPDAgUrNmzT2YDT1LSIibc5lANbv0IEDlUjh3w4cCNF9Lr+dPMlfUr7GqdhczpBE2nDx4oVcM2fM+LhSBe8RqsIjHFPStWvX6nzQtWudDu3bzfjhxx+/cHZ2eWZpr/FfBeD58+e4cXsDF1fXnSVLlmRtOPCW/vj991yk8G+KYjZZ+muMunkz3eHDh72PHj1aLnDXrlphoReLtmrRwo3Rw6tizJY/lwHo0+PHj7OQwr89e/Y0k94zePLkSWZmwmveM494z6QFZ86cyTN18uQB1SpXHqJpGoGkop3bt39cLSTk44W//NK02wcfbLSk1/avD+gXzp8vxpD9f76+NQOPHj9BEACsXmRkZPoDIfsrHz502DskJMSnVMkSjUkFAAAASH1RN2+mG//TT4Nr1ag+muLPcjx98kS++HzQhpYtms+fOn3Gx04Wcn7E3wrAq1evZqlQzosTgN+gctWqe3+aMIEgAFidS5cuZTtx/JjX3j17qu3bt69K2VKeNUkFAAAAsBzPo58vnjJ5klSqUGHxs2dPCcRC7d2zp0edmr49du3aVbpWrVqnUvv1mP5x41eYIXqzihUqHCIFANbg7NmzuY8fPVruyJHD3vv27aviU8Gbwg8AAACwYJMmTRRVURaThOX7/fffpUPbNifHjB7dZ9jXX/+cmq/l7wVgWBjPcXoDtyJFN+X5X3v3HVDz/j9w/N3plEKlvaQ9RWkokWtlb9fIirvvte5wvxfXvbjD5br2uri49uXam2wZUSKjpZRK0cAlodzz++OOH1eTOp3xfPzVOOvz/Hyk8+ozLC2LKAFAWYUfPOhzKDw85GTEyeDWLYO5IhgAAACgRLjAh3KRyWRi7uxZi9/s3ct389Zt79bU65A8/wlXAC5fy5YtT1ABgDLKyMjQad2y5dZBoQOiV65YPu16YiLDPwAAAACQgxPHj7/TsnnQzrS0tBq58NILA8DklGRHVknZgpo3P0UFAMrozd69t169eqUXJQAAAABA/uLj47v16dXzYVJSkqG8n/uFAWDajRv2rI6yeTfxvkgFAMpm8aJF/VKSr3eiBAAAAADUnJtpaaJr5075ly5erC/P531hAHjr1i0rVkXpTM3MI2xsGjyiBABlc+TwoXZUAAAAAICadzc/X/Tu2SP97NmzcrsY778DwOTkZAMhBBcBKYN/U//zVACgjG6whzcAAAAAKIwHDx6IIQNDk2IuXGggj+f7dwB4KzPTmvxla9KkSQwVACij4qIiLSoAAAAAgOK4f/++6N+3b1pc3DWz6n6ufweAmZkZ9UlfNs9GjWOpAAAAAAAAgKpw795d0f/Nvrer++rA0n8+yMxgD8DyeHp6XqECAABQNik3bqRfvXrVghLydebM6SgqAACA8mRnZ4m3hg/7VQjRt7qe498B4M30mw1IXjoLC8sT5ubmzygBAACUzfvvvC2EENmUAAAAUEyXL116c2DogAXrN/w2sjoe/99DgNPS0mzJXbqGjdj7DwAAAAAAANXj0MGDI2ZMn/52dTz2vwPA1JQUB1KXztXFLYEKAAAAAAAAqC4/zfjxl/379vlX9eP+OwDMysqyJHPpnJydkqgAAAAAAACA6iKTycSY0aPOpaen61bl40rEX4f/1pHJZC5kLp2Dg0MKFQAAAAAAAFCd7ubni9GjRi6oyseUCCFEXm6uCXnL5uDomEwFAAAAAAAAVLdTJ0++9fPixVV2VeC/BoD5+UakLV29eobnLCwsiikBAAAAAAAAefh2yuRNV65csaiKx5IIIcTd/DxjspbO2dmZ8/8BAAAAAABAboqKisQXY8f+VBWPJRFCiNxcBoBlsbWzTaMCAAAAAAAA5On8+XODfvllWa/XfRyJEELk5zEALIt1fZt0KgAAAAAAAEDevv/2262ZmZm1XucxJEIIkZObY0rO0tWvXz+DCgAAAAAAAJC3gocPxdTvvv3qdR7jrwFgDgPAslhZWd2iAgAAAAAAAGrC75s2fXn27FmnV72/RAgh7ty5Y0bK0lkyAAQAAAAAAEAN+nril9+/6n2lQgiRc/u2ORlLleTp6ZmtzgEOHz7sdfHCBZ/7f/yhL5PJNNgkFJ+2llaRoZHh3TZt2x3y8PC4QxEAAAAAAJTbxZiYfvv37fupY6dO5yt7378GgBwCXCodHd1CdV32pMREo7CwoatD+/XtwpagnL6ZPFl8+P57PyxesnQCNQAAAAAAUG7Tpk6dIISo9FWBJUIIUVxcLCVhySwszG+r43Ln5ORo9HvzzbzriYkM/5Tcls2bx3/4/ntTKQEAAAAAgHK7du1qzx3bt7eo7P0kKcnJBkIIZxKWzNTUTC0Pn1z6888fZGZy8WNVsWXz5vHnIiMdKQEAAAAAgHKbM2vWp5W9j+RhQUEd0pXO2NQkVx2Xe/fu3V1Z+6olPDw8hAoAAAAAACi3q1ev9Dqwf79fZe4jefToUW3Slc7EWD0HgOk302xZ+6ol61amNRUAAAAAAFB+CxcuGFmZ20sK2AOwTMYm6jkA/PPPPyWsfdYpAAAAAABQPGdPnw6Ljo6yq+jtJQUPH9YlW+mMjY3zqAAAAAAAAABFsmzJkvcrelvJo0fsAVgWIyPDu1QAAAAAAACAItm5Y8e4jIwMnYrcVlLAOQDLZGBQ7x4VAAAAAAAAoEiKi4vF7xs39q/IbTkEuBy1a9d+RAUAAAAAAAAomtWrVoVV5HaShw85BLgsteswAAQAAAAAAIDiyczMaH382DHP8m7HVYDLwR6AAAAAAAAAUFQbf9sQWt5tJA8fPtAjVelq165TQAUAAAAAAAAool27dnUr7zaSAg4BLhN7AAIAAAAAAEBRPXn8uNGG9es6lHUbycMH7AFYhiRTU1MZGQAAAAAAAKCo9uzZ06Ws70seFT6qTaaSaWhoMPwDAAAAAKglmUymQQVAORw5dKhdWd+XFBcVS8lUMl1dDv8FAAAAAACAYisuLnbfunVry9K+Lyl+xgCwNNra2k+pAAAAAAAAAEW3r4zDgKXFxQwAS40j1XxGBQAAAAAAoO4MDAyEoZGRMDIyEob1jEQ9QwOhpaX17/cfFhSIO7dvizu3b4vs7Nvi8eNCosnZwQP7Owohvijpe9LioiItEpVMKtUqogIAAAAAAFAH9eoZHvP19Yt2dHZKcnB0SLG1tUu1tra65ebmXnAnL1+IlBuVerzIyEjLxIQE14SEBNczZ04HXb50yUsI4UXp6lFYWNj4+PFjnm+80erKf78nLSp+pkmikkm1pMVUAAAAAAAAqsjKympfi+DgkwEBgWf9mvqfd3f3eJiYnFxljx8QEJAlhMgSQhwTQiwRQogN69cFh4eHh+zfu7dzcXGxL2uhap2KONVcCPHyAPBZMXsAlkaqySHAAFTk55kWezRDfrSk/AENAABAEWlra59v1abNkQ7tOxxoHhx80sHBofji5StiwaLFcnsNoQMHnRRCnBRCfD39hx8GrVix/O27+fmtWTtV4/ixo63/GbY+T1LEVYBLpckhwABUhK2tbRoVwPYGAACgfurVMzw2aPCQsavWrGmckZXddO269eOGhIUddXBwqPE/2n4xfvy6hKTrbb757vuutWvXOc3aen0XY2KalPR1SRFXAS6VFhcBAaAiOnXpsocKkJcOnTrvpQIAAEDNkUqlokfPXpPXrFvfMDE5ufXsuXNndurc5bKivt4PPvxwT2p6evMBoaHjWHuvRyaTuezYvr3Ff78uecZFQEqlqckhTABUwzvvvLutkZfXZkqgugW3bLm8d+/eJygBAAAgf8bGxkc+HTt2SMTpM9rLli+f0qFjx2vK9PrnLVg4/ZcVK33q1K3LynwNZ06fDvrv1yRFDABLpSHRkFEBgKr4beOmfu07dpxPCVSXvv36fb9l2/Z3KAEAACBfHh4N18+dP79lXGJS23HjJ6x1cHRU2lOade/RI2b/wYN17B0ctrFmX82piIiX9gCUMgAsXTFtAKgQU1NTmRBi9MWYmBlR0VF+MplMo6Zey738u1tm/DidlfIfoQMHCs/Gjfso2+vW1NR8FhQUdNrNzT2HtQgAACA/zYODF4wZ8/GcVq1bJx87eVJllsvV1e2REKJ3m9atVl+JjR3Cmq6chIR4t/9+TVpczDkAS1NU/EyTCgBUjXeTJulCiPSafA03b96sM+PH6QWsjRe1adsuuEfPnhGUAAAAQFlavvHGvE/Hfj4jKCgoY9v2HSq7nEeOHhvaptUbGlcuXx7MWq8U52NHjzZq1br1v+d9lDAALN0zLpACAAAAAAAUhIOjk1i9Zm2jzVu3jQkKCspQh2U+cuz4EDt7++2s/cqJibng8/znEk1NrnRbGoajAAAAAABAUaxas1p07Nz5irot94qVvw7T1dVlA6iE6Oho3+c/l2hpaRWRpWTFRQwAAQAAAACAYpBoSNRyuT0bNbr/06xZQWwBFXfubGTAC9sOA8DSFXMIMAAAAAAAQI3r26//md59+nxNiYq5d+9u0+vXr9f753OJtrb2U7KUjD0AAQAAAAAAFMPPS5d9a2xsfIQSFZP43NWA2QOwDEXFRVpUAAAAAAAAUAzffPfdRCpUTEJ8gus/H0ukDABL9aigoA4VAAAAAAAAFEPffv3PNPb2XkWJ8sXHx7n/87FES4tDgEsjk8k0qAAAAAAAAKA4xk/48nsqlO/ylSue/3ws0ZJKi0kCAAAAAAAAZdC2bdskH1/fFZQoW0pysuM/H0u0tDkEuAzO6enpumQAAAAAAABQHKNGj55HhbL9+eyZW2xsrJXgIiDle1xYyAAQAAAAAABAgXTp2u1SA1vbnZQo2/Xr152EEEIi1eQQ4LI8evSoNhUAAAAAAAAUy7Dhw1dSoWw301LthBBCIuUQ4DI9Yg9AAAAAAAAAhTNy1OjtEk3NC5Qo3c20mw2EEEKizSHAZSpkAAgAAAAAAKCQgoODT1KhdOnpfw8Aa+noPCZH6e7du1ePCgAAAAAAAIqne/ceO6hQuuS/rwQsMdDX/4McpcvPzzOmAgAAAAAAgOIZEhZ2VEND4yIlSpaZkVFfCCEkenoMAMtyL/+uIRUAAAAAAAAUk4+PbzQVSiaTyVxu3LihJ9FjD8Ay5efnG1EBAAAAAABAMbULCQmnQukyMzLqS/T06j4kReny8nJNqAAAAAAAAKCYmgUFnaZC6bKysywldfX0HpCidHl5nAMQAAAAAABAUQU1b55eS0cnkhIly8vNM5boMQAsU24OewACAAAAAAAoMj9///NUKFnOnTtmEr06HAJcljs5d8yoAAAAAAAAoLiaNg1gD8BS5ObmmEo5BLicSDk5plQAAADKbObsOcLJ2dmFEvIVdf5c4rdTphACAAA58PJqHEuFkt3JyTGV1q3LHoDlcE5JSdF3cHDgaskAAEApNW7c2MbL2zuDEvJ18MABPyFEFCUAAKh+zi6uCVQo2e3sbAtJHQaA5crOzragAgAAAAAAgGJydnZ+IpVKoynxsuzsbAuJHgPA8kNlZVlSAQAAAAAAQHHZOzgmU+Flebm5JhILS8siIUQSOUrHHoAAAACoLJlMpkEFAADkx83NLZ4KJf9OIhFCCF1d3UJylC4zM9OaCgAAAAAAAIrLxcUlkQolkwghhKWVdSYpSpeZmVGfCgAAAAAAAIrLwYlDgEvz9wDQMosUpUtOuu6kbstcp06dAtY8AADAq+MQYAAA5Mve3v4GFUr21wDQwiKbFKVLTla/AaB3kyYxrHkAAAAAUF/8IQPKxs/P/7YQ4hIlXiYRQghzcwaAZSkuLnZPTk42UKdlHho27FfWPAAAAAAAgPKTCCGEmbn5bVKULTU11U6dlrdb9+6nBw8Z+hVrHgAA4BWx5wwAAHJnYGBwnwov+2sAaGZ2hxRlS0lJdlS3ZZ41Z853M2bO6mbv4HBACJHEVgAAAAAAABSZhQXXuSiJVAghTM1Mc0hRthvJKQ7quNxhw4btFkLsFkKI9PR0XWV4zc2a+j96+vQpGy0AAAAAAGrGxMw0JyEhnhD/8dcA0JQBYHkSExNc1b2BjY1NoVK8Tmury0KIRmy1AACgJskEhwADACBv5hzlWiKJEEK4u3vc4RDPssVcuOBDBQAAAAAAAMVlYsoAsCSSfz7Q0tIqIkfpHjx44JOSkqJPCQAAAAAAAMVkYmKcR4WX/TsANLewyCZH2RLi49ypAAAAAAAAoJj09PX/oMLL/h0AOjo6JpOjbFcuX/GkAgAAACpCJuMcgAAAyJu2ljZXBS3BcwNAp+vkKNul2EteVAAAAAAAAFBM2tqc4q4k/w4Abe3sUslRtosXL3pTAQAAAAAAQDFpadd6QoWX/TsAtLe3v0GOst3Jzg5OTU2tSwkAAACUh0OAAQCQv1rsAViifweADWxt08hRvuioKD8qAAAAAAAAKB4tzgFYon8HgB4eHneEEEkkKdu5yMgAKgAAAAAAACgebW0GgCWRPP+JlZXVLZKULSIiogUVAAAAUB6ZjAYAAMgbA8CSvTAAdHF1TSBJ2ZISE7pmZ2VpUQIAAAAAAECxaDEALNELA0B7e4cUkpSPqwEDAAAAAAAoHqmm5jMqvOyFAaCDo2MyScp34vjxN6gAAACAsnAVYAAA5O/Zn880qfCyFwaAdnZ2qSQp3769eztTAQAAAAAAQLH8+exPCRVe9p9DgO1vkKR8mZkZrRMTEowpAQAAAAAAoDie/ckAsCT/vQhInq6ubixZynfkyJE2VAAAAEBpOAQYAAD5+/MZhwCX5KWpqJe390WylO/wofAQKgAAAAAAACgOzgFYspcGgJ6NGrMHYAWcPnWqORUAAAAAAAAUB+cALNlLURo18rxClvIVFRV5/L5pY1tKAAAAoCQcAgwAgPxxDsCSvRTFw6PhVbJUzPbt23tSAQAAAAAAQDFwDsCSlXQOwAyJpmY8acp3+NChkXfu3GGyDAAAAAAAoACeMQAsUYnDK3c39zjSlO/PZ8/EoXAuBgIAAICXyUgAAIDcPX36VJsKLytxANjYiwuBVNSuHTt7UAEAAAAAAKDmFRY+qk2Fl5U4APRszACwog4fDv/w+vXr9SgBAAAAAABQswoLH+tQ4WUcAlwFtvz+e18qAAAAAAAA1KzCwkJdKrysxAFgi+DgOKlUyhCwgn5dueItKgAAAOB5MplMgwoAAMjX48cMAEtS6hVsfXx9o8lTMXl5eYE7d+xoTgkAAAAAAICa8+gRA8CSlDoAbNYs6DR5Km7tmtVDqQAAAAAAAFBzOAS4ZKUOAAODGABWxrGjR9+LijpvTwkAAAAIDgEGAKBGFD7iKsAlKXUA2LZt20sSTc14ElXc4oWLPqICAAAAAABAzSgsZABYEklZ32zcuHEsiSpu184dY+PirplRAgAAAAAAQP7u3rtXjwov0tHRLSxzABgU1OIUmSrn1xUrh1MBAAAAgkOAAQCQu5ycHFMqvMjQsN69MgeAgc0Cz5CpctasXjXt+vXrTJsBAAAAAADkLPfOHY7M/A8DA4P7ZQ4AO3bqdF5DQyORVBVXXFwsZkyfNo4SAAAAAAAA8pWbm2tChRfVMzS8KynvRm5ublwIpJK2b9v2RWxsrBUlAAAA1BdXAQYAQP6ePn2qTYUXmZqa3Sl3ANi+Y6d9pKr0L3vi668mfkcJAAAAAAAA1CQTE5PccgeArVq1OkaqyjsdETH84IEDvpQAAAAAACgj9mSGsrl06ZKhEMKLEi8yNjbOK3cA2LxFi3hDI6NIclXe/8Z+NpMKAAAAvHEGAADV797du4ZUeJmhsVG+pCI3bN++/UFyVd6tW7femPz1pNGUAAAAAAAAqF6ZmZnWVHiZsXEFDgEWQojWbdsdIterWbpk8dyrV6+aUwIAAAAAAKD6ZGZk1KfCy4yNKrgHYO/evU9IpdI4klVecXGx+PC9d5dRAgAAQL3IBIcAAwAgTxkZ6TZUeJlhRQeAQggR1Lz5KZK9mvj4+G5fTpjwKSUAAAAAAACqR2pami0VXmZmappT4QFg+w4d95Ps1S1b8vPM/Xv3NqUEAAAAAABA1UtNSXGgwoukUmmchaVlUYUHgG+0euM42V7P2M/HRmbduqVNCQAAAAAAgKqVlZVlSYUXWVlbZwohRIUHgK6ubrlOLi57SPfq7mRni3ffeXs5JQAAANSAjHMAAgAgL8nJyVpCCC9KvMi6fv0MUZkBoBBCDBo4aB3pXs+5yMjBH77/3lRKAAAAAAAAVI34uGseVHiZzasMALt067aLdK9vy+bN45cuWdKHEgAAAAAAAK/v6pWrDanwMivrVxgA2tnZPXyjVatl5Ht9EyeM37xyxYrulAAAAFBNMg4BBgBAbi5fudyICi+zsLTIFpUdAAohRN9+/TaRr2qM+9/nO7Zs3tyKEgAAAAAAAK/uUsxFbyq8zMrCMku8ygCwX/8Bh2rp6Fwm4euTyWRizKiRR8PDw5tQAwAAAEANcU5NTa1LBgDKLDubKwCXpIGdXap4lQGgEEL06NFjBwmrxtOnT8Xg0AEX1qxa1YUaAAAAqoNDgKFMHjx4oEcFAMrq6JEjTlwBuERJHh4ed8QrDwB79d5Kwyr95VCM/ezT3WtWr+5MDQAAAADyxgAQgDI7FRHRggovs7T86/Bf8aoDwJCQkBgzC4uTpKw6MplMfPbJx3u+mjjxY2oAgHoqKirSogIAoCbcv3fXkAoAlNWRI4fbUuFlLq6uCf98LHnVBwkdELqBlFVvyeJFs4cOGTyHEgCgfh4/fqxDBUB1cAgwlEnmrVtWVACgrK5c5grAJXFwcEz+5+NXHgAOHjp0tURTk5rVYP/evWOCg4J2Xr161ZwaAKA+OPwKAFBTsjIZAAJQTlu3bPHn/H8ls7O3v/HPx688ALS1tS3o0aPHdHJWj4SE+G7t27bJXjB/3kBqAIB6yMzMtKYCAKAmZGSk21ABgDKKOHkymAols//7CsDidQaAQggxZGjYKnJWn6KiIvHN5Mnrhg8Lm5l165Y2RQCoCg0OiitRevrNBlQAVAeHACseqVRaTIWSxcZy+BwA5bRj+7ZeVChZlZwDUAghWgQHxzXx8dlI0uq1Z9euT5sFBDxhb0AAKvMGTJM3YCWJib7gQwUAqMb/f6RaRVQoWUrydScqAFA2WzZvbvrgwQOuAFwCXV3dWAdHx/v/fC553QccGjbsV7JWv0ePCsQ3kyev69yhw7rTp065UgSAUr8B0+INWEmys7NaZmdnSykBANVDS4s/QJVGJpO5REdH2VECgDJZv27tYCqUrGFDzyvPf/7aA8BBgwfvNzQyiiStfERFnR/Ys3u3+NAB/RdeunixPkUAKCNTU1OZECKJEi87fepUcyoAqkEmo4Gi0dbWfkqF0p05fTqICgCURXJystbJEydGUaJkDT2reAAohBBvv/3OL6SVr8Ph4R+FtG2T3rVzpzU7tm9nd1cAUBEH9u/rRAUAqB6a7IFeppPHT7SkAgBl8fumjf2pUDoXt/8//5+oqgFg6KCB67W0tKhbA85FRg5+9+23TrZt0/r3DevXdaAIACi3A/sP8LMcAKpJ3Tp1H1KhdKdORbBjAQClsXjhwhFUKJ27m3vc859XyQDQxqbBo6Fhw/5H3ppz+dKlN8eMGrXfyd4u6quJEz8+f/68PVUAQPk8elTgvXTJkj6UAICqZ2Cg/wcVSvf06dOGa1at6kIJAIruh6lTBxcWFgZSonSubm7xz38uqaoH/mjkyAXa2toUrmF//PGH75LFi2Z36dghpXHDhscnfvnlJ0ePHGmsLst/ITra9s9nzxqxJQCKT09P7wEVSvbz4kUfUQFQfjKZTIMKikVfnwFgeX7bsCGUCgAUWVJSUq0F8+auoUTpHByd9v193vV/VdkA0MbGpnDYW29/SmbFkZ2d1XLpz4tn9e/75qX6lhZXQvv1X7Ro4cL+5yIjHVXiH31iotH+vXubTv/hh3f7vdlniZ2NTUzH9iGpRUWc2gVQBiampjlUKFlGenqbmTNmDKcEAFQtPQaA5Tp//tygSBV5v1AZd+/eNWTtA8rh22+mTOJ9f9n8/f2i/vs1aVU+wUcffbRo1a8rZz15/JjaCubp06cNDx8Ob3j4cPiHQghhbWF+rYmPzwVXV7d4F1fXBAdHx2RHR8dkBwcHhfmlKDs7W5qbm2uSdeuWVUZGRv3MjIz6N2/ebHD9epJzQny8W/NmgR6sWUB5GRka5d8QKYQoxfx581YkJSbucHZxyacGAFQNfT0GgBXx/bfffC2ECFOHZb2VmVlr/Phx09atXfMxax7KICs7S62Xf83q1a0+++Tj8WwJZfP28bnw369V6QDQytr6yaSvvx6zeOGCueRWbEVFRR7nIiM9zkVGvvD1+pYWV11cXRPMzSxum1mY3TY1Mc0xMjbOMzU1yTU2Mc3R1dUtFEIIbW2tIh2dvz4uyYMHD/SeP+zl6ZMntQoKHtYtKCioc/+PP/QLHj6s+/BhQZ2CgoI6Dx/8oX/33r16eTm5Jrl5uSY5OTmmBQ8f1m3c0MOZNQWoLkNjIwZbZXj0qEAMGTx4rRCiMzUA5cQhwIpH38DgPhXKd/bMmaEHDxyY175Dh2hVXs6Nv20Iadu61cG8vDxWOpRG3969xeiRI76Yt2DhdHVb9nORkZa9e/Y4ylZQPi8vr0v//Zq0qp9k5KhR81ev+nVuwUMusKWMnj592vDK5csNr4jLxABQrQzr1btHhbKlJF/vNHTI4Dmr16xlrwQAqAJmZpx+oqJGjRwRlZmZqWNtbf1E1Zbt900b28748cf/jRoxoj1rGspGJpOJ3zZsmObq7NRh9Ogxc0eMGrVDXZb9/XffXfb06VM2gnJIpdI4Pz//G//9uqSqn8jU1FT23vsfvE9yAEBZ6hmyB2BF7N+7d8xbw4f9RAkAqJL3KgwAK+hufr74ePSo+aq0TOEHD/p07dxpzYgPPzyUeuMGwz8o+7/R1lMmT9ru4epyaNHChd1UfXmb+vluy8zM4CrlFeDl5X2xpK9LquPJxk+YsLRePcNzZAcAlMbS0iKbChWze+fOzzqEtPstPT1dlxqA8uAQYMVjamZ+mwoVd/zYsXcHDQxV+iHgmlWrujQLCNgzKHRA9LnIyMGsWaiS3NzctpO//mqnjbXV2dEjR3xx6dIllbqgTXR0lJmHm2t46o0bPVnbFdOyVatjJX1dUl1P+PXkyZPJDgAojZWVdSYVKi7mwoX+XTt1fBR+8KAPNQDg1RgbG3Oyt0oKP3Bg5NAhg+co2+vOzs6WLl60qF+Av9/+zz79ZHfy9STOqQuV9uTx44DfNmyY1r5tm/xhYUO/279vX0NlX6aNv21o/mbv3rdzc3LasYYrLiAw8GxJX6+2AeDgIUP2+fr6bSA9AKAkllZWt6hQOVlZWWJQ6IDoER9+8F16+s3aFAGAyjE1McmlQuXt37t3TGDTpnsvxsTYKPprPbB/v9/wYWEzfbwaF036auLGGykpHViDUCcymUzs3b37y6GDB11xcXQ8+sXnn486feqUjbItx9Ahg6eOGjEigutLVI5UKo1r06ZNbEnfk1TnE3//ww/jNTQ48gEA8DIrBoCv7PdNm74M8PMrGDN61KTLly9bUgRQ2Hdh/CKsaP/3WFs/qaWjw9XuXkFK8vVOHULa3Rz/xRefK9prO336tMuUSZNGNXR3Pzlk0MDze3bt+rS4uJiVBrV3797dVitXLJ/Xs3u3m00aN949Ydy4j/bt3dNIkV/zt1OmDLetb31m/96941mDlefr5xdV2veqdQDo4+ubNiA0dAqrAADwX7a2tgUaGhqJlHg1xcXFYsO6dZPbtnrjVpvWrTYvXbKkT1paWh3KAEDZnBydrlPh1chkMrH8l2U/2ts2uDDxyy8/iY+PM62J15Genq77+6aNbUePHDHFxdExsme3rgkLF8yfl3PndgvWElCyzMyMLr8sW7owbMiQWHMT45jOHTosmzF9eqgi7B145MgRp/feeedrK3OzqPnz5q4oLCwMZI29muDglidK+560up98/JcTv9u9a9ekBw8esCYAAC+wrl8/IyM93YUSr+dKbGyfibGxfSZOGC8C/P0OtGnT9rB/QECkq6trQsOGDav8hPc3btzQy83NNcnPyzMuePSo9rPiIq1atXQeNw0IiLSwsGCXCwAKzdHJ6frVq1cI8RoKHj5ssvTnxU2W/rx4Vru2bX4PaRcSHvzGG8eDgoKq5Q97ly5erB976ZJXTExMk7ORZwN9vb24EijwGmQymXdU1HnvqKjz78z4cbqwMjeL9vZuEhMQGHjWs1Gjy/b29jd8fH2r7arpMRcumJw9ezbw+NGjrSMiTgYP6PumP2ulagQ1b36qtO9V+wDQwsKiePGiRf0nfTVxI6sCAPA8z0aNLmekp7ehRNW5kZLSYXlKSoflvywTQghhZW4W5+LimmBpaZVlYWmRZWJikmtsYpKrKdV8VrdOnQKpVFr89y+CGvf/+EO/6GmRVuGjR7ULCwt17969a5h/N98oPz/f6G5ennF29m3ze/fuGgb4+TqX9Nza2tpi9syZwz757LNVrAlACBkJFJK9g0MKFapO7MWLfWMvXuw786cZwtzEONHV1TXBy9v7ooOjY7KJiWmOqalpjqmZaY6Ojm5hrVq1ntSqVevJP/d98uRJrSdPntR68vixTl5+vlFuzh2z/Lx8o+zbt82Tk687XU9MdElNTbULadvGmdJA9SkuLvaNijrvGxV1/p1/vmZmbHTJxNQ0x87WLtW6fv0Ma+v6mWbmZrfr1KlTUKdOnQI9Pb0HdevWfSjR1Hz238crLCzUvX//vsH9e/fq3bt31zAnJ9ckKTHBNT4u3i07O8uyQ0g7L6pXPX19/egWwcFxpX1fKo8X8eFHH21qFRwceu3aVS7bDAD4l4eHx7X9e/cSonp/oXO/du2q+7VrV6v9uZ4+fSp+mPr9r9N/+EH7i/Hjl1EfgCJycLC/QYXqIZPJXOLj413i4+O7UQNQel65OTkiNydHREWdp4YS6NS58975CxeV+n2JvF7I4qVL3tfW1maNAAD+5eLqFk8F1TN79qylCQnxJpQAoIjc3NzjqAAAUDXtQtofLOv7chsAurt73Bk3YcIgVgkA4B8uLi5cBEQF/fnsmdiza3dXSkDdybgKsEJq4uNzU6KpyR+gAAAqQyqVxvXo2TOirNtI5PmCRo4avT4wKIjzAgEAhBBCeHp6ZkulUvbEUEFpaal2VACgqJydnJOoAJSPP2QAyqF5ixYR5d1GIu8XNWfO3DG1a9dh7QAAhBBC+Pr5RVFB9RQXF0upAEBReXl7XaICAEBVdOrSZU95t5H7ANDB0fH+pClTerB6AABCCBHYLOg0FQCoIvacUVyejRrHUgEAoAqkUqno1q37zvJuJ6mJFzf8rbd2BrdsuZzVBADw9/fnsmIAALlq2rTpOSoAAFRBm3bt5puamsrKu52kpl7glm3b37Fp0OAwqwoA1Fv7Dh2ihRCci0nFaGhoyKgAQFH5+Pqm6erqshcgAEDp9erVe2tFbiepyRe5fMXK4bV0dFhbAKDmXF3duBojAECumnEKCgCAktPR0Y3t8+abxypy2xodAHo3aZL+/dQfurLKAEC9dezUaR8VAKgazgGo2AKaBZ6lAgBAmXXt1nV3RW8rqekXOzQsbM/wt94ex2oDAPXVpl27Q1QAAMhTq1atj1IBAKDMhg4bvrKit5UowguePmPG9KYBAWtZdQCgnpo1a5ZkaGQUSQnVwTkAASi6Jj4+N80sLE5SAgCgjBo29NwWGBh4vaK3lyjKC5+3YOGIevUMWYMAoKbat29/kAoAVIlMcAiwouvcqfNeKgAAlNHwt99eXpnbK8wA0MHB4Y/1G39z0NXVZS0CgBpqF8IAEAAgX63bcBgwAED51KlbN2ZoWNieytxHokgL4Ofnf2PJsl+aSjQ1WZsAoGZ69OwZYWBgEEUJ1cAhwACUQafOXSL19fWjKQEAUCahoQPXV/Y+EkVbiI6dOp2fPWdOR1YnAKif3n3e3EwFAKqCqwArhx49e22jAgBAWWhpaYkPR4xYWNn7SRRxYUIHDjrw2djP32O1AoB66dWnzxYqAADkqWcvBoAAAOXxZr9+k21sbAorez+Joi7QF+PHLwsbNnwCqxYA1EdgYOD1Bra2hyih/DgEGICyCG7Z8pqFheUJSgAAlOB3bPHRK+z9JxR5ACiEEDNmzvyhbduQxaxiAFAf733wwc9UAKAKOARYeQwbPnwlFQAAiq5j585zXF3dcl/lvhJFX7gNmzZ+1Kt37+msZgBQD++99/4WTsgOAJCn0IED10ulUkIAABSWRFNTjJ8wYeor318ZFnLJsl/G9e3X73tWNwCoh2HD31pBBQCAvFhaWT3t3qPHNEoAABTVwIGDvnJzc8951ftLlGVBFy7+eeLQsGFfssoBQPUNHjp0tURTkxDKjHMAAhwCrGSGDA1bRQUAgCLS0dEVn33++YzXeQyJMi3wT7NmTR3+1tvjWPUAoNrs7OwehoUN4+c9AEBumrdoER/UogXnAgQAKJwPR4x439ra+snrPIZE2RZ6+owZ07k6MACovjEffzxHR0eXEAAAuRk79vX2rgAAoKqZmJqeHj9hwtLXfRyJMi78jJkzf5g5a3ZXDg8DANVlZW395L333x9BCeWkITgEGOAQYOXTIjg4rlXr1kspAQBQFFOnTf+iKh5HoqwBhoSF7Vmzbr1Pnbp12RoAQEW998EHP+vp6RECACA3H3/y6SwqAAAUQfuOHef37NkzoioeS6LMIUJCQmL2Hzxoamdvz1YBACrIzMzszynffteZEgAAeQlq3jwhdODAKZQAANQkXV1d8f3UH8ZX1eNJlD2Iq6tb7u69+zQDmzVbzeYBAKpn8JAh+4JbtlxOCeWiwVWAASix8V9O/E5fX58QAIAaM/Z//xtsa2tbUFWPJ1GFKGZmZn/u3L0nrM+bb/7AJgIAqmfa9B//p62tTQgAyoUxuNKysLAo/nTs5wMoAQCoCW3bhiweNXrMuqp8TIkqBVq8ZOmEmbNmd62lo8PWAvyHnp7+H1SAsnJ2ccn/7PPPh1ECACAvH40YsbFZ8+a/UgIAIE8mJiZi9tw5Y6r6cSWqFmpIWNieffsPWDm7uO5mswH+n0fDhlepAGX2yaefrWobErKIEgAAeZk9Z+6Y2rXrEAIAIDfTZ/zU3MLSsqiqH1eiirE8GzXKOnXmTLd+/ft/x6YDCGFgYBAVNmwYQ3GoxBsxE1NTQigBzgEICCGTyTSooNwcHBz+GP/ll30pAQCQh2HD3xrfrXv309Xx2BJVDrdg0eKv5syb37FO3bpsRVDfX1wdnfZt3rqtFyWgCiwsLIpnzZ7TVEOD99QAAPl4/4MPNrNjAQCgurXv2HH+jz/9NK26Hl+i6gEHDhp04PjJiDpt24YsZnOCOtHS0hJjPvn0w7PnznX28vbOoAhURcdOnc5PnT6doTYAQG4WLFr8lWfjxlsoAaAq3qcB/+Xs4rp77br1o6vzOSTqELJBgwaPNmza+NGadev9Tc3MI9i0oOq6de/x0+nIc3W/nDjxZ2pAFb399jvbR4wcNZoSiotDgAEOAVY1i3/++QN9fX1CAHgt/gEBYskvy1ty8VL8w8TUVKxeu3ZwdT+PRJ2idujYMepqXFxw/wEDvmUTgypydnHdvWnzlsbLV6783NbWtoAiUGWTpkyZ37lr19mUAADIg6urW+7qdetdedOO8tSpW1dw8RiUxtHBcWKvXr1Ohh8+bObq6raLIurNxMREbNuxw9TR0fF+dT+XRB0Dz1+46Otly1cEW1vXP8rmBlWgp6d3YcLEiWGnzpzp1qp168sUgbr4ddXqT7v36DmDEgAAeQgKCkpcsnRpM4mmJjFQoo6dO889ERFRx7+pPzFQIls72zQhhHBzc885efp0d84xqr709fXFhk2/13d1dcuVx/NJ1DV0j549I2JiY9t8P21aHwMDA7Y8KCUDAwPx9eTJg5JT03w//uTT1RSBOvplxYr/hXTosIASioVDgAEOAVZVnbt0PTt33rz2XJAKz7Np0ODw6jVrA1avWfuxjU2DRw4OjuOogpLUr2+T/vznCxYt/urryZMHcW5A9VJLR0f8smJlYy8vr0x5PadE3aO/++57W4+djNAZEBr6DZsglOmHxQcfjfj4RMSpWiNHjV5PEai7des3jOrQqdM8SgAA5KH/gNDwX1evDuQNO3R0dMXXkycPio652K5j587n/vm6vYNDCnVQEpsGDW7+92sjR41ef+zESWMfX9/fKKT6DI2MxNbtOxzkffSehPRCWFtbP5m3YOGkfQcP2gc2a8ZeVFDoXzBGjBw1+nxUtPY3334719LK6ilVgL+sWbtuzLvvf/AZJQAA8tCpc5fIufMXtJFKpcRQU7379Jl2+Ngxo5L+IG9r+/KQBxBCiPrW1iXu8eXs4pK//2B46KjRY0ZymgHVZWJqKjZt3lLf39//hryfmwHgc3x9/VJ37t4Ttn7jpib+/k3XUQSKwsDAIOrjTz/74PyFC9JJU6bMt7C0LKIK8LLvp06d9clnY9+nRM3jEGCAQ4DVwZt9+x7dtXevvYWFJTHUyIDQ0G9OR54z/HnpsvHOzs53S7pNA1u7VErhv3R1dWPL24njq0mTFh4IP1Tfu0mTTRRTLXZ2duE7du02kudhv89jAFiCdu3aXdyzf//g/QfD7dp37DifIqgpno0abV24eHG7pJQb/hO+/HKJubn5M6oAZRs/YcLSTZu3NDY2NiYGAKDa+fr6pW7dscPQycVlDzVUW2BQ0Krtu3a7zluwcJKTk9O9sm7bsGHD20KIJKrheR4eDa9W5HZeXl6ZBw8d7j91+vTehkZGkZRTfq1bt1lyLvpC+9L+aCAPDADL4OPrm7Z23frRW7ZtbxjcsuVyikBeAgID16z4dVXQkWPH+/Tt1/8wRYDKadW69eWdu/cYe3g03E4NAEB1c3Jyunf6zNmuPXr2+pEaqqeJj8/Gdb9t9Nm5a/ewoKCgxIrer77Nixd7ABp6el6pzO3feefdbQlJ1wO/njx5kK6uLgGVkIaGhvhi3Pi3Nm7e/EFNvxYGgBUQ3LLltS3btr+z/2C43YDQ0G+0tLSuUQVVTUdHN3Zo2LAvw48crb9rz96hXbt1O6Oqy6qrW/sRa/xlWlranNOxCjm7uOQfO3my1xfjxr/F+ZkA1AQOAVY/y5Yv/2Lh4sXtdHR4o64K2nfsOH//wXC7A+GHBoSEhMRU9v6ejRpdpiKe5+LqmvAq9xs5avT6Yycj9Pv26/c9VyBXHoZGRpHLlq9o8dnnn69UhNfDALASfHx90+YtWDgpM/t2w++nTetjZ29/kCp4XY29vX9fuHhxu5uZmV4/zZo1tabOByBPZuZmd1jzL6tdp04BFareZ59/vvL3LVvd7ezswqkhP5wDEIC66tuv/+E9+/dbcf4u5dW6dZslW7Ztb7h23frRPr6+aa/6OK4urzbsgepycXFJfNX72tvbP1i4+OeJp85GGg4IDf2GmoqtV+/e0xOSrgd279HjlKK8JgaAr+jdd9/bei4qusPPS5e1CggMXEMRVEadunVjBg8Z+tWWbdsbHjp8pJ+6Hebr5OzM+VBKYGVldYsK1aN5ixbx56IvtOfwCQCAPDRq1Cjr4KHD/WfOmt1VT0+PIEqgdu06YszHn3x0LvqC3sbNmz8IbtnytY/6cnVzi6csqvp9kJOT0715CxZO2r5zlxunKlM8enp6Yuas2V2XLPtlnKK9NgaAr6l3nz7Hd+3ZO/TS5Su1vp82rY+rq9suqqAktXR0xIDQ0G82bd7S+EbaTZ9Zc+Z8VxW/WCijtu3aHWKLeJm7u3scFarXyFGj1x86esyoXfv2C6lRvTQ1NeV+0aLaurqFlC/tjS2nXqC7YqmjJnu9DwkL23Po6DH9Xr17T2etKyYTE5Mzn439/L3TZ8/qfPnVV4vt7OweVtVjezSs2AUfFJmOjs7jmnpuXRX7f93auv7R+vXrV1nPoObNE7Zs2/5O+JGj9f8+VRn/oGuQhoaGGDho8KRTZ85qDwkLU8iLQnHweDWIOHnSfcvmzW9u27q196NHBd4UUe8fAkEtWqzo1r37zi5duu7mKr7P/ULk5noqNycniBJ/MTAwiEpKueFPCfm5GBNjM336tHGHw8M/okbV+3ry5EEjR41eL8/nTE1NrdvU1+cB9V+kp6d3ITk1zZcS8nfmzBnnHl27JFLiRbV0dC6nZ95qrG7Lff7cOYdvv5ky6eyZM0PZCmpeUIsWK8OGDV/Zq1evk9X5PO4uzmfy8vIClbXT0uUrgnv27BlRU89vY20V++Tx40aqsM0NGRo2cebs2d9X1+PfysystXr1qrBVK1cOV+ZtThn5+vpt+Hbq91/6+fnfUOTXyR6A1aBFcHDc7Llzv01NT2+y4tdVQf0HDPhWX18/mjLqQUtL61qHTp3mzZ0/v2Ps1WvSbdt3vP3WW2/vYPj3otlz5o6RaGoS4m+fjxs3jQry5d2kSfqG3zaOWL9xU5NmzZv/SpGq1bx5C7m/WbCzs3vYoVOnedR/0bDhb62gQs1o1qxZUiMvr82U+M+b4CFDV6vjcvs3bZqyc/eesN+3bG3E/zs1w9DIKPKDj0Z8fDwiwnz7jp1vVffwTwgh2oWEKO05iC0sLE/U5PBPCCEGDx6iEqfbkmhqikGDB6+tzuewsrZ+Mm78hKVxiUnNli5fEfxGq1bL+FdfvTwbNdq6as2awH0HDw5U9OGfYA9A+Tp+/JjnwQMH2+/euaNHVlZWS4qoDn19/eiQ9u0PdujUeW9N/yepTPbt3RPwxef/+zE7W73/Pbzz3vtjp/7ww0y2iJp1ITra9pdlS9/bvm3bhOLiYoK8hl69e0+vqfOeZGdlaXXv1vVp6o0brAghRNOAgLW79+4bQomak5AQb9Kre/ec3NxcYvx98bNDh4/0o8RfRw398suyd/fv2/fJn8/4O3F10dXVje3eo8eO7j17bXuVK/m+rqxbt7Q7dWj/5NYt5TrVs1QqFavXrW/Srl27izX9Wtq3a7vxYkyMUv/c+OHHH3u9/fY72+X9vNevX6+38bffBqxbu2YIR19VHQ+Phts/HTv2J0W6wEdFMACsITEXLjSIiDgZfPzYsVZnTp8OKioq8qCK8pBoasY3bdr0XOvWbY60CA4+6d+0aQpVXt2mjb+127t3b+dzZ88G5ubmmqjDMltb188Ibhl8cuDgIWsCAwOvsxUojuzsbOmO7dt7rl+7ZkhcXFx3ilRO6MCBU+bOXzC5ptfhtKlTJ2zftq2Xup6Kw9DIKHLgwEHrJk2ZMp+tsualpKToT/3uu4n79+3t/PTp04bq2MDAwCCqf+jA9d99//1stogX3bx5s/aGdesGrV69emjOndstKPL6aunoXG4XEhLeo2evbYrwx/n09Ju1P/344znHjx17Vxn6+fs3XTdpypRJTQMCkhXlNX01ceLHGzdsCL13725TJdoUkxo29LzyxfjxP3Ts1Ol8Tb+Y48ePee7euavbzp07etzNzw/gJ0WlZwCiS5euPw0bPnylsp7LnwGggjh8+LDXqZMng48cPtz22rWrPSmieOzs7MLbtgsJb/lGyxOdOneJpAig+i7GxNjs2bOny7atW/rcTEtrR5GXSaXSuOYtWkSEtO9woHXr1kedXVzyFen1ZWZm1vrzzz/V6pQnWlJpsYWlZRFbp2JKT09Xu0uRSzU1n1laWT1l7Zdv/759/ps2bey/f+/ez9gbvXL09fWjO3XuvLdjp077unTtdkYRX2NiQoJxXFyc+9OnT2pV5n6aUq2iOpW8qJCWtvbTyl5EQ1tbq6hBA9s0U1NTmaKu56xbt7SLnz1TivMI2djYKOxFTA4fPuy1e+fO7rt37ex+//59P36ClM7eweFA3779NvUbMOC3Bg0aKPXFvRgAKqA7d+5IYmNjG8dER/tGR0X5nT9/rumDBw98KCM/tXR0Lvv6+UX5+zc95+vjc8HL2/siv7gC6u1CdLTtkcOH2+4/sL9j7MWLfdU4RZJno0aXAwICzzZv0SKiazfFfJMFAMrs9u3bmseOHmlzKPxQu0OHwkMKHj5sQpWXOTo5723Ttu3hkJCQ8FatW1+mCFB55yIjHU+eONHy8KFD7aKjo/xkMpmLujexadDgcO/efbZ06dp1t3eTJumqslwMAJVEfHyc6cWYmCaXL1/xvBx7yevSxYvehYWFjSlTNW9mnVxcEn2aNInx9fM/7+3tfbGJj89NsgAoTWZmZq0zp08HRZ0/73/m9KnmcXFx7kIIZ1VcVl1d3diAwMCzAQGBZ339/KJ4gwUA8nfyxAmPiIiIFseOHmlzMSamibq+QTcxNT3dpk2bI8EtW55oFtT8lLLvjQMoou3bt7c4cexYq1OnIlrcSEnpoA7LrKGhIfybNl3boWPH/a3btD3s6emZrZLLyeatvK5fv14vIT7OPe5anHvs5djGSYlJzmmpN+yLi4vdqVP6G1kvb++Lno0ax3p4eFxzc3eLV4ar9QBQfIcOHfKOOn+uaWRkZED0+Si/x4+V7480tXR0Ljdu1DjW3cPjmmejRpebNGkS4+XtncHaBQDFsn/v3qbRFy74nDsXGRB9/ry/Kp5bUkNDI9HDo+FVP3//895//X90UVXflAOK6vmjE6POn/c/d/5cU1XYI1lLS+uar59fVEBA4FkfX58Lvn7+583MzP5U9fXJAFAFpaam1k2/ebNBenq6TVpamm3qjRSHm2k3G6TdTLPNzckxVdW9VJ7/x2zTwDbN3s4+tYFtgzSbBjbpDg4OKa5u7nGOjo732UIAyEN6erpuWmqqXXJysmNycrJjUlKiS/y1OPfMzIz6Nf1zWE9P74Kbm3uck4tzkpOT03VnZ5dEZxeXRH5GAoByio2NtYqPu+Zx9eo1jyuXYxsnJCa63MnOtlCW3/tr6ehcdnZxSXR3c4v3bNQ41svL61JQ8+YJrFlA8Vy7ds0s+fp1p5SUZMeU5GTHpMQk57j4OHcFHQwmGRsb5zVu7HXJ3aPhNXcPtzhnZ5dEH1/fNHVcdwwA1VBycrJB1q1bVlnZWZZZt25Z3c2/a5iXl2uSk5trkp+XZ5yTk2Oak5Nj+uTxYx1Fe+316hneNTc3v21iZppjbGScZ2xsnGfTwCa9vk2Dm9ZWVresrK0zra2tn7CWASiyrFu3tO/cuWOWm5dnnJ2VZZmXl2uSnZVt8fDhA7179+8bFDx8WLegoKDOgwcP697NzzN+8PBh3bJ+JtfS0XmsV7fuQx1d3UJd3dqPdGvrFpqbm9+2MLfINjE1zTE1M80xNTHNMTM3v21na5vGOU0BQD0kJMSbZGRkWmekp9uk37zZIC0tzTblRorDrYyM+nl5ecbyfC16enoPbO3sUs0tLLLt7R1SHJ0ckx0dHJPtHRxSbG1tC1hbgPL/fpualmabkZFuk3MnxzQvN9fk9u1sizt37pjl3MkxzchIt7l//75BVT5nLR2dx+bm5rdNTUxzzCzMb5sYm+Q2sG1w09bO/oadrW2aKp2/ryr8H51Jw1qIvyv8AAAAAElFTkSuQmCC;" vertex="1" parent="1">
          <mxGeometry x="720" y="20" width="79.31" height="71.63" as="geometry" />
        </mxCell>
        <mxCell id="Tsn-wMp8jWEcrMPQcLiN-5" value="" style="endArrow=classic;html=1;rounded=0;exitX=1.01;exitY=0.08;exitDx=0;exitDy=0;exitPerimeter=0;entryX=-0.04;entryY=0.06;entryDx=0;entryDy=0;entryPerimeter=0;" edge="1" parent="1" source="3nuBFxr9cyL0pnOWT2aG-1" target="3nuBFxr9cyL0pnOWT2aG-5">
          <mxGeometry relative="1" as="geometry">
            <mxPoint x="260" y="105.32" as="sourcePoint" />
            <mxPoint x="360" y="105.32" as="targetPoint" />
          </mxGeometry>
        </mxCell>
        <mxCell id="Tsn-wMp8jWEcrMPQcLiN-6" value="" style="shape=message;html=1;outlineConnect=0;" vertex="1" parent="Tsn-wMp8jWEcrMPQcLiN-5">
          <mxGeometry width="60" height="40" relative="1" as="geometry">
            <mxPoint x="-31" y="-19" as="offset" />
          </mxGeometry>
        </mxCell>
        <mxCell id="Tsn-wMp8jWEcrMPQcLiN-8" value="DATA" style="text;html=1;strokeColor=none;fillColor=none;align=center;verticalAlign=middle;whiteSpace=wrap;rounded=0;fontSize=19;fontColor=#7F00FF;" vertex="1" parent="1">
          <mxGeometry x="360" y="20" width="60" height="30" as="geometry" />
        </mxCell>
      </root>
    </mxGraphModel>
  </diagram>
</mxfile>
